<?xml version="1.0" encoding="UTF-8" standalone="no"?>
<svg width="88.1944mm" height="54.6806mm"
 viewBox="0 0 250 155"
 xmlns="http://www.w3.org/2000/svg" xmlns:xlink="http://www.w3.org/1999/xlink"  version="1.2" baseProfile="tiny">
<title>Qt SVG Document</title>
<desc>MATLAB, The MathWorks, Inc. Version 25.2.0.3042426 R2025b Update 1</desc>
<defs>
</defs>
<g fill="none" stroke="black" stroke-width="1" fill-rule="evenodd" stroke-linecap="square" stroke-linejoin="bevel" >

<g fill="#212121" fill-opacity="1" stroke="none" transform="matrix(0.5,0,0,0.5,120.671,150.029)"
font-family=".AppleSystemUIFont" font-size="13" font-weight="400" font-style="normal" 
>
<path vector-effect="none" fill-rule="evenodd" d="M3.45898,-20.084 L7.24609,-3.74609 L11.7852,-20.084 L14.7383,-20.084 L19.2773,-3.74609 L23.0645,-20.084 L26.0449,-20.084 L20.7676,0 L17.9102,0 L13.2754,-16.6523 L8.61328,0 L5.75586,0 L0.505859,-20.084 L3.45898,-20.084 M33.8398,-14.9707 C34.8789,-14.9707 35.8861,-14.7269 36.8613,-14.2393 C37.8366,-13.7516 38.5794,-13.1204 39.0898,-12.3457 C39.582,-11.6074 39.9102,-10.7461 40.0742,-9.76172 C40.2201,-9.08724 40.293,-8.01172 40.293,-6.53516 L29.5605,-6.53516 C29.6061,-5.04948 29.957,-3.85775 30.6133,-2.95996 C31.2695,-2.06217 32.2858,-1.61328 33.6621,-1.61328 C34.9473,-1.61328 35.9727,-2.03711 36.7383,-2.88477 C37.1758,-3.37695 37.4857,-3.94661 37.668,-4.59375 L40.0879,-4.59375 C40.0241,-4.05599 39.8122,-3.45671 39.4521,-2.7959 C39.0921,-2.13509 38.6888,-1.59505 38.2422,-1.17578 C37.4948,-0.446615 36.5697,0.0455729 35.4668,0.300781 C34.8743,0.446615 34.2044,0.519531 33.457,0.519531 C31.6341,0.519531 30.0892,-0.143555 28.8223,-1.46973 C27.5553,-2.7959 26.9219,-4.65299 26.9219,-7.04102 C26.9219,-9.39258 27.5599,-11.3021 28.8359,-12.7695 C30.112,-14.237 31.7799,-14.9707 33.8398,-14.9707 M37.7637,-8.49023 C37.6634,-9.55664 37.431,-10.4089 37.0664,-11.0469 C36.3919,-12.2318 35.2663,-12.8242 33.6895,-12.8242 C32.5592,-12.8242 31.6113,-12.4163 30.8457,-11.6006 C30.0801,-10.7848 29.6745,-9.74805 29.6289,-8.49023 L37.7637,-8.49023 M43.3047,-14.5742 L45.8066,-14.5742 L45.8066,0 L43.3047,0 L43.3047,-14.5742 M43.3047,-20.084 L45.8066,-20.084 L45.8066,-17.2949 L43.3047,-17.2949 L43.3047,-20.084 M54.6914,-14.9023 C55.8398,-14.9023 56.8424,-14.6198 57.6992,-14.0547 C58.1641,-13.7357 58.638,-13.2708 59.1211,-12.6602 L59.1211,-14.5059 L61.3906,-14.5059 L61.3906,-1.18945 C61.3906,0.669922 61.1172,2.13737 60.5703,3.21289 C59.5495,5.19987 57.6217,6.19336 54.7871,6.19336 C53.2103,6.19336 51.8841,5.84017 50.8086,5.13379 C49.7331,4.42741 49.1315,3.32227 49.0039,1.81836 L51.5059,1.81836 C51.6243,2.47461 51.8613,2.98047 52.2168,3.33594 C52.7728,3.88281 53.6478,4.15625 54.8418,4.15625 C56.7285,4.15625 57.9635,3.49089 58.5469,2.16016 C58.8932,1.3763 59.0527,-0.0227865 59.0254,-2.03711 C58.5332,-1.28971 57.9408,-0.733724 57.248,-0.369141 C56.5553,-0.00455729 55.6393,0.177734 54.5,0.177734 C52.9141,0.177734 51.5264,-0.385091 50.3369,-1.51074 C49.1475,-2.63639 48.5527,-4.49805 48.5527,-7.0957 C48.5527,-9.54753 49.152,-11.4616 50.3506,-12.8379 C51.5492,-14.2142 52.9961,-14.9023 54.6914,-14.9023 M59.1211,-7.38281 C59.1211,-9.19661 58.7474,-10.541 58,-11.416 C57.2526,-12.291 56.3001,-12.7285 55.1426,-12.7285 C53.4108,-12.7285 52.2259,-11.9173 51.5879,-10.2949 C51.2507,-9.42904 51.082,-8.29427 51.082,-6.89063 C51.082,-5.24089 51.417,-3.98535 52.0869,-3.12402 C52.7568,-2.2627 53.6569,-1.83203 54.7871,-1.83203 C56.5553,-1.83203 57.7995,-2.62956 58.5195,-4.22461 C58.9206,-5.12695 59.1211,-6.17969 59.1211,-7.38281 M65.0859,-20.1523 L67.5469,-20.1523 L67.5469,-12.6602 C68.1302,-13.3984 68.6543,-13.918 69.1191,-14.2188 C69.9121,-14.7383 70.901,-14.998 72.0859,-14.998 C74.2096,-14.998 75.6497,-14.2552 76.4063,-12.7695 C76.8164,-11.9583 77.0215,-10.8327 77.0215,-9.39258 L77.0215,0 L74.4922,0 L74.4922,-9.22852 C74.4922,-10.304 74.3555,-11.0924 74.082,-11.5938 C73.6354,-12.3958 72.7969,-12.7969 71.5664,-12.7969 C70.5456,-12.7969 69.6204,-12.446 68.791,-11.7441 C67.9616,-11.0423 67.5469,-9.71615 67.5469,-7.76563 L67.5469,0 L65.0859,0 L65.0859,-20.1523 M81.1406,-18.7305 L83.6289,-18.7305 L83.6289,-14.6426 L85.9668,-14.6426 L85.9668,-12.6328 L83.6289,-12.6328 L83.6289,-3.07617 C83.6289,-2.56576 83.8021,-2.22396 84.1484,-2.05078 C84.3398,-1.95052 84.6589,-1.90039 85.1055,-1.90039 C85.224,-1.90039 85.3516,-1.90267 85.4883,-1.90723 C85.625,-1.91178 85.7845,-1.92318 85.9668,-1.94141 L85.9668,0 C85.6842,0.0820313 85.3903,0.141276 85.085,0.177734 C84.7796,0.214193 84.4492,0.232422 84.0938,0.232422 C82.9453,0.232422 82.166,-0.0615234 81.7559,-0.649414 C81.3457,-1.2373 81.1406,-2.00065 81.1406,-2.93945 L81.1406,-12.6328 L79.1582,-12.6328 L79.1582,-14.6426 L81.1406,-14.6426 L81.1406,-18.7305"/>
</g>

<g fill="#212121" fill-opacity="1" stroke="#212121" stroke-opacity="1" stroke-width="4" stroke-linecap="square" stroke-linejoin="round" transform="matrix(0.5,0,0,0.5,-1.32857,-5)"
font-family=".AppleSystemUIFont" font-size="13" font-weight="400" font-style="normal" 
>
<polyline fill="none" vector-effect="none" points="103,249 472,249 " />
<polyline fill="none" vector-effect="none" points="144.364,249 144.364,245.31 " />
<polyline fill="none" vector-effect="none" points="295.443,249 295.443,245.31 " />
<polyline fill="none" vector-effect="none" points="446.523,249 446.523,245.31 " />
</g>

<g fill="#212121" fill-opacity="1" stroke="none" transform="matrix(0.5,0,0,0.5,59.6034,133.386)"
font-family=".AppleSystemUIFont" font-size="13" font-weight="400" font-style="normal" 
>
<path vector-effect="none" fill-rule="evenodd" d="M1.0791,-8.41699 L7.45215,-8.41699 L7.45215,-6.06836 L1.0791,-6.06836 L1.0791,-8.41699 M15.6895,-18.1797 C18.0423,-18.1797 19.7435,-17.2106 20.793,-15.2725 C21.6055,-13.7744 22.0117,-11.722 22.0117,-9.11523 C22.0117,-6.64388 21.6436,-4.59993 20.9072,-2.9834 C19.8408,-0.664388 18.0973,0.495117 15.6768,0.495117 C13.4932,0.495117 11.8682,-0.452799 10.8018,-2.34863 C9.91309,-3.93132 9.46875,-6.05566 9.46875,-8.72168 C9.46875,-10.7868 9.73535,-12.5599 10.2686,-14.041 C11.2673,-16.8001 13.0742,-18.1797 15.6895,-18.1797 M15.6641,-1.58691 C16.849,-1.58691 17.7926,-2.11165 18.4951,-3.16113 C19.1976,-4.21061 19.5488,-6.16569 19.5488,-9.02637 C19.5488,-11.0915 19.2949,-12.7905 18.7871,-14.1235 C18.2793,-15.4565 17.2933,-16.123 15.8291,-16.123 C14.4834,-16.123 13.4995,-15.4904 12.8774,-14.2251 C12.2554,-12.9598 11.9443,-11.0957 11.9443,-8.63281 C11.9443,-6.7793 12.1432,-5.28971 12.541,-4.16406 C13.1504,-2.44596 14.1914,-1.58691 15.6641,-1.58691 M25.3311,-2.76758 L27.9844,-2.76758 L27.9844,0 L25.3311,0 L25.3311,-2.76758 M33.54,-4.63379 C33.6924,-3.3304 34.2975,-2.42904 35.3555,-1.92969 C35.8971,-1.67578 36.5234,-1.54883 37.2344,-1.54883 C38.5885,-1.54883 39.5915,-1.98047 40.2432,-2.84375 C40.8949,-3.70703 41.2207,-4.66341 41.2207,-5.71289 C41.2207,-6.98242 40.8335,-7.96419 40.0591,-8.6582 C39.2847,-9.35221 38.3558,-9.69922 37.2725,-9.69922 C36.4854,-9.69922 35.8104,-9.54688 35.2476,-9.24219 C34.6847,-8.9375 34.2044,-8.51432 33.8066,-7.97266 L31.8262,-8.08691 L33.21,-17.875 L42.6553,-17.875 L42.6553,-15.666 L34.9238,-15.666 L34.1494,-10.6133 C34.5726,-10.9349 34.9746,-11.1761 35.3555,-11.3369 C36.0326,-11.6162 36.8154,-11.7559 37.7041,-11.7559 C39.3714,-11.7559 40.7848,-11.2184 41.9443,-10.1436 C43.1038,-9.06868 43.6836,-7.70605 43.6836,-6.05566 C43.6836,-4.33757 43.1525,-2.82259 42.0903,-1.51074 C41.0282,-0.198893 39.3333,0.457031 37.0059,0.457031 C35.5247,0.457031 34.215,0.0402018 33.0767,-0.793457 C31.9383,-1.62712 31.3014,-2.90723 31.166,-4.63379 L33.54,-4.63379"/>
</g>

<g fill="#212121" fill-opacity="1" stroke="none" transform="matrix(0.5,0,0,0.5,142.893,133.386)"
font-family=".AppleSystemUIFont" font-size="13" font-weight="400" font-style="normal" 
>
<path vector-effect="none" fill-rule="evenodd" d="M7.0332,-18.1797 C9.38607,-18.1797 11.0872,-17.2106 12.1367,-15.2725 C12.9492,-13.7744 13.3555,-11.722 13.3555,-9.11523 C13.3555,-6.64388 12.9873,-4.59993 12.251,-2.9834 C11.1846,-0.664388 9.44108,0.495117 7.02051,0.495117 C4.83691,0.495117 3.21191,-0.452799 2.14551,-2.34863 C1.25684,-3.93132 0.8125,-6.05566 0.8125,-8.72168 C0.8125,-10.7868 1.0791,-12.5599 1.6123,-14.041 C2.611,-16.8001 4.41797,-18.1797 7.0332,-18.1797 M7.00781,-1.58691 C8.19271,-1.58691 9.13639,-2.11165 9.83887,-3.16113 C10.5413,-4.21061 10.8926,-6.16569 10.8926,-9.02637 C10.8926,-11.0915 10.6387,-12.7905 10.1309,-14.1235 C9.62305,-15.4565 8.63704,-16.123 7.17285,-16.123 C5.82715,-16.123 4.84326,-15.4904 4.22119,-14.2251 C3.59912,-12.9598 3.28809,-11.0957 3.28809,-8.63281 C3.28809,-6.7793 3.48698,-5.28971 3.88477,-4.16406 C4.49414,-2.44596 5.53516,-1.58691 7.00781,-1.58691 "/>
</g>

<g fill="#212121" fill-opacity="1" stroke="none" transform="matrix(0.5,0,0,0.5,212.933,133.386)"
font-family=".AppleSystemUIFont" font-size="13" font-weight="400" font-style="normal" 
>
<path vector-effect="none" fill-rule="evenodd" d="M7.0332,-18.1797 C9.38607,-18.1797 11.0872,-17.2106 12.1367,-15.2725 C12.9492,-13.7744 13.3555,-11.722 13.3555,-9.11523 C13.3555,-6.64388 12.9873,-4.59993 12.251,-2.9834 C11.1846,-0.664388 9.44108,0.495117 7.02051,0.495117 C4.83691,0.495117 3.21191,-0.452799 2.14551,-2.34863 C1.25684,-3.93132 0.8125,-6.05566 0.8125,-8.72168 C0.8125,-10.7868 1.0791,-12.5599 1.6123,-14.041 C2.611,-16.8001 4.41797,-18.1797 7.0332,-18.1797 M7.00781,-1.58691 C8.19271,-1.58691 9.13639,-2.11165 9.83887,-3.16113 C10.5413,-4.21061 10.8926,-6.16569 10.8926,-9.02637 C10.8926,-11.0915 10.6387,-12.7905 10.1309,-14.1235 C9.62305,-15.4565 8.63704,-16.123 7.17285,-16.123 C5.82715,-16.123 4.84326,-15.4904 4.22119,-14.2251 C3.59912,-12.9598 3.28809,-11.0957 3.28809,-8.63281 C3.28809,-6.7793 3.48698,-5.28971 3.88477,-4.16406 C4.49414,-2.44596 5.53516,-1.58691 7.00781,-1.58691 M16.6748,-2.76758 L19.3281,-2.76758 L19.3281,0 L16.6748,0 L16.6748,-2.76758 M24.8838,-4.63379 C25.0361,-3.3304 25.6413,-2.42904 26.6992,-1.92969 C27.2409,-1.67578 27.8672,-1.54883 28.5781,-1.54883 C29.9323,-1.54883 30.9352,-1.98047 31.5869,-2.84375 C32.2386,-3.70703 32.5645,-4.66341 32.5645,-5.71289 C32.5645,-6.98242 32.1772,-7.96419 31.4028,-8.6582 C30.6284,-9.35221 29.6995,-9.69922 28.6162,-9.69922 C27.8291,-9.69922 27.1541,-9.54688 26.5913,-9.24219 C26.0285,-8.9375 25.5482,-8.51432 25.1504,-7.97266 L23.1699,-8.08691 L24.5537,-17.875 L33.999,-17.875 L33.999,-15.666 L26.2676,-15.666 L25.4932,-10.6133 C25.9163,-10.9349 26.3184,-11.1761 26.6992,-11.3369 C27.3763,-11.6162 28.1592,-11.7559 29.0479,-11.7559 C30.7152,-11.7559 32.1286,-11.2184 33.2881,-10.1436 C34.4476,-9.06868 35.0273,-7.70605 35.0273,-6.05566 C35.0273,-4.33757 34.4963,-2.82259 33.4341,-1.51074 C32.3719,-0.198893 30.6771,0.457031 28.3496,0.457031 C26.8685,0.457031 25.5588,0.0402018 24.4204,-0.793457 C23.2821,-1.62712 22.6452,-2.90723 22.5098,-4.63379 L24.8838,-4.63379"/>
</g>

<g fill="#212121" fill-opacity="1" stroke="none" transform="matrix(0,-0.5,0.5,0,12,82)"
font-family=".AppleSystemUIFont" font-size="13" font-weight="400" font-style="normal" 
>
<path vector-effect="none" fill-rule="evenodd" d="M10.5957,-20.6309 C13.1387,-20.6309 15.112,-19.9609 16.5156,-18.6211 C17.9193,-17.2813 18.6986,-15.7591 18.8535,-14.0547 L16.2012,-14.0547 C15.9004,-15.349 15.3011,-16.3743 14.4033,-17.1309 C13.5055,-17.8874 12.2454,-18.2656 10.623,-18.2656 C8.64518,-18.2656 7.04785,-17.5706 5.83105,-16.1807 C4.61426,-14.7907 4.00586,-12.6602 4.00586,-9.78906 C4.00586,-7.4375 4.55501,-5.53027 5.65332,-4.06738 C6.75163,-2.60449 8.38997,-1.87305 10.5684,-1.87305 C12.5736,-1.87305 14.1003,-2.64323 15.1484,-4.18359 C15.7044,-4.99479 16.1191,-6.0612 16.3926,-7.38281 L19.0449,-7.38281 C18.8079,-5.26823 18.0241,-3.49544 16.6934,-2.06445 C15.0983,-0.341797 12.9473,0.519531 10.2402,0.519531 C7.9069,0.519531 5.94727,-0.186849 4.36133,-1.59961 C2.27409,-3.4681 1.23047,-6.35286 1.23047,-10.2539 C1.23047,-13.2161 2.01432,-15.6452 3.58203,-17.541 C5.27734,-19.6009 7.61523,-20.6309 10.5957,-20.6309 M27.834,-1.58594 C29.4655,-1.58594 30.5843,-2.20345 31.1904,-3.43848 C31.7965,-4.6735 32.0996,-6.04753 32.0996,-7.56055 C32.0996,-8.92773 31.8809,-10.0397 31.4434,-10.8965 C30.7507,-12.2454 29.5566,-12.9199 27.8613,-12.9199 C26.3574,-12.9199 25.2637,-12.3457 24.5801,-11.1973 C23.8965,-10.0488 23.5547,-8.66341 23.5547,-7.04102 C23.5547,-5.48242 23.8965,-4.18359 24.5801,-3.14453 C25.2637,-2.10547 26.3483,-1.58594 27.834,-1.58594 M27.9297,-15.0664 C29.8164,-15.0664 31.4115,-14.4375 32.7148,-13.1797 C34.0182,-11.9219 34.6699,-10.0716 34.6699,-7.62891 C34.6699,-5.26823 34.0957,-3.31771 32.9473,-1.77734 C31.7988,-0.236979 30.0169,0.533203 27.6016,0.533203 C25.5872,0.533203 23.9876,-0.148112 22.8027,-1.51074 C21.6178,-2.87337 21.0254,-4.70313 21.0254,-7 C21.0254,-9.46094 21.6497,-11.4206 22.8984,-12.8789 C24.1471,-14.3372 25.8242,-15.0664 27.9297,-15.0664 M40.0469,-14.6426 L40.0469,-4.92188 C40.0469,-4.17448 40.1654,-3.5638 40.4023,-3.08984 C40.8398,-2.21484 41.6556,-1.77734 42.8496,-1.77734 C44.5632,-1.77734 45.7298,-2.54297 46.3496,-4.07422 C46.6868,-4.89453 46.8555,-6.02018 46.8555,-7.45117 L46.8555,-14.6426 L49.3164,-14.6426 L49.3164,0 L46.9922,0 L47.0195,-2.16016 C46.7005,-1.60417 46.304,-1.13477 45.8301,-0.751953 C44.8913,0.0136719 43.752,0.396484 42.4121,0.396484 C40.3249,0.396484 38.903,-0.300781 38.1465,-1.69531 C37.7363,-2.44271 37.5313,-3.44076 37.5313,-4.68945 L37.5313,-14.6426 L40.0469,-14.6426 M53.1484,-14.6426 L55.4863,-14.6426 L55.4863,-12.5645 C56.179,-13.4212 56.9128,-14.0365 57.6875,-14.4102 C58.4622,-14.7839 59.3236,-14.9707 60.2715,-14.9707 C62.3496,-14.9707 63.7533,-14.2461 64.4824,-12.7969 C64.8835,-12.0039 65.084,-10.8691 65.084,-9.39258 L65.084,0 L62.582,0 L62.582,-9.22852 C62.582,-10.1217 62.4499,-10.8418 62.1855,-11.3887 C61.748,-12.3001 60.9551,-12.7559 59.8066,-12.7559 C59.2233,-12.7559 58.7448,-12.6966 58.3711,-12.5781 C57.6966,-12.3776 57.1042,-11.9766 56.5938,-11.375 C56.1836,-10.8919 55.917,-10.3929 55.7939,-9.87793 C55.6709,-9.36296 55.6094,-8.62695 55.6094,-7.66992 L55.6094,0 L53.1484,0 L53.1484,-14.6426 M69.2031,-18.7305 L71.6914,-18.7305 L71.6914,-14.6426 L74.0293,-14.6426 L74.0293,-12.6328 L71.6914,-12.6328 L71.6914,-3.07617 C71.6914,-2.56576 71.8646,-2.22396 72.2109,-2.05078 C72.4023,-1.95052 72.7214,-1.90039 73.168,-1.90039 C73.2865,-1.90039 73.4141,-1.90267 73.5508,-1.90723 C73.6875,-1.91178 73.847,-1.92318 74.0293,-1.94141 L74.0293,0 C73.7467,0.0820313 73.4528,0.141276 73.1475,0.177734 C72.8421,0.214193 72.5117,0.232422 72.1563,0.232422 C71.0078,0.232422 70.2285,-0.0615234 69.8184,-0.649414 C69.4082,-1.2373 69.2031,-2.00065 69.2031,-2.93945 L69.2031,-12.6328 L67.2207,-12.6328 L67.2207,-14.6426 L69.2031,-14.6426 L69.2031,-18.7305"/>
</g>

<g fill="#212121" fill-opacity="1" stroke="#212121" stroke-opacity="1" stroke-width="4" stroke-linecap="square" stroke-linejoin="round" transform="matrix(0.5,0,0,0.5,-1.32857,-5)"
font-family=".AppleSystemUIFont" font-size="13" font-weight="400" font-style="normal" 
>
<polyline fill="none" vector-effect="none" points="103,249 103,24 " />
<polyline fill="none" vector-effect="none" points="103,249 106.69,249 " />
<polyline fill="none" vector-effect="none" points="103,192.75 106.69,192.75 " />
<polyline fill="none" vector-effect="none" points="103,136.5 106.69,136.5 " />
<polyline fill="none" vector-effect="none" points="103,80.25 106.69,80.25 " />
<polyline fill="none" vector-effect="none" points="103,24 106.69,24 " />
</g>

<g fill="#212121" fill-opacity="1" stroke="none" transform="matrix(0.5,0,0,0.5,39.2857,123)"
font-family=".AppleSystemUIFont" font-size="13" font-weight="400" font-style="normal" 
>
<path vector-effect="none" fill-rule="evenodd" d="M7.0332,-18.1797 C9.38607,-18.1797 11.0872,-17.2106 12.1367,-15.2725 C12.9492,-13.7744 13.3555,-11.722 13.3555,-9.11523 C13.3555,-6.64388 12.9873,-4.59993 12.251,-2.9834 C11.1846,-0.664388 9.44108,0.495117 7.02051,0.495117 C4.83691,0.495117 3.21191,-0.452799 2.14551,-2.34863 C1.25684,-3.93132 0.8125,-6.05566 0.8125,-8.72168 C0.8125,-10.7868 1.0791,-12.5599 1.6123,-14.041 C2.611,-16.8001 4.41797,-18.1797 7.0332,-18.1797 M7.00781,-1.58691 C8.19271,-1.58691 9.13639,-2.11165 9.83887,-3.16113 C10.5413,-4.21061 10.8926,-6.16569 10.8926,-9.02637 C10.8926,-11.0915 10.6387,-12.7905 10.1309,-14.1235 C9.62305,-15.4565 8.63704,-16.123 7.17285,-16.123 C5.82715,-16.123 4.84326,-15.4904 4.22119,-14.2251 C3.59912,-12.9598 3.28809,-11.0957 3.28809,-8.63281 C3.28809,-6.7793 3.48698,-5.28971 3.88477,-4.16406 C4.49414,-2.44596 5.53516,-1.58691 7.00781,-1.58691 "/>
</g>

<g fill="#212121" fill-opacity="1" stroke="none" transform="matrix(0.5,0,0,0.5,24.7857,94.875)"
font-family=".AppleSystemUIFont" font-size="13" font-weight="400" font-style="normal" 
>
<path vector-effect="none" fill-rule="evenodd" d="M3.21191,-4.63379 C3.36426,-3.3304 3.9694,-2.42904 5.02734,-1.92969 C5.56901,-1.67578 6.19531,-1.54883 6.90625,-1.54883 C8.26042,-1.54883 9.26335,-1.98047 9.91504,-2.84375 C10.5667,-3.70703 10.8926,-4.66341 10.8926,-5.71289 C10.8926,-6.98242 10.5054,-7.96419 9.73096,-8.6582 C8.95654,-9.35221 8.02767,-9.69922 6.94434,-9.69922 C6.15723,-9.69922 5.48226,-9.54688 4.91943,-9.24219 C4.35661,-8.9375 3.8763,-8.51432 3.47852,-7.97266 L1.49805,-8.08691 L2.88184,-17.875 L12.3271,-17.875 L12.3271,-15.666 L4.5957,-15.666 L3.82129,-10.6133 C4.24447,-10.9349 4.64648,-11.1761 5.02734,-11.3369 C5.70443,-11.6162 6.4873,-11.7559 7.37598,-11.7559 C9.04329,-11.7559 10.4567,-11.2184 11.6162,-10.1436 C12.7757,-9.06868 13.3555,-7.70605 13.3555,-6.05566 C13.3555,-4.33757 12.8244,-2.82259 11.7622,-1.51074 C10.7,-0.198893 9.00521,0.457031 6.67773,0.457031 C5.19661,0.457031 3.88688,0.0402018 2.74854,-0.793457 C1.61019,-1.62712 0.973307,-2.90723 0.837891,-4.63379 L3.21191,-4.63379 M21.4863,-18.1797 C23.8392,-18.1797 25.5404,-17.2106 26.5898,-15.2725 C27.4023,-13.7744 27.8086,-11.722 27.8086,-9.11523 C27.8086,-6.64388 27.4404,-4.59993 26.7041,-2.9834 C25.6377,-0.664388 23.8942,0.495117 21.4736,0.495117 C19.29,0.495117 17.665,-0.452799 16.5986,-2.34863 C15.71,-3.93132 15.2656,-6.05566 15.2656,-8.72168 C15.2656,-10.7868 15.5322,-12.5599 16.0654,-14.041 C17.0641,-16.8001 18.8711,-18.1797 21.4863,-18.1797 M21.4609,-1.58691 C22.6458,-1.58691 23.5895,-2.11165 24.292,-3.16113 C24.9945,-4.21061 25.3457,-6.16569 25.3457,-9.02637 C25.3457,-11.0915 25.0918,-12.7905 24.584,-14.1235 C24.0762,-15.4565 23.0902,-16.123 21.626,-16.123 C20.2803,-16.123 19.2964,-15.4904 18.6743,-14.2251 C18.0522,-12.9598 17.7412,-11.0957 17.7412,-8.63281 C17.7412,-6.7793 17.9401,-5.28971 18.3379,-4.16406 C18.9473,-2.44596 19.9883,-1.58691 21.4609,-1.58691 M35.9395,-18.1797 C38.2923,-18.1797 39.9935,-17.2106 41.043,-15.2725 C41.8555,-13.7744 42.2617,-11.722 42.2617,-9.11523 C42.2617,-6.64388 41.8936,-4.59993 41.1572,-2.9834 C40.0908,-0.664388 38.3473,0.495117 35.9268,0.495117 C33.7432,0.495117 32.1182,-0.452799 31.0518,-2.34863 C30.1631,-3.93132 29.7188,-6.05566 29.7188,-8.72168 C29.7188,-10.7868 29.9854,-12.5599 30.5186,-14.041 C31.5173,-16.8001 33.3242,-18.1797 35.9395,-18.1797 M35.9141,-1.58691 C37.099,-1.58691 38.0426,-2.11165 38.7451,-3.16113 C39.4476,-4.21061 39.7988,-6.16569 39.7988,-9.02637 C39.7988,-11.0915 39.5449,-12.7905 39.0371,-14.1235 C38.5293,-15.4565 37.5433,-16.123 36.0791,-16.123 C34.7334,-16.123 33.7495,-15.4904 33.1274,-14.2251 C32.5054,-12.9598 32.1943,-11.0957 32.1943,-8.63281 C32.1943,-6.7793 32.3932,-5.28971 32.791,-4.16406 C33.4004,-2.44596 34.4414,-1.58691 35.9141,-1.58691 "/>
</g>

<g fill="#212121" fill-opacity="1" stroke="none" transform="matrix(0.5,0,0,0.5,17.2857,66.75)"
font-family=".AppleSystemUIFont" font-size="13" font-weight="400" font-style="normal" 
>
<path vector-effect="none" fill-rule="evenodd" d="M2.48828,-12.873 L2.48828,-14.625 C4.13867,-14.7858 5.28971,-15.0545 5.94141,-15.4312 C6.5931,-15.8078 7.07975,-16.6986 7.40137,-18.1035 L9.2041,-18.1035 L9.2041,0 L6.7666,0 L6.7666,-12.873 L2.48828,-12.873 M21.4863,-18.1797 C23.8392,-18.1797 25.5404,-17.2106 26.5898,-15.2725 C27.4023,-13.7744 27.8086,-11.722 27.8086,-9.11523 C27.8086,-6.64388 27.4404,-4.59993 26.7041,-2.9834 C25.6377,-0.664388 23.8942,0.495117 21.4736,0.495117 C19.29,0.495117 17.665,-0.452799 16.5986,-2.34863 C15.71,-3.93132 15.2656,-6.05566 15.2656,-8.72168 C15.2656,-10.7868 15.5322,-12.5599 16.0654,-14.041 C17.0641,-16.8001 18.8711,-18.1797 21.4863,-18.1797 M21.4609,-1.58691 C22.6458,-1.58691 23.5895,-2.11165 24.292,-3.16113 C24.9945,-4.21061 25.3457,-6.16569 25.3457,-9.02637 C25.3457,-11.0915 25.0918,-12.7905 24.584,-14.1235 C24.0762,-15.4565 23.0902,-16.123 21.626,-16.123 C20.2803,-16.123 19.2964,-15.4904 18.6743,-14.2251 C18.0522,-12.9598 17.7412,-11.0957 17.7412,-8.63281 C17.7412,-6.7793 17.9401,-5.28971 18.3379,-4.16406 C18.9473,-2.44596 19.9883,-1.58691 21.4609,-1.58691 M35.9395,-18.1797 C38.2923,-18.1797 39.9935,-17.2106 41.043,-15.2725 C41.8555,-13.7744 42.2617,-11.722 42.2617,-9.11523 C42.2617,-6.64388 41.8936,-4.59993 41.1572,-2.9834 C40.0908,-0.664388 38.3473,0.495117 35.9268,0.495117 C33.7432,0.495117 32.1182,-0.452799 31.0518,-2.34863 C30.1631,-3.93132 29.7188,-6.05566 29.7188,-8.72168 C29.7188,-10.7868 29.9854,-12.5599 30.5186,-14.041 C31.5173,-16.8001 33.3242,-18.1797 35.9395,-18.1797 M35.9141,-1.58691 C37.099,-1.58691 38.0426,-2.11165 38.7451,-3.16113 C39.4476,-4.21061 39.7988,-6.16569 39.7988,-9.02637 C39.7988,-11.0915 39.5449,-12.7905 39.0371,-14.1235 C38.5293,-15.4565 37.5433,-16.123 36.0791,-16.123 C34.7334,-16.123 33.7495,-15.4904 33.1274,-14.2251 C32.5054,-12.9598 32.1943,-11.0957 32.1943,-8.63281 C32.1943,-6.7793 32.3932,-5.28971 32.791,-4.16406 C33.4004,-2.44596 34.4414,-1.58691 35.9141,-1.58691 M50.3926,-18.1797 C52.7454,-18.1797 54.4466,-17.2106 55.4961,-15.2725 C56.3086,-13.7744 56.7148,-11.722 56.7148,-9.11523 C56.7148,-6.64388 56.3467,-4.59993 55.6104,-2.9834 C54.5439,-0.664388 52.8005,0.495117 50.3799,0.495117 C48.1963,0.495117 46.5713,-0.452799 45.5049,-2.34863 C44.6162,-3.93132 44.1719,-6.05566 44.1719,-8.72168 C44.1719,-10.7868 44.4385,-12.5599 44.9717,-14.041 C45.9704,-16.8001 47.7773,-18.1797 50.3926,-18.1797 M50.3672,-1.58691 C51.5521,-1.58691 52.4958,-2.11165 53.1982,-3.16113 C53.9007,-4.21061 54.252,-6.16569 54.252,-9.02637 C54.252,-11.0915 53.998,-12.7905 53.4902,-14.1235 C52.9824,-15.4565 51.9964,-16.123 50.5322,-16.123 C49.1865,-16.123 48.2026,-15.4904 47.5806,-14.2251 C46.9585,-12.9598 46.6475,-11.0957 46.6475,-8.63281 C46.6475,-6.7793 46.8464,-5.28971 47.2441,-4.16406 C47.8535,-2.44596 48.8945,-1.58691 50.3672,-1.58691 "/>
</g>

<g fill="#212121" fill-opacity="1" stroke="none" transform="matrix(0.5,0,0,0.5,17.2857,38.625)"
font-family=".AppleSystemUIFont" font-size="13" font-weight="400" font-style="normal" 
>
<path vector-effect="none" fill-rule="evenodd" d="M2.48828,-12.873 L2.48828,-14.625 C4.13867,-14.7858 5.28971,-15.0545 5.94141,-15.4312 C6.5931,-15.8078 7.07975,-16.6986 7.40137,-18.1035 L9.2041,-18.1035 L9.2041,0 L6.7666,0 L6.7666,-12.873 L2.48828,-12.873 M17.665,-4.63379 C17.8174,-3.3304 18.4225,-2.42904 19.4805,-1.92969 C20.0221,-1.67578 20.6484,-1.54883 21.3594,-1.54883 C22.7135,-1.54883 23.7165,-1.98047 24.3682,-2.84375 C25.0199,-3.70703 25.3457,-4.66341 25.3457,-5.71289 C25.3457,-6.98242 24.9585,-7.96419 24.1841,-8.6582 C23.4097,-9.35221 22.4808,-9.69922 21.3975,-9.69922 C20.6104,-9.69922 19.9354,-9.54688 19.3726,-9.24219 C18.8097,-8.9375 18.3294,-8.51432 17.9316,-7.97266 L15.9512,-8.08691 L17.335,-17.875 L26.7803,-17.875 L26.7803,-15.666 L19.0488,-15.666 L18.2744,-10.6133 C18.6976,-10.9349 19.0996,-11.1761 19.4805,-11.3369 C20.1576,-11.6162 20.9404,-11.7559 21.8291,-11.7559 C23.4964,-11.7559 24.9098,-11.2184 26.0693,-10.1436 C27.2288,-9.06868 27.8086,-7.70605 27.8086,-6.05566 C27.8086,-4.33757 27.2775,-2.82259 26.2153,-1.51074 C25.1532,-0.198893 23.4583,0.457031 21.1309,0.457031 C19.6497,0.457031 18.34,0.0402018 17.2017,-0.793457 C16.0633,-1.62712 15.4264,-2.90723 15.291,-4.63379 L17.665,-4.63379 M35.9395,-18.1797 C38.2923,-18.1797 39.9935,-17.2106 41.043,-15.2725 C41.8555,-13.7744 42.2617,-11.722 42.2617,-9.11523 C42.2617,-6.64388 41.8936,-4.59993 41.1572,-2.9834 C40.0908,-0.664388 38.3473,0.495117 35.9268,0.495117 C33.7432,0.495117 32.1182,-0.452799 31.0518,-2.34863 C30.1631,-3.93132 29.7188,-6.05566 29.7188,-8.72168 C29.7188,-10.7868 29.9854,-12.5599 30.5186,-14.041 C31.5173,-16.8001 33.3242,-18.1797 35.9395,-18.1797 M35.9141,-1.58691 C37.099,-1.58691 38.0426,-2.11165 38.7451,-3.16113 C39.4476,-4.21061 39.7988,-6.16569 39.7988,-9.02637 C39.7988,-11.0915 39.5449,-12.7905 39.0371,-14.1235 C38.5293,-15.4565 37.5433,-16.123 36.0791,-16.123 C34.7334,-16.123 33.7495,-15.4904 33.1274,-14.2251 C32.5054,-12.9598 32.1943,-11.0957 32.1943,-8.63281 C32.1943,-6.7793 32.3932,-5.28971 32.791,-4.16406 C33.4004,-2.44596 34.4414,-1.58691 35.9141,-1.58691 M50.3926,-18.1797 C52.7454,-18.1797 54.4466,-17.2106 55.4961,-15.2725 C56.3086,-13.7744 56.7148,-11.722 56.7148,-9.11523 C56.7148,-6.64388 56.3467,-4.59993 55.6104,-2.9834 C54.5439,-0.664388 52.8005,0.495117 50.3799,0.495117 C48.1963,0.495117 46.5713,-0.452799 45.5049,-2.34863 C44.6162,-3.93132 44.1719,-6.05566 44.1719,-8.72168 C44.1719,-10.7868 44.4385,-12.5599 44.9717,-14.041 C45.9704,-16.8001 47.7773,-18.1797 50.3926,-18.1797 M50.3672,-1.58691 C51.5521,-1.58691 52.4958,-2.11165 53.1982,-3.16113 C53.9007,-4.21061 54.252,-6.16569 54.252,-9.02637 C54.252,-11.0915 53.998,-12.7905 53.4902,-14.1235 C52.9824,-15.4565 51.9964,-16.123 50.5322,-16.123 C49.1865,-16.123 48.2026,-15.4904 47.5806,-14.2251 C46.9585,-12.9598 46.6475,-11.0957 46.6475,-8.63281 C46.6475,-6.7793 46.8464,-5.28971 47.2441,-4.16406 C47.8535,-2.44596 48.8945,-1.58691 50.3672,-1.58691 "/>
</g>

<g fill="#212121" fill-opacity="1" stroke="none" transform="matrix(0.5,0,0,0.5,17.2857,10.5)"
font-family=".AppleSystemUIFont" font-size="13" font-weight="400" font-style="normal" 
>
<path vector-effect="none" fill-rule="evenodd" d="M0.8125,0 C0.897135,-1.56576 1.22087,-2.92839 1.78369,-4.08789 C2.34652,-5.2474 3.44466,-6.30111 5.07813,-7.24902 L7.51563,-8.6582 C8.60742,-9.29297 9.37337,-9.83464 9.81348,-10.2832 C10.5075,-10.9857 10.8545,-11.7897 10.8545,-12.6953 C10.8545,-13.7533 10.5371,-14.5933 9.90234,-15.2153 C9.26758,-15.8374 8.42122,-16.1484 7.36328,-16.1484 C5.79753,-16.1484 4.71419,-15.556 4.11328,-14.3711 C3.79167,-13.7363 3.61393,-12.8561 3.58008,-11.7305 L1.25684,-11.7305 C1.28223,-13.3132 1.57422,-14.6038 2.13281,-15.6025 C3.12305,-17.363 4.87077,-18.2432 7.37598,-18.2432 C9.45801,-18.2432 10.9793,-17.6803 11.9399,-16.5547 C12.9006,-15.429 13.3809,-14.1764 13.3809,-12.7969 C13.3809,-11.3411 12.8688,-10.097 11.8447,-9.06445 C11.2523,-8.46354 10.1901,-7.73568 8.6582,-6.88086 L6.91895,-5.91602 C6.08952,-5.45898 5.43783,-5.02311 4.96387,-4.6084 C4.11751,-3.87207 3.58431,-3.05534 3.36426,-2.1582 L13.292,-2.1582 L13.292,0 L0.8125,0 M21.4863,-18.1797 C23.8392,-18.1797 25.5404,-17.2106 26.5898,-15.2725 C27.4023,-13.7744 27.8086,-11.722 27.8086,-9.11523 C27.8086,-6.64388 27.4404,-4.59993 26.7041,-2.9834 C25.6377,-0.664388 23.8942,0.495117 21.4736,0.495117 C19.29,0.495117 17.665,-0.452799 16.5986,-2.34863 C15.71,-3.93132 15.2656,-6.05566 15.2656,-8.72168 C15.2656,-10.7868 15.5322,-12.5599 16.0654,-14.041 C17.0641,-16.8001 18.8711,-18.1797 21.4863,-18.1797 M21.4609,-1.58691 C22.6458,-1.58691 23.5895,-2.11165 24.292,-3.16113 C24.9945,-4.21061 25.3457,-6.16569 25.3457,-9.02637 C25.3457,-11.0915 25.0918,-12.7905 24.584,-14.1235 C24.0762,-15.4565 23.0902,-16.123 21.626,-16.123 C20.2803,-16.123 19.2964,-15.4904 18.6743,-14.2251 C18.0522,-12.9598 17.7412,-11.0957 17.7412,-8.63281 C17.7412,-6.7793 17.9401,-5.28971 18.3379,-4.16406 C18.9473,-2.44596 19.9883,-1.58691 21.4609,-1.58691 M35.9395,-18.1797 C38.2923,-18.1797 39.9935,-17.2106 41.043,-15.2725 C41.8555,-13.7744 42.2617,-11.722 42.2617,-9.11523 C42.2617,-6.64388 41.8936,-4.59993 41.1572,-2.9834 C40.0908,-0.664388 38.3473,0.495117 35.9268,0.495117 C33.7432,0.495117 32.1182,-0.452799 31.0518,-2.34863 C30.1631,-3.93132 29.7188,-6.05566 29.7188,-8.72168 C29.7188,-10.7868 29.9854,-12.5599 30.5186,-14.041 C31.5173,-16.8001 33.3242,-18.1797 35.9395,-18.1797 M35.9141,-1.58691 C37.099,-1.58691 38.0426,-2.11165 38.7451,-3.16113 C39.4476,-4.21061 39.7988,-6.16569 39.7988,-9.02637 C39.7988,-11.0915 39.5449,-12.7905 39.0371,-14.1235 C38.5293,-15.4565 37.5433,-16.123 36.0791,-16.123 C34.7334,-16.123 33.7495,-15.4904 33.1274,-14.2251 C32.5054,-12.9598 32.1943,-11.0957 32.1943,-8.63281 C32.1943,-6.7793 32.3932,-5.28971 32.791,-4.16406 C33.4004,-2.44596 34.4414,-1.58691 35.9141,-1.58691 M50.3926,-18.1797 C52.7454,-18.1797 54.4466,-17.2106 55.4961,-15.2725 C56.3086,-13.7744 56.7148,-11.722 56.7148,-9.11523 C56.7148,-6.64388 56.3467,-4.59993 55.6104,-2.9834 C54.5439,-0.664388 52.8005,0.495117 50.3799,0.495117 C48.1963,0.495117 46.5713,-0.452799 45.5049,-2.34863 C44.6162,-3.93132 44.1719,-6.05566 44.1719,-8.72168 C44.1719,-10.7868 44.4385,-12.5599 44.9717,-14.041 C45.9704,-16.8001 47.7773,-18.1797 50.3926,-18.1797 M50.3672,-1.58691 C51.5521,-1.58691 52.4958,-2.11165 53.1982,-3.16113 C53.9007,-4.21061 54.252,-6.16569 54.252,-9.02637 C54.252,-11.0915 53.998,-12.7905 53.4902,-14.1235 C52.9824,-15.4565 51.9964,-16.123 50.5322,-16.123 C49.1865,-16.123 48.2026,-15.4904 47.5806,-14.2251 C46.9585,-12.9598 46.6475,-11.0957 46.6475,-8.63281 C46.6475,-6.7793 46.8464,-5.28971 47.2441,-4.16406 C47.8535,-2.44596 48.8945,-1.58691 50.3672,-1.58691 "/>
</g>

<g fill="#cc3333" fill-opacity="0.6" stroke="none" transform="matrix(5e-05,0,0,5e-05,-1.32857,-5)"
font-family=".AppleSystemUIFont" font-size="13" font-weight="400" font-style="normal" 
>
<path vector-effect="none" fill-rule="evenodd" d="M2.60664e+06,2.48888e+06 L2.60664e+06,2.49e+06 L2.67373e+06,2.49e+06 L2.67373e+06,2.48888e+06 L2.60664e+06,2.48888e+06"/>
</g>

<g fill="#cc3333" fill-opacity="0.6" stroke="none" transform="matrix(5e-05,0,0,5e-05,-1.32857,-5)"
font-family=".AppleSystemUIFont" font-size="13" font-weight="400" font-style="normal" 
>
<path vector-effect="none" fill-rule="evenodd" d="M2.74082e+06,2.4855e+06 L2.74082e+06,2.49e+06 L2.80791e+06,2.49e+06 L2.80791e+06,2.4855e+06 L2.74082e+06,2.4855e+06"/>
</g>

<g fill="#cc3333" fill-opacity="0.6" stroke="none" transform="matrix(5e-05,0,0,5e-05,-1.32857,-5)"
font-family=".AppleSystemUIFont" font-size="13" font-weight="400" font-style="normal" 
>
<path vector-effect="none" fill-rule="evenodd" d="M2.80791e+06,2.48663e+06 L2.80791e+06,2.49e+06 L2.875e+06,2.49e+06 L2.875e+06,2.48663e+06 L2.80791e+06,2.48663e+06"/>
</g>

<g fill="#cc3333" fill-opacity="0.6" stroke="none" transform="matrix(5e-05,0,0,5e-05,-1.32857,-5)"
font-family=".AppleSystemUIFont" font-size="13" font-weight="400" font-style="normal" 
>
<path vector-effect="none" fill-rule="evenodd" d="M2.875e+06,2.48325e+06 L2.875e+06,2.49e+06 L2.94209e+06,2.49e+06 L2.94209e+06,2.48325e+06 L2.875e+06,2.48325e+06"/>
</g>

<g fill="#cc3333" fill-opacity="0.6" stroke="none" transform="matrix(5e-05,0,0,5e-05,-1.32857,-5)"
font-family=".AppleSystemUIFont" font-size="13" font-weight="400" font-style="normal" 
>
<path vector-effect="none" fill-rule="evenodd" d="M2.94209e+06,2.46075e+06 L2.94209e+06,2.49e+06 L3.00918e+06,2.49e+06 L3.00918e+06,2.46075e+06 L2.94209e+06,2.46075e+06"/>
</g>

<g fill="#cc3333" fill-opacity="0.6" stroke="none" transform="matrix(5e-05,0,0,5e-05,-1.32857,-5)"
font-family=".AppleSystemUIFont" font-size="13" font-weight="400" font-style="normal" 
>
<path vector-effect="none" fill-rule="evenodd" d="M3.00918e+06,2.427e+06 L3.00918e+06,2.49e+06 L3.07627e+06,2.49e+06 L3.07627e+06,2.427e+06 L3.00918e+06,2.427e+06"/>
</g>

<g fill="#cc3333" fill-opacity="0.6" stroke="none" transform="matrix(5e-05,0,0,5e-05,-1.32857,-5)"
font-family=".AppleSystemUIFont" font-size="13" font-weight="400" font-style="normal" 
>
<path vector-effect="none" fill-rule="evenodd" d="M3.07627e+06,2.34488e+06 L3.07627e+06,2.49e+06 L3.14336e+06,2.49e+06 L3.14336e+06,2.34488e+06 L3.07627e+06,2.34488e+06"/>
</g>

<g fill="#cc3333" fill-opacity="0.6" stroke="none" transform="matrix(5e-05,0,0,5e-05,-1.32857,-5)"
font-family=".AppleSystemUIFont" font-size="13" font-weight="400" font-style="normal" 
>
<path vector-effect="none" fill-rule="evenodd" d="M3.14336e+06,2.238e+06 L3.14336e+06,2.49e+06 L3.21045e+06,2.49e+06 L3.21045e+06,2.238e+06 L3.14336e+06,2.238e+06"/>
</g>

<g fill="#cc3333" fill-opacity="0.6" stroke="none" transform="matrix(5e-05,0,0,5e-05,-1.32857,-5)"
font-family=".AppleSystemUIFont" font-size="13" font-weight="400" font-style="normal" 
>
<path vector-effect="none" fill-rule="evenodd" d="M3.21045e+06,2.0625e+06 L3.21045e+06,2.49e+06 L3.27755e+06,2.49e+06 L3.27755e+06,2.0625e+06 L3.21045e+06,2.0625e+06"/>
</g>

<g fill="#cc3333" fill-opacity="0.6" stroke="none" transform="matrix(5e-05,0,0,5e-05,-1.32857,-5)"
font-family=".AppleSystemUIFont" font-size="13" font-weight="400" font-style="normal" 
>
<path vector-effect="none" fill-rule="evenodd" d="M3.27755e+06,1.82513e+06 L3.27755e+06,2.49e+06 L3.34464e+06,2.49e+06 L3.34464e+06,1.82513e+06 L3.27755e+06,1.82513e+06"/>
</g>

<g fill="#cc3333" fill-opacity="0.6" stroke="none" transform="matrix(5e-05,0,0,5e-05,-1.32857,-5)"
font-family=".AppleSystemUIFont" font-size="13" font-weight="400" font-style="normal" 
>
<path vector-effect="none" fill-rule="evenodd" d="M3.34464e+06,1.56413e+06 L3.34464e+06,2.49e+06 L3.41173e+06,2.49e+06 L3.41173e+06,1.56413e+06 L3.34464e+06,1.56413e+06"/>
</g>

<g fill="#cc3333" fill-opacity="0.6" stroke="none" transform="matrix(5e-05,0,0,5e-05,-1.32857,-5)"
font-family=".AppleSystemUIFont" font-size="13" font-weight="400" font-style="normal" 
>
<path vector-effect="none" fill-rule="evenodd" d="M3.41173e+06,1.21875e+06 L3.41173e+06,2.49e+06 L3.47882e+06,2.49e+06 L3.47882e+06,1.21875e+06 L3.41173e+06,1.21875e+06"/>
</g>

<g fill="#cc3333" fill-opacity="0.6" stroke="none" transform="matrix(5e-05,0,0,5e-05,-1.32857,-5)"
font-family=".AppleSystemUIFont" font-size="13" font-weight="400" font-style="normal" 
>
<path vector-effect="none" fill-rule="evenodd" d="M3.47882e+06,891375 L3.47882e+06,2.49e+06 L3.54591e+06,2.49e+06 L3.54591e+06,891375 L3.47882e+06,891375"/>
</g>

<g fill="#cc3333" fill-opacity="0.6" stroke="none" transform="matrix(5e-05,0,0,5e-05,-1.32857,-5)"
font-family=".AppleSystemUIFont" font-size="13" font-weight="400" font-style="normal" 
>
<path vector-effect="none" fill-rule="evenodd" d="M3.54591e+06,615750 L3.54591e+06,2.49e+06 L3.613e+06,2.49e+06 L3.613e+06,615750 L3.54591e+06,615750"/>
</g>

<g fill="#cc3333" fill-opacity="0.6" stroke="none" transform="matrix(5e-05,0,0,5e-05,-1.32857,-5)"
font-family=".AppleSystemUIFont" font-size="13" font-weight="400" font-style="normal" 
>
<path vector-effect="none" fill-rule="evenodd" d="M3.613e+06,531375 L3.613e+06,2.49e+06 L3.68009e+06,2.49e+06 L3.68009e+06,531375 L3.613e+06,531375"/>
</g>

<g fill="#cc3333" fill-opacity="0.6" stroke="none" transform="matrix(5e-05,0,0,5e-05,-1.32857,-5)"
font-family=".AppleSystemUIFont" font-size="13" font-weight="400" font-style="normal" 
>
<path vector-effect="none" fill-rule="evenodd" d="M3.68009e+06,655125 L3.68009e+06,2.49e+06 L3.74718e+06,2.49e+06 L3.74718e+06,655125 L3.68009e+06,655125"/>
</g>

<g fill="#cc3333" fill-opacity="0.6" stroke="none" transform="matrix(5e-05,0,0,5e-05,-1.32857,-5)"
font-family=".AppleSystemUIFont" font-size="13" font-weight="400" font-style="normal" 
>
<path vector-effect="none" fill-rule="evenodd" d="M3.74718e+06,803625 L3.74718e+06,2.49e+06 L3.81427e+06,2.49e+06 L3.81427e+06,803625 L3.74718e+06,803625"/>
</g>

<g fill="#cc3333" fill-opacity="0.6" stroke="none" transform="matrix(5e-05,0,0,5e-05,-1.32857,-5)"
font-family=".AppleSystemUIFont" font-size="13" font-weight="400" font-style="normal" 
>
<path vector-effect="none" fill-rule="evenodd" d="M3.81427e+06,1.08375e+06 L3.81427e+06,2.49e+06 L3.88136e+06,2.49e+06 L3.88136e+06,1.08375e+06 L3.81427e+06,1.08375e+06"/>
</g>

<g fill="#cc3333" fill-opacity="0.6" stroke="none" transform="matrix(5e-05,0,0,5e-05,-1.32857,-5)"
font-family=".AppleSystemUIFont" font-size="13" font-weight="400" font-style="normal" 
>
<path vector-effect="none" fill-rule="evenodd" d="M3.88136e+06,1.46625e+06 L3.88136e+06,2.49e+06 L3.94845e+06,2.49e+06 L3.94845e+06,1.46625e+06 L3.88136e+06,1.46625e+06"/>
</g>

<g fill="#cc3333" fill-opacity="0.6" stroke="none" transform="matrix(5e-05,0,0,5e-05,-1.32857,-5)"
font-family=".AppleSystemUIFont" font-size="13" font-weight="400" font-style="normal" 
>
<path vector-effect="none" fill-rule="evenodd" d="M3.94845e+06,1.76888e+06 L3.94845e+06,2.49e+06 L4.01555e+06,2.49e+06 L4.01555e+06,1.76888e+06 L3.94845e+06,1.76888e+06"/>
</g>

<g fill="#cc3333" fill-opacity="0.6" stroke="none" transform="matrix(5e-05,0,0,5e-05,-1.32857,-5)"
font-family=".AppleSystemUIFont" font-size="13" font-weight="400" font-style="normal" 
>
<path vector-effect="none" fill-rule="evenodd" d="M4.01555e+06,2.01638e+06 L4.01555e+06,2.49e+06 L4.08264e+06,2.49e+06 L4.08264e+06,2.01638e+06 L4.01555e+06,2.01638e+06"/>
</g>

<g fill="#cc3333" fill-opacity="0.6" stroke="none" transform="matrix(5e-05,0,0,5e-05,-1.32857,-5)"
font-family=".AppleSystemUIFont" font-size="13" font-weight="400" font-style="normal" 
>
<path vector-effect="none" fill-rule="evenodd" d="M4.08264e+06,2.24925e+06 L4.08264e+06,2.49e+06 L4.14973e+06,2.49e+06 L4.14973e+06,2.24925e+06 L4.08264e+06,2.24925e+06"/>
</g>

<g fill="#cc3333" fill-opacity="0.6" stroke="none" transform="matrix(5e-05,0,0,5e-05,-1.32857,-5)"
font-family=".AppleSystemUIFont" font-size="13" font-weight="400" font-style="normal" 
>
<path vector-effect="none" fill-rule="evenodd" d="M4.14973e+06,2.32913e+06 L4.14973e+06,2.49e+06 L4.21682e+06,2.49e+06 L4.21682e+06,2.32913e+06 L4.14973e+06,2.32913e+06"/>
</g>

<g fill="#cc3333" fill-opacity="0.6" stroke="none" transform="matrix(5e-05,0,0,5e-05,-1.32857,-5)"
font-family=".AppleSystemUIFont" font-size="13" font-weight="400" font-style="normal" 
>
<path vector-effect="none" fill-rule="evenodd" d="M4.21682e+06,2.42588e+06 L4.21682e+06,2.49e+06 L4.28391e+06,2.49e+06 L4.28391e+06,2.42588e+06 L4.21682e+06,2.42588e+06"/>
</g>

<g fill="#cc3333" fill-opacity="0.6" stroke="none" transform="matrix(5e-05,0,0,5e-05,-1.32857,-5)"
font-family=".AppleSystemUIFont" font-size="13" font-weight="400" font-style="normal" 
>
<path vector-effect="none" fill-rule="evenodd" d="M4.28391e+06,2.45175e+06 L4.28391e+06,2.49e+06 L4.351e+06,2.49e+06 L4.351e+06,2.45175e+06 L4.28391e+06,2.45175e+06"/>
</g>

<g fill="#cc3333" fill-opacity="0.6" stroke="none" transform="matrix(5e-05,0,0,5e-05,-1.32857,-5)"
font-family=".AppleSystemUIFont" font-size="13" font-weight="400" font-style="normal" 
>
<path vector-effect="none" fill-rule="evenodd" d="M4.351e+06,2.46863e+06 L4.351e+06,2.49e+06 L4.41809e+06,2.49e+06 L4.41809e+06,2.46863e+06 L4.351e+06,2.46863e+06"/>
</g>

<g fill="#cc3333" fill-opacity="0.6" stroke="none" transform="matrix(5e-05,0,0,5e-05,-1.32857,-5)"
font-family=".AppleSystemUIFont" font-size="13" font-weight="400" font-style="normal" 
>
<path vector-effect="none" fill-rule="evenodd" d="M4.41809e+06,2.48663e+06 L4.41809e+06,2.49e+06 L4.48518e+06,2.49e+06 L4.48518e+06,2.48663e+06 L4.41809e+06,2.48663e+06"/>
</g>

<g fill="#cc3333" fill-opacity="0.6" stroke="none" transform="matrix(5e-05,0,0,5e-05,-1.32857,-5)"
font-family=".AppleSystemUIFont" font-size="13" font-weight="400" font-style="normal" 
>
<path vector-effect="none" fill-rule="evenodd" d="M4.48518e+06,2.4855e+06 L4.48518e+06,2.49e+06 L4.55227e+06,2.49e+06 L4.55227e+06,2.4855e+06 L4.48518e+06,2.4855e+06"/>
</g>

<g fill="#3366cc" fill-opacity="0.6" stroke="none" transform="matrix(5e-05,0,0,5e-05,-1.32857,-5)"
font-family=".AppleSystemUIFont" font-size="13" font-weight="400" font-style="normal" 
>
<path vector-effect="none" fill-rule="evenodd" d="M1.19773e+06,2.48325e+06 L1.19773e+06,2.49e+06 L1.26482e+06,2.49e+06 L1.26482e+06,2.48325e+06 L1.19773e+06,2.48325e+06"/>
</g>

<g fill="#3366cc" fill-opacity="0.6" stroke="none" transform="matrix(5e-05,0,0,5e-05,-1.32857,-5)"
font-family=".AppleSystemUIFont" font-size="13" font-weight="400" font-style="normal" 
>
<path vector-effect="none" fill-rule="evenodd" d="M1.26482e+06,2.481e+06 L1.26482e+06,2.49e+06 L1.33191e+06,2.49e+06 L1.33191e+06,2.481e+06 L1.26482e+06,2.481e+06"/>
</g>

<g fill="#3366cc" fill-opacity="0.6" stroke="none" transform="matrix(5e-05,0,0,5e-05,-1.32857,-5)"
font-family=".AppleSystemUIFont" font-size="13" font-weight="400" font-style="normal" 
>
<path vector-effect="none" fill-rule="evenodd" d="M1.33191e+06,2.44838e+06 L1.33191e+06,2.49e+06 L1.399e+06,2.49e+06 L1.399e+06,2.44838e+06 L1.33191e+06,2.44838e+06"/>
</g>

<g fill="#3366cc" fill-opacity="0.6" stroke="none" transform="matrix(5e-05,0,0,5e-05,-1.32857,-5)"
font-family=".AppleSystemUIFont" font-size="13" font-weight="400" font-style="normal" 
>
<path vector-effect="none" fill-rule="evenodd" d="M1.399e+06,2.4e+06 L1.399e+06,2.49e+06 L1.46609e+06,2.49e+06 L1.46609e+06,2.4e+06 L1.399e+06,2.4e+06"/>
</g>

<g fill="#3366cc" fill-opacity="0.6" stroke="none" transform="matrix(5e-05,0,0,5e-05,-1.32857,-5)"
font-family=".AppleSystemUIFont" font-size="13" font-weight="400" font-style="normal" 
>
<path vector-effect="none" fill-rule="evenodd" d="M1.46609e+06,2.32688e+06 L1.46609e+06,2.49e+06 L1.53318e+06,2.49e+06 L1.53318e+06,2.32688e+06 L1.46609e+06,2.32688e+06"/>
</g>

<g fill="#3366cc" fill-opacity="0.6" stroke="none" transform="matrix(5e-05,0,0,5e-05,-1.32857,-5)"
font-family=".AppleSystemUIFont" font-size="13" font-weight="400" font-style="normal" 
>
<path vector-effect="none" fill-rule="evenodd" d="M1.53318e+06,2.211e+06 L1.53318e+06,2.49e+06 L1.60027e+06,2.49e+06 L1.60027e+06,2.211e+06 L1.53318e+06,2.211e+06"/>
</g>

<g fill="#3366cc" fill-opacity="0.6" stroke="none" transform="matrix(5e-05,0,0,5e-05,-1.32857,-5)"
font-family=".AppleSystemUIFont" font-size="13" font-weight="400" font-style="normal" 
>
<path vector-effect="none" fill-rule="evenodd" d="M1.60027e+06,1.97925e+06 L1.60027e+06,2.49e+06 L1.66736e+06,2.49e+06 L1.66736e+06,1.97925e+06 L1.60027e+06,1.97925e+06"/>
</g>

<g fill="#3366cc" fill-opacity="0.6" stroke="none" transform="matrix(5e-05,0,0,5e-05,-1.32857,-5)"
font-family=".AppleSystemUIFont" font-size="13" font-weight="400" font-style="normal" 
>
<path vector-effect="none" fill-rule="evenodd" d="M1.66736e+06,1.70025e+06 L1.66736e+06,2.49e+06 L1.73445e+06,2.49e+06 L1.73445e+06,1.70025e+06 L1.66736e+06,1.70025e+06"/>
</g>

<g fill="#3366cc" fill-opacity="0.6" stroke="none" transform="matrix(5e-05,0,0,5e-05,-1.32857,-5)"
font-family=".AppleSystemUIFont" font-size="13" font-weight="400" font-style="normal" 
>
<path vector-effect="none" fill-rule="evenodd" d="M1.73445e+06,1.38525e+06 L1.73445e+06,2.49e+06 L1.80155e+06,2.49e+06 L1.80155e+06,1.38525e+06 L1.73445e+06,1.38525e+06"/>
</g>

<g fill="#3366cc" fill-opacity="0.6" stroke="none" transform="matrix(5e-05,0,0,5e-05,-1.32857,-5)"
font-family=".AppleSystemUIFont" font-size="13" font-weight="400" font-style="normal" 
>
<path vector-effect="none" fill-rule="evenodd" d="M1.80155e+06,1.06013e+06 L1.80155e+06,2.49e+06 L1.86864e+06,2.49e+06 L1.86864e+06,1.06013e+06 L1.80155e+06,1.06013e+06"/>
</g>

<g fill="#3366cc" fill-opacity="0.6" stroke="none" transform="matrix(5e-05,0,0,5e-05,-1.32857,-5)"
font-family=".AppleSystemUIFont" font-size="13" font-weight="400" font-style="normal" 
>
<path vector-effect="none" fill-rule="evenodd" d="M1.86864e+06,871125 L1.86864e+06,2.49e+06 L1.93573e+06,2.49e+06 L1.93573e+06,871125 L1.86864e+06,871125"/>
</g>

<g fill="#3366cc" fill-opacity="0.6" stroke="none" transform="matrix(5e-05,0,0,5e-05,-1.32857,-5)"
font-family=".AppleSystemUIFont" font-size="13" font-weight="400" font-style="normal" 
>
<path vector-effect="none" fill-rule="evenodd" d="M1.93573e+06,657375 L1.93573e+06,2.49e+06 L2.00282e+06,2.49e+06 L2.00282e+06,657375 L1.93573e+06,657375"/>
</g>

<g fill="#3366cc" fill-opacity="0.6" stroke="none" transform="matrix(5e-05,0,0,5e-05,-1.32857,-5)"
font-family=".AppleSystemUIFont" font-size="13" font-weight="400" font-style="normal" 
>
<path vector-effect="none" fill-rule="evenodd" d="M2.00282e+06,576375 L2.00282e+06,2.49e+06 L2.06991e+06,2.49e+06 L2.06991e+06,576375 L2.00282e+06,576375"/>
</g>

<g fill="#3366cc" fill-opacity="0.6" stroke="none" transform="matrix(5e-05,0,0,5e-05,-1.32857,-5)"
font-family=".AppleSystemUIFont" font-size="13" font-weight="400" font-style="normal" 
>
<path vector-effect="none" fill-rule="evenodd" d="M2.06991e+06,710250 L2.06991e+06,2.49e+06 L2.137e+06,2.49e+06 L2.137e+06,710250 L2.06991e+06,710250"/>
</g>

<g fill="#3366cc" fill-opacity="0.6" stroke="none" transform="matrix(5e-05,0,0,5e-05,-1.32857,-5)"
font-family=".AppleSystemUIFont" font-size="13" font-weight="400" font-style="normal" 
>
<path vector-effect="none" fill-rule="evenodd" d="M2.137e+06,962250 L2.137e+06,2.49e+06 L2.20409e+06,2.49e+06 L2.20409e+06,962250 L2.137e+06,962250"/>
</g>

<g fill="#3366cc" fill-opacity="0.6" stroke="none" transform="matrix(5e-05,0,0,5e-05,-1.32857,-5)"
font-family=".AppleSystemUIFont" font-size="13" font-weight="400" font-style="normal" 
>
<path vector-effect="none" fill-rule="evenodd" d="M2.20409e+06,1.25138e+06 L2.20409e+06,2.49e+06 L2.27118e+06,2.49e+06 L2.27118e+06,1.25138e+06 L2.20409e+06,1.25138e+06"/>
</g>

<g fill="#3366cc" fill-opacity="0.6" stroke="none" transform="matrix(5e-05,0,0,5e-05,-1.32857,-5)"
font-family=".AppleSystemUIFont" font-size="13" font-weight="400" font-style="normal" 
>
<path vector-effect="none" fill-rule="evenodd" d="M2.27118e+06,1.56075e+06 L2.27118e+06,2.49e+06 L2.33827e+06,2.49e+06 L2.33827e+06,1.56075e+06 L2.27118e+06,1.56075e+06"/>
</g>

<g fill="#3366cc" fill-opacity="0.6" stroke="none" transform="matrix(5e-05,0,0,5e-05,-1.32857,-5)"
font-family=".AppleSystemUIFont" font-size="13" font-weight="400" font-style="normal" 
>
<path vector-effect="none" fill-rule="evenodd" d="M2.33827e+06,1.85213e+06 L2.33827e+06,2.49e+06 L2.40536e+06,2.49e+06 L2.40536e+06,1.85213e+06 L2.33827e+06,1.85213e+06"/>
</g>

<g fill="#3366cc" fill-opacity="0.6" stroke="none" transform="matrix(5e-05,0,0,5e-05,-1.32857,-5)"
font-family=".AppleSystemUIFont" font-size="13" font-weight="400" font-style="normal" 
>
<path vector-effect="none" fill-rule="evenodd" d="M2.40536e+06,2.04788e+06 L2.40536e+06,2.49e+06 L2.47245e+06,2.49e+06 L2.47245e+06,2.04788e+06 L2.40536e+06,2.04788e+06"/>
</g>

<g fill="#3366cc" fill-opacity="0.6" stroke="none" transform="matrix(5e-05,0,0,5e-05,-1.32857,-5)"
font-family=".AppleSystemUIFont" font-size="13" font-weight="400" font-style="normal" 
>
<path vector-effect="none" fill-rule="evenodd" d="M2.47245e+06,2.30325e+06 L2.47245e+06,2.49e+06 L2.53955e+06,2.49e+06 L2.53955e+06,2.30325e+06 L2.47245e+06,2.30325e+06"/>
</g>

<g fill="#3366cc" fill-opacity="0.6" stroke="none" transform="matrix(5e-05,0,0,5e-05,-1.32857,-5)"
font-family=".AppleSystemUIFont" font-size="13" font-weight="400" font-style="normal" 
>
<path vector-effect="none" fill-rule="evenodd" d="M2.53955e+06,2.36625e+06 L2.53955e+06,2.49e+06 L2.60664e+06,2.49e+06 L2.60664e+06,2.36625e+06 L2.53955e+06,2.36625e+06"/>
</g>

<g fill="#3366cc" fill-opacity="0.6" stroke="none" transform="matrix(5e-05,0,0,5e-05,-1.32857,-5)"
font-family=".AppleSystemUIFont" font-size="13" font-weight="400" font-style="normal" 
>
<path vector-effect="none" fill-rule="evenodd" d="M2.60664e+06,2.43938e+06 L2.60664e+06,2.49e+06 L2.67373e+06,2.49e+06 L2.67373e+06,2.43938e+06 L2.60664e+06,2.43938e+06"/>
</g>

<g fill="#3366cc" fill-opacity="0.6" stroke="none" transform="matrix(5e-05,0,0,5e-05,-1.32857,-5)"
font-family=".AppleSystemUIFont" font-size="13" font-weight="400" font-style="normal" 
>
<path vector-effect="none" fill-rule="evenodd" d="M2.67373e+06,2.47425e+06 L2.67373e+06,2.49e+06 L2.74082e+06,2.49e+06 L2.74082e+06,2.47425e+06 L2.67373e+06,2.47425e+06"/>
</g>

<g fill="#3366cc" fill-opacity="0.6" stroke="none" transform="matrix(5e-05,0,0,5e-05,-1.32857,-5)"
font-family=".AppleSystemUIFont" font-size="13" font-weight="400" font-style="normal" 
>
<path vector-effect="none" fill-rule="evenodd" d="M2.74082e+06,2.481e+06 L2.74082e+06,2.49e+06 L2.80791e+06,2.49e+06 L2.80791e+06,2.481e+06 L2.74082e+06,2.481e+06"/>
</g>

<g fill="#3366cc" fill-opacity="0.6" stroke="none" transform="matrix(5e-05,0,0,5e-05,-1.32857,-5)"
font-family=".AppleSystemUIFont" font-size="13" font-weight="400" font-style="normal" 
>
<path vector-effect="none" fill-rule="evenodd" d="M2.80791e+06,2.48213e+06 L2.80791e+06,2.49e+06 L2.875e+06,2.49e+06 L2.875e+06,2.48213e+06 L2.80791e+06,2.48213e+06"/>
</g>

<g fill="#3366cc" fill-opacity="0.6" stroke="none" transform="matrix(5e-05,0,0,5e-05,-1.32857,-5)"
font-family=".AppleSystemUIFont" font-size="13" font-weight="400" font-style="normal" 
>
<path vector-effect="none" fill-rule="evenodd" d="M2.94209e+06,2.48775e+06 L2.94209e+06,2.49e+06 L3.00918e+06,2.49e+06 L3.00918e+06,2.48775e+06 L2.94209e+06,2.48775e+06"/>
</g>

<g fill="#212121" fill-opacity="1" stroke="none" transform="matrix(0.5,0,0,0.5,176.243,127.9)"
font-family=".AppleSystemUIFont" font-size="13" font-weight="400" font-style="normal" 
>
<path vector-effect="none" fill-rule="evenodd" d="M1.66016,-11.7773 L2.23633,-12.4609 C2.75716,-13.0599 3.27799,-13.3594 3.79883,-13.3594 C4.05273,-13.3594 4.33105,-13.2845 4.63379,-13.1348 C4.93652,-12.985 5.23926,-12.8353 5.54199,-12.6855 C5.84473,-12.5358 6.12305,-12.4609 6.37695,-12.4609 C6.91081,-12.4609 7.42513,-12.7604 7.91992,-13.3594 L8.32031,-13.0176 L7.74414,-12.3438 C7.2168,-11.7383 6.69596,-11.4355 6.18164,-11.4355 C5.92773,-11.4355 5.64941,-11.512 5.34668,-11.665 C5.04395,-11.818 4.74121,-11.9694 4.43848,-12.1191 C4.13574,-12.2689 3.85742,-12.3438 3.60352,-12.3438 C3.06966,-12.3438 2.55534,-12.041 2.06055,-11.4355 L1.66016,-11.7773"/>
</g>

<g fill="#212121" fill-opacity="1" stroke="none" transform="matrix(0.5,0,0,0.5,175.453,127.9)"
font-family=".AppleSystemUIFont" font-size="13" font-weight="400" font-style="normal" 
>
<path vector-effect="none" fill-rule="evenodd" d="M0.556641,3.75977 C0.556641,3.68164 0.563151,3.62956 0.576172,3.60352 L3.51563,-8.20313 C3.57422,-8.39193 3.68001,-8.54492 3.83301,-8.66211 C3.986,-8.7793 4.16016,-8.83789 4.35547,-8.83789 C4.52474,-8.83789 4.66797,-8.78743 4.78516,-8.68652 C4.90234,-8.58561 4.96094,-8.45052 4.96094,-8.28125 C4.96094,-8.24219 4.95931,-8.21126 4.95605,-8.18848 C4.9528,-8.16569 4.94792,-8.14128 4.94141,-8.11523 L3.75977,-3.4375 C3.62956,-2.88411 3.56445,-2.4056 3.56445,-2.00195 C3.56445,-1.50716 3.68164,-1.10026 3.91602,-0.78125 C4.15039,-0.46224 4.50521,-0.302734 4.98047,-0.302734 C5.95052,-0.302734 6.80339,-0.908203 7.53906,-2.11914 C7.54557,-2.13216 7.55046,-2.14193 7.55371,-2.14844 C7.55697,-2.15495 7.55859,-2.16471 7.55859,-2.17773 L9.00391,-7.97852 C9.04948,-8.1543 9.15365,-8.30566 9.31641,-8.43262 C9.47917,-8.55957 9.65495,-8.62305 9.84375,-8.62305 C10,-8.62305 10.1383,-8.57096 10.2588,-8.4668 C10.3792,-8.36263 10.4395,-8.22591 10.4395,-8.05664 C10.4395,-7.97852 10.4329,-7.92643 10.4199,-7.90039 L8.98438,-2.13867 C8.88672,-1.76107 8.83789,-1.43555 8.83789,-1.16211 C8.83789,-0.589193 9.0332,-0.302734 9.42383,-0.302734 C9.84049,-0.302734 10.1546,-0.559896 10.3662,-1.07422 C10.5778,-1.58854 10.7617,-2.21029 10.918,-2.93945 C10.944,-3.01758 10.9993,-3.05664 11.084,-3.05664 L11.3184,-3.05664 C11.3704,-3.05664 11.4144,-3.03548 11.4502,-2.99316 C11.486,-2.95085 11.5039,-2.9069 11.5039,-2.86133 C11.2695,-1.93034 11.014,-1.18327 10.7373,-0.620117 C10.4606,-0.0569661 10.0098,0.224609 9.38477,0.224609 C8.94206,0.224609 8.5498,0.0976563 8.20801,-0.15625 C7.86621,-0.410156 7.64323,-0.751953 7.53906,-1.18164 C7.20703,-0.764974 6.81803,-0.426432 6.37207,-0.166016 C5.92611,0.094401 5.45573,0.224609 4.96094,0.224609 C4.1276,0.224609 3.47331,0.0292969 2.99805,-0.361328 L1.98242,3.68164 C1.94336,3.87044 1.8457,4.02344 1.68945,4.14063 C1.5332,4.25781 1.35742,4.31641 1.16211,4.31641 C0.999349,4.31641 0.857747,4.26595 0.737305,4.16504 C0.616862,4.06413 0.556641,3.92904 0.556641,3.75977 "/>
</g>

<g fill="#212121" fill-opacity="1" stroke="none" transform="matrix(0.5,0,0,0.5,181.478,129.4)"
font-family=".AppleSystemUIFont" font-size="13" font-weight="400" font-style="normal" 
>
<path vector-effect="none" fill-rule="evenodd" d="M0.65625,0 C0.565104,0 0.519531,-0.0615234 0.519531,-0.18457 C0.524089,-0.207357 0.533203,-0.247233 0.546875,-0.304199 C0.560547,-0.361165 0.579915,-0.406738 0.60498,-0.440918 C0.630046,-0.475098 0.660807,-0.492188 0.697266,-0.492188 C1.26693,-0.492188 1.66341,-0.524089 1.88672,-0.587891 C2.00977,-0.628906 2.09863,-0.754232 2.15332,-0.963867 L4.07422,-8.6543 C4.09245,-8.74544 4.10156,-8.80924 4.10156,-8.8457 C4.10156,-8.94596 4.0446,-9.00293 3.93066,-9.0166 C3.75749,-9.05306 3.42253,-9.07129 2.92578,-9.07129 C2.83464,-9.07129 2.78906,-9.13281 2.78906,-9.25586 C2.79362,-9.27865 2.80273,-9.31852 2.81641,-9.37549 C2.83008,-9.43245 2.84945,-9.47803 2.87451,-9.51221 C2.89958,-9.54639 2.93034,-9.56348 2.9668,-9.56348 L10.5547,-9.56348 C10.6504,-9.56348 10.6982,-9.50195 10.6982,-9.37891 L10.3633,-6.48047 C10.3633,-6.45768 10.3462,-6.43148 10.312,-6.40186 C10.2778,-6.37223 10.2471,-6.35742 10.2197,-6.35742 L10.0967,-6.35742 C10.001,-6.35742 9.95313,-6.41667 9.95313,-6.53516 C10.0078,-6.99089 10.0352,-7.32813 10.0352,-7.54688 C10.0352,-7.92057 9.97135,-8.2111 9.84375,-8.41846 C9.71615,-8.62581 9.54639,-8.77507 9.33447,-8.86621 C9.12256,-8.95736 8.88786,-9.01432 8.63037,-9.03711 C8.37288,-9.0599 8.03451,-9.07129 7.61523,-9.07129 L6.02246,-9.07129 C5.76725,-9.07129 5.59863,-9.04964 5.5166,-9.00635 C5.43457,-8.96305 5.35938,-8.8252 5.29102,-8.59277 L4.4502,-5.20898 L5.54395,-5.20898 C6.0179,-5.20898 6.37565,-5.24202 6.61719,-5.30811 C6.85872,-5.37419 7.05013,-5.51204 7.19141,-5.72168 C7.33268,-5.93132 7.46029,-6.264 7.57422,-6.71973 C7.58333,-6.75163 7.60042,-6.78011 7.62549,-6.80518 C7.65055,-6.83024 7.67904,-6.84277 7.71094,-6.84277 L7.84082,-6.84277 C7.93197,-6.84277 7.97754,-6.78353 7.97754,-6.66504 L7.10938,-3.20605 C7.09115,-3.12402 7.04557,-3.08301 6.97266,-3.08301 L6.84277,-3.08301 C6.75163,-3.08301 6.70605,-3.14225 6.70605,-3.26074 C6.7972,-3.63444 6.84277,-3.91016 6.84277,-4.08789 C6.84277,-4.36133 6.71973,-4.53451 6.47363,-4.60742 C6.22754,-4.68034 5.89941,-4.7168 5.48926,-4.7168 L4.32715,-4.7168 L3.37695,-0.90918 C3.33594,-0.795247 3.31543,-0.692708 3.31543,-0.601563 C3.31543,-0.528646 3.47493,-0.492188 3.79395,-0.492188 L5.48926,-0.492188 C6.16374,-0.492188 6.71061,-0.544596 7.12988,-0.649414 C7.54915,-0.754232 7.89665,-0.921712 8.17236,-1.15186 C8.44808,-1.382 8.6862,-1.6748 8.88672,-2.03027 C9.08724,-2.38574 9.33105,-2.90299 9.61816,-3.58203 C9.63639,-3.64128 9.67741,-3.6709 9.74121,-3.6709 L9.87109,-3.6709 C9.90755,-3.6709 9.93945,-3.65495 9.9668,-3.62305 C9.99414,-3.59115 10.0078,-3.55469 10.0078,-3.51367 C10.0078,-3.49544 10.0033,-3.47721 9.99414,-3.45898 L8.55176,-0.0820313 C8.53353,-0.0273438 8.49707,0 8.44238,0 L0.65625,0"/>
</g>

<g fill="#212121" fill-opacity="1" stroke="none" transform="matrix(0.5,0,0,0.5,95.2975,127.9)"
font-family=".AppleSystemUIFont" font-size="13" font-weight="400" font-style="normal" 
>
<path vector-effect="none" fill-rule="evenodd" d="M1.66016,-11.7773 L2.23633,-12.4609 C2.75716,-13.0599 3.27799,-13.3594 3.79883,-13.3594 C4.05273,-13.3594 4.33105,-13.2845 4.63379,-13.1348 C4.93652,-12.985 5.23926,-12.8353 5.54199,-12.6855 C5.84473,-12.5358 6.12305,-12.4609 6.37695,-12.4609 C6.91081,-12.4609 7.42513,-12.7604 7.91992,-13.3594 L8.32031,-13.0176 L7.74414,-12.3438 C7.2168,-11.7383 6.69596,-11.4355 6.18164,-11.4355 C5.92773,-11.4355 5.64941,-11.512 5.34668,-11.665 C5.04395,-11.818 4.74121,-11.9694 4.43848,-12.1191 C4.13574,-12.2689 3.85742,-12.3438 3.60352,-12.3438 C3.06966,-12.3438 2.55534,-12.041 2.06055,-11.4355 L1.66016,-11.7773"/>
</g>

<g fill="#212121" fill-opacity="1" stroke="none" transform="matrix(0.5,0,0,0.5,94.507,127.9)"
font-family=".AppleSystemUIFont" font-size="13" font-weight="400" font-style="normal" 
>
<path vector-effect="none" fill-rule="evenodd" d="M0.556641,3.75977 C0.556641,3.68164 0.563151,3.62956 0.576172,3.60352 L3.51563,-8.20313 C3.57422,-8.39193 3.68001,-8.54492 3.83301,-8.66211 C3.986,-8.7793 4.16016,-8.83789 4.35547,-8.83789 C4.52474,-8.83789 4.66797,-8.78743 4.78516,-8.68652 C4.90234,-8.58561 4.96094,-8.45052 4.96094,-8.28125 C4.96094,-8.24219 4.95931,-8.21126 4.95605,-8.18848 C4.9528,-8.16569 4.94792,-8.14128 4.94141,-8.11523 L3.75977,-3.4375 C3.62956,-2.88411 3.56445,-2.4056 3.56445,-2.00195 C3.56445,-1.50716 3.68164,-1.10026 3.91602,-0.78125 C4.15039,-0.46224 4.50521,-0.302734 4.98047,-0.302734 C5.95052,-0.302734 6.80339,-0.908203 7.53906,-2.11914 C7.54557,-2.13216 7.55046,-2.14193 7.55371,-2.14844 C7.55697,-2.15495 7.55859,-2.16471 7.55859,-2.17773 L9.00391,-7.97852 C9.04948,-8.1543 9.15365,-8.30566 9.31641,-8.43262 C9.47917,-8.55957 9.65495,-8.62305 9.84375,-8.62305 C10,-8.62305 10.1383,-8.57096 10.2588,-8.4668 C10.3792,-8.36263 10.4395,-8.22591 10.4395,-8.05664 C10.4395,-7.97852 10.4329,-7.92643 10.4199,-7.90039 L8.98438,-2.13867 C8.88672,-1.76107 8.83789,-1.43555 8.83789,-1.16211 C8.83789,-0.589193 9.0332,-0.302734 9.42383,-0.302734 C9.84049,-0.302734 10.1546,-0.559896 10.3662,-1.07422 C10.5778,-1.58854 10.7617,-2.21029 10.918,-2.93945 C10.944,-3.01758 10.9993,-3.05664 11.084,-3.05664 L11.3184,-3.05664 C11.3704,-3.05664 11.4144,-3.03548 11.4502,-2.99316 C11.486,-2.95085 11.5039,-2.9069 11.5039,-2.86133 C11.2695,-1.93034 11.014,-1.18327 10.7373,-0.620117 C10.4606,-0.0569661 10.0098,0.224609 9.38477,0.224609 C8.94206,0.224609 8.5498,0.0976563 8.20801,-0.15625 C7.86621,-0.410156 7.64323,-0.751953 7.53906,-1.18164 C7.20703,-0.764974 6.81803,-0.426432 6.37207,-0.166016 C5.92611,0.094401 5.45573,0.224609 4.96094,0.224609 C4.1276,0.224609 3.47331,0.0292969 2.99805,-0.361328 L1.98242,3.68164 C1.94336,3.87044 1.8457,4.02344 1.68945,4.14063 C1.5332,4.25781 1.35742,4.31641 1.16211,4.31641 C0.999349,4.31641 0.857747,4.26595 0.737305,4.16504 C0.616862,4.06413 0.556641,3.92904 0.556641,3.75977 "/>
</g>

<g fill="#212121" fill-opacity="1" stroke="none" transform="matrix(0.5,0,0,0.5,100.532,129.4)"
font-family=".AppleSystemUIFont" font-size="13" font-weight="400" font-style="normal" 
>
<path vector-effect="none" fill-rule="evenodd" d="M0.587891,0 C0.496745,0 0.451172,-0.0615234 0.451172,-0.18457 C0.48763,-0.389648 0.546875,-0.492188 0.628906,-0.492188 C1.18034,-0.492188 1.55404,-0.510417 1.75,-0.546875 C1.96419,-0.597005 2.09863,-0.736003 2.15332,-0.963867 L4.07422,-8.6543 C4.09245,-8.74544 4.10156,-8.80469 4.10156,-8.83203 C4.10156,-8.89128 4.08675,-8.93343 4.05713,-8.9585 C4.02751,-8.98356 3.98079,-9.00293 3.91699,-9.0166 C3.73014,-9.05306 3.37695,-9.07129 2.85742,-9.07129 C2.76172,-9.07129 2.71387,-9.13281 2.71387,-9.25586 C2.74577,-9.37435 2.77083,-9.45524 2.78906,-9.49854 C2.80729,-9.54183 2.86198,-9.56348 2.95313,-9.56348 L6.86328,-9.56348 C6.95443,-9.56348 7,-9.50195 7,-9.37891 C6.99544,-9.35612 6.98633,-9.31738 6.97266,-9.2627 C6.95898,-9.20801 6.94076,-9.16243 6.91797,-9.12598 C6.89518,-9.08952 6.861,-9.07129 6.81543,-9.07129 C6.26855,-9.07129 5.8903,-9.05306 5.68066,-9.0166 C5.47559,-8.96647 5.3457,-8.8252 5.29102,-8.59277 L3.37695,-0.90918 C3.35417,-0.795247 3.34277,-0.733724 3.34277,-0.724609 C3.34277,-0.701823 3.34619,-0.680176 3.35303,-0.659668 C3.35986,-0.63916 3.37354,-0.620931 3.39404,-0.60498 C3.41455,-0.58903 3.43506,-0.577637 3.45557,-0.570801 C3.47607,-0.563965 3.5,-0.55599 3.52734,-0.546875 C3.70508,-0.510417 4.06055,-0.492188 4.59375,-0.492188 C4.6849,-0.492188 4.73047,-0.430664 4.73047,-0.307617 C4.69857,-0.175456 4.6735,-0.0911458 4.65527,-0.0546875 C4.63704,-0.0182292 4.58236,0 4.49121,0 L0.587891,0"/>
</g>

<g fill="#cc3333" fill-opacity="0.6" stroke="none" transform="matrix(5e-05,0,0,5e-05,-1.32857,-5)"
font-family=".AppleSystemUIFont" font-size="13" font-weight="400" font-style="normal" 
>
<path vector-effect="none" fill-rule="evenodd" d="M4.19032e+06,402765 L4.19032e+06,598595 L4.79357e+06,598595 L4.79357e+06,402765 L4.19032e+06,402765"/>
</g>

<g fill="#3366cc" fill-opacity="0.6" stroke="none" transform="matrix(5e-05,0,0,5e-05,-1.32857,-5)"
font-family=".AppleSystemUIFont" font-size="13" font-weight="400" font-style="normal" 
>
<path vector-effect="none" fill-rule="evenodd" d="M4.19032e+06,671404 L4.19032e+06,867234 L4.79357e+06,867234 L4.79357e+06,671404 L4.19032e+06,671404"/>
</g>

<g fill="#212121" fill-opacity="1" stroke="none" transform="matrix(0.5,0,0,0.5,240.612,23.284)"
font-family=".AppleSystemUIFont" font-size="13" font-weight="400" font-style="normal" 
>
<path vector-effect="none" fill-rule="evenodd" d="M1.96533,-16.4976 L13.9932,-16.4976 L13.9932,-14.4761 L4.14404,-14.4761 L4.14404,-9.46729 L13.252,-9.46729 L13.252,-7.55811 L4.14404,-7.55811 L4.14404,-1.96533 L14.1616,-1.96533 L14.1616,0 L1.96533,0 L1.96533,-16.4976"/>
</g>

<g fill="#212121" fill-opacity="1" stroke="none" transform="matrix(0.5,0,0,0.5,240.612,36.716)"
font-family=".AppleSystemUIFont" font-size="13" font-weight="400" font-style="normal" 
>
<path vector-effect="none" fill-rule="evenodd" d="M2.25732,-16.4976 L4.51465,-16.4976 L4.51465,0 L2.25732,0 L2.25732,-16.4976"/>
</g>
</g>
</svg>
