<?xml version="1.0" encoding="UTF-8" standalone="no"?>
<svg width="226.836mm" height="67.3806mm"
 viewBox="0 0 643 191"
 xmlns="http://www.w3.org/2000/svg" xmlns:xlink="http://www.w3.org/1999/xlink"  version="1.2" baseProfile="tiny">
<title>Qt SVG Document</title>
<desc>MATLAB, The MathWorks, Inc. Version 25.2.0.3042426 R2025b Update 1</desc>
<defs>
</defs>
<g fill="none" stroke="black" stroke-width="1" fill-rule="evenodd" stroke-linecap="square" stroke-linejoin="bevel" >

<g fill="#ffffff" fill-opacity="1" stroke="none" transform="matrix(5e-05,0,0,5e-05,-67.6429,-2.78125)"
font-family=".AppleSystemUIFont" font-size="13" font-weight="400" font-style="normal" 
>
<path vector-effect="none" fill-rule="evenodd" d="M2.03e+06,380000 L2.03e+06,3.12e+06 L4.49e+06,3.12e+06 L4.49e+06,380000 L2.03e+06,380000"/>
</g>

<g fill="#212121" fill-opacity="1" stroke="none" transform="matrix(0.5,0,0,0.5,88.3571,182.219)"
font-family=".AppleSystemUIFont" font-size="13" font-weight="400" font-style="normal" 
>
<path vector-effect="none" fill-rule="evenodd" d="M1.37109,-0.461426 C1.37109,-0.725098 1.48975,-0.975586 1.72705,-1.21289 L9.3208,-8.66162 L6.64453,-16.1763 C6.43359,-16.7476 6.21167,-17.2002 5.97876,-17.5342 C5.74585,-17.8682 5.40967,-18.0352 4.97021,-18.0352 C4.76807,-18.0352 4.66699,-18.1538 4.66699,-18.3911 C4.68457,-18.4966 4.72852,-18.5801 4.79883,-18.6416 C4.86914,-18.7031 4.96143,-18.7339 5.07568,-18.7339 C6.96533,-18.7339 8.10791,-18.1758 8.50342,-17.0596 L13.9878,-1.75342 C14.2251,-0.98877 14.4668,-0.474609 14.7129,-0.210938 C14.8008,-0.0791016 14.8447,0.00878906 14.8447,0.0527344 C14.8447,0.219727 14.7744,0.303223 14.6338,0.303223 L13.1704,0.303223 C12.7222,0.171387 12.3662,-0.219727 12.1025,-0.870117 L9.63721,-7.77832 L3.11133,-0.105469 C2.78613,0.202148 2.49609,0.355957 2.24121,0.355957 C2.0127,0.355957 1.81055,0.276855 1.63477,0.118652 C1.45898,-0.0395508 1.37109,-0.23291 1.37109,-0.461426 "/>
</g>

<g fill="#212121" fill-opacity="1" stroke="none" transform="matrix(0.5,0,0,0.5,96.3571,188.719)"
font-family=".AppleSystemUIFont" font-size="13" font-weight="400" font-style="normal" 
>
<path vector-effect="none" fill-rule="evenodd" d="M2.10547,-10.8926 L2.10547,-12.375 C3.50195,-12.5111 4.47591,-12.7384 5.02734,-13.0571 C5.57878,-13.3758 5.99056,-14.1296 6.2627,-15.3184 L7.78809,-15.3184 L7.78809,0 L5.72559,0 L5.72559,-10.8926 L2.10547,-10.8926"/>
</g>

<g fill="#212121" fill-opacity="1" stroke="#212121" stroke-opacity="1" stroke-width="4" stroke-linecap="square" stroke-linejoin="round" transform="matrix(0.5,0,0,0.5,-67.6429,-2.78125)"
font-family=".AppleSystemUIFont" font-size="13" font-weight="400" font-style="normal" 
>
<polyline fill="none" vector-effect="none" points="203,312 449,312 " />
<polyline fill="none" vector-effect="none" points="244,312 244,309.26 " />
<polyline fill="none" vector-effect="none" points="326,312 326,309.26 " />
<polyline fill="none" vector-effect="none" points="408,312 408,309.26 " />
</g>

<g fill="#212121" fill-opacity="1" stroke="none" transform="matrix(0.5,0,0,0.5,48.8571,166.147)"
font-family=".AppleSystemUIFont" font-size="13" font-weight="400" font-style="normal" 
>
<path vector-effect="none" fill-rule="evenodd" d="M1.0376,-8.09326 L7.16553,-8.09326 L7.16553,-5.83496 L1.0376,-5.83496 L1.0376,-8.09326 M10.7051,-12.3779 L10.7051,-14.0625 C12.292,-14.2171 13.3988,-14.4755 14.0254,-14.8376 C14.652,-15.1998 15.12,-16.0563 15.4292,-17.4072 L17.1626,-17.4072 L17.1626,0 L14.8188,0 L14.8188,-12.3779 L10.7051,-12.3779"/>
</g>

<g fill="#212121" fill-opacity="1" stroke="none" transform="matrix(0.5,0,0,0.5,91.8571,166.147)"
font-family=".AppleSystemUIFont" font-size="13" font-weight="400" font-style="normal" 
>
<path vector-effect="none" fill-rule="evenodd" d="M6.7627,-17.4805 C9.02507,-17.4805 10.6608,-16.5487 11.6699,-14.6851 C12.4512,-13.2446 12.8418,-11.2712 12.8418,-8.76465 C12.8418,-6.38835 12.4878,-4.42301 11.7798,-2.86865 C10.7544,-0.638835 9.07796,0.476074 6.75049,0.476074 C4.65088,0.476074 3.08838,-0.435384 2.06299,-2.2583 C1.2085,-3.78011 0.78125,-5.82275 0.78125,-8.38623 C0.78125,-10.3719 1.0376,-12.0768 1.55029,-13.501 C2.51058,-16.154 4.24805,-17.4805 6.7627,-17.4805 M6.73828,-1.52588 C7.8776,-1.52588 8.78499,-2.03044 9.46045,-3.03955 C10.1359,-4.04867 10.4736,-5.92855 10.4736,-8.6792 C10.4736,-10.6649 10.2295,-12.2986 9.74121,-13.5803 C9.25293,-14.8621 8.30485,-15.5029 6.89697,-15.5029 C5.60303,-15.5029 4.65698,-14.8946 4.05884,-13.678 C3.46069,-12.4613 3.16162,-10.6689 3.16162,-8.30078 C3.16162,-6.51855 3.35286,-5.08626 3.73535,-4.00391 C4.32129,-2.35189 5.32227,-1.52588 6.73828,-1.52588 "/>
</g>

<g fill="#212121" fill-opacity="1" stroke="none" transform="matrix(0.5,0,0,0.5,132.857,166.147)"
font-family=".AppleSystemUIFont" font-size="13" font-weight="400" font-style="normal" 
>
<path vector-effect="none" fill-rule="evenodd" d="M2.39258,-12.3779 L2.39258,-14.0625 C3.97949,-14.2171 5.08626,-14.4755 5.71289,-14.8376 C6.33952,-15.1998 6.80745,-16.0563 7.1167,-17.4072 L8.8501,-17.4072 L8.8501,0 L6.50635,0 L6.50635,-12.3779 L2.39258,-12.3779"/>
</g>

<g fill="#212121" fill-opacity="1" stroke="none" transform="matrix(0,-0.5,0.5,0,11.5,102.719)"
font-family=".AppleSystemUIFont" font-size="13" font-weight="400" font-style="normal" 
>
<path vector-effect="none" fill-rule="evenodd" d="M10.2173,-19.894 C12.6694,-19.894 14.5723,-19.248 15.9258,-17.9561 C17.2793,-16.6641 18.0308,-15.1963 18.1802,-13.5527 L15.6226,-13.5527 C15.3325,-14.8008 14.7546,-15.7896 13.8889,-16.519 C13.0232,-17.2485 11.8081,-17.6133 10.2437,-17.6133 C8.33643,-17.6133 6.79614,-16.9431 5.6228,-15.6028 C4.44946,-14.2625 3.86279,-12.208 3.86279,-9.43945 C3.86279,-7.17188 4.39233,-5.33276 5.45142,-3.92212 C6.5105,-2.51147 8.09033,-1.80615 10.1909,-1.80615 C12.1245,-1.80615 13.5967,-2.54883 14.6074,-4.03418 C15.1436,-4.81641 15.5435,-5.84473 15.8071,-7.11914 L18.3647,-7.11914 C18.1362,-5.08008 17.3804,-3.37061 16.0972,-1.99072 C14.5591,-0.32959 12.4849,0.500977 9.87451,0.500977 C7.62451,0.500977 5.73486,-0.180176 4.20557,-1.54248 C2.19287,-3.34424 1.18652,-6.12598 1.18652,-9.8877 C1.18652,-12.7441 1.94238,-15.0864 3.4541,-16.9146 C5.08887,-18.9009 7.34326,-19.894 10.2173,-19.894 M26.8276,-1.5293 C28.4009,-1.5293 29.4797,-2.12476 30.0642,-3.31567 C30.6487,-4.50659 30.9409,-5.83154 30.9409,-7.29053 C30.9409,-8.60889 30.73,-9.68115 30.3081,-10.5073 C29.6401,-11.8081 28.4888,-12.4585 26.854,-12.4585 C25.4038,-12.4585 24.3491,-11.9048 23.6899,-10.7974 C23.0308,-9.68994 22.7012,-8.354 22.7012,-6.78955 C22.7012,-5.28662 23.0308,-4.03418 23.6899,-3.03223 C24.3491,-2.03027 25.395,-1.5293 26.8276,-1.5293 M26.9199,-14.5283 C28.7393,-14.5283 30.2773,-13.9219 31.5342,-12.709 C32.791,-11.4961 33.4194,-9.71191 33.4194,-7.35645 C33.4194,-5.08008 32.8657,-3.19922 31.7583,-1.71387 C30.6509,-0.228516 28.9326,0.51416 26.6035,0.51416 C24.6611,0.51416 23.1187,-0.142822 21.9761,-1.45679 C20.8335,-2.77075 20.2622,-4.53516 20.2622,-6.75 C20.2622,-9.12305 20.8643,-11.0127 22.0684,-12.4189 C23.2725,-13.8252 24.8896,-14.5283 26.9199,-14.5283 M38.6133,-14.1196 L38.6133,-4.74609 C38.6133,-4.02539 38.7275,-3.43652 38.9561,-2.97949 C39.3779,-2.13574 40.1646,-1.71387 41.3159,-1.71387 C42.9683,-1.71387 44.0933,-2.45215 44.6909,-3.92871 C45.0161,-4.71973 45.1787,-5.80518 45.1787,-7.18506 L45.1787,-14.1196 L47.5518,-14.1196 L47.5518,0 L45.3105,0 L45.3369,-2.08301 C45.0293,-1.54688 44.647,-1.09424 44.1899,-0.725098 C43.2847,0.0131836 42.186,0.382324 40.894,0.382324 C38.8813,0.382324 37.5103,-0.290039 36.7808,-1.63477 C36.3853,-2.35547 36.1875,-3.31787 36.1875,-4.52197 L36.1875,-14.1196 L38.6133,-14.1196 M51.2559,-14.1196 L53.5103,-14.1196 L53.5103,-12.1157 C54.1782,-12.9419 54.8857,-13.5352 55.6328,-13.8955 C56.3799,-14.2559 57.2104,-14.436 58.1245,-14.436 C60.1284,-14.436 61.4819,-13.7373 62.1851,-12.3398 C62.5718,-11.5752 62.7651,-10.481 62.7651,-9.05713 L62.7651,0 L60.3525,0 L60.3525,-8.89893 C60.3525,-9.76025 60.2251,-10.4546 59.9702,-10.9819 C59.5483,-11.8608 58.7837,-12.3003 57.6763,-12.3003 C57.1138,-12.3003 56.6523,-12.2432 56.292,-12.1289 C55.6416,-11.9355 55.0703,-11.5488 54.5781,-10.9688 C54.1826,-10.5029 53.9255,-10.0217 53.8069,-9.52515 C53.6882,-9.02856 53.6289,-8.31885 53.6289,-7.396 L53.6289,0 L51.2559,0 L51.2559,-14.1196 M66.7461,-18.0615 L69.1455,-18.0615 L69.1455,-14.1196 L71.3999,-14.1196 L71.3999,-12.1816 L69.1455,-12.1816 L69.1455,-2.96631 C69.1455,-2.47412 69.3125,-2.14453 69.6465,-1.97754 C69.8311,-1.88086 70.1387,-1.83252 70.5693,-1.83252 C70.6836,-1.83252 70.8066,-1.83472 70.9385,-1.83911 C71.0703,-1.84351 71.2241,-1.85449 71.3999,-1.87207 L71.3999,0 C71.1274,0.0791016 70.844,0.13623 70.5496,0.171387 C70.2551,0.206543 69.9365,0.224121 69.5938,0.224121 C68.4863,0.224121 67.7349,-0.0593262 67.3394,-0.626221 C66.9438,-1.19312 66.7461,-1.9292 66.7461,-2.83447 L66.7461,-12.1816 L64.8345,-12.1816 L64.8345,-14.1196 L66.7461,-14.1196 L66.7461,-18.0615"/>
</g>

<g fill="#212121" fill-opacity="1" stroke="#212121" stroke-opacity="1" stroke-width="4" stroke-linecap="square" stroke-linejoin="round" transform="matrix(0.5,0,0,0.5,-67.6429,-2.78125)"
font-family=".AppleSystemUIFont" font-size="13" font-weight="400" font-style="normal" 
>
<polyline fill="none" vector-effect="none" points="203,312 203,38 " />
<polyline fill="none" vector-effect="none" points="203,312 205.74,312 " />
<polyline fill="none" vector-effect="none" points="203,211.634 205.74,211.634 " />
<polyline fill="none" vector-effect="none" points="203,111.267 205.74,111.267 " />
</g>

<g fill="#212121" fill-opacity="1" stroke="none" transform="matrix(0.5,0,0,0.5,23.4286,156.469)"
font-family=".AppleSystemUIFont" font-size="13" font-weight="400" font-style="normal" 
>
<path vector-effect="none" fill-rule="evenodd" d="M6.7627,-17.4805 C9.02507,-17.4805 10.6608,-16.5487 11.6699,-14.6851 C12.4512,-13.2446 12.8418,-11.2712 12.8418,-8.76465 C12.8418,-6.38835 12.4878,-4.42301 11.7798,-2.86865 C10.7544,-0.638835 9.07796,0.476074 6.75049,0.476074 C4.65088,0.476074 3.08838,-0.435384 2.06299,-2.2583 C1.2085,-3.78011 0.78125,-5.82275 0.78125,-8.38623 C0.78125,-10.3719 1.0376,-12.0768 1.55029,-13.501 C2.51058,-16.154 4.24805,-17.4805 6.7627,-17.4805 M6.73828,-1.52588 C7.8776,-1.52588 8.78499,-2.03044 9.46045,-3.03955 C10.1359,-4.04867 10.4736,-5.92855 10.4736,-8.6792 C10.4736,-10.6649 10.2295,-12.2986 9.74121,-13.5803 C9.25293,-14.8621 8.30485,-15.5029 6.89697,-15.5029 C5.60303,-15.5029 4.65698,-14.8946 4.05884,-13.678 C3.46069,-12.4613 3.16162,-10.6689 3.16162,-8.30078 C3.16162,-6.51855 3.35286,-5.08626 3.73535,-4.00391 C4.32129,-2.35189 5.32227,-1.52588 6.73828,-1.52588 "/>
</g>

<g fill="#212121" fill-opacity="1" stroke="none" transform="matrix(0.5,0,0,0.5,23.4286,106.286)"
font-family=".AppleSystemUIFont" font-size="13" font-weight="400" font-style="normal" 
>
<path vector-effect="none" fill-rule="evenodd" d="M3.08838,-4.45557 C3.23486,-3.20231 3.81673,-2.33561 4.83398,-1.85547 C5.35482,-1.61133 5.95703,-1.48926 6.64063,-1.48926 C7.94271,-1.48926 8.90706,-1.9043 9.53369,-2.73438 C10.1603,-3.56445 10.4736,-4.48405 10.4736,-5.49316 C10.4736,-6.71387 10.1013,-7.65788 9.35669,-8.3252 C8.61206,-8.99251 7.71891,-9.32617 6.67725,-9.32617 C5.92041,-9.32617 5.2714,-9.17969 4.73022,-8.88672 C4.18905,-8.59375 3.72721,-8.18685 3.34473,-7.66602 L1.44043,-7.77588 L2.771,-17.1875 L11.853,-17.1875 L11.853,-15.0635 L4.41895,-15.0635 L3.67432,-10.2051 C4.08122,-10.5143 4.46777,-10.7463 4.83398,-10.9009 C5.48503,-11.1694 6.23779,-11.3037 7.09229,-11.3037 C8.69548,-11.3037 10.0545,-10.7869 11.1694,-9.75342 C12.2843,-8.71989 12.8418,-7.40967 12.8418,-5.82275 C12.8418,-4.17074 12.3311,-2.71403 11.3098,-1.45264 C10.2885,-0.191243 8.65885,0.439453 6.4209,0.439453 C4.99674,0.439453 3.73739,0.0386556 2.64282,-0.762939 C1.54826,-1.56453 0.935872,-2.79541 0.805664,-4.45557 L3.08838,-4.45557"/>
</g>

<g fill="#212121" fill-opacity="1" stroke="none" transform="matrix(0.5,0,0,0.5,16.4286,56.1025)"
font-family=".AppleSystemUIFont" font-size="13" font-weight="400" font-style="normal" 
>
<path vector-effect="none" fill-rule="evenodd" d="M2.39258,-12.3779 L2.39258,-14.0625 C3.97949,-14.2171 5.08626,-14.4755 5.71289,-14.8376 C6.33952,-15.1998 6.80745,-16.0563 7.1167,-17.4072 L8.8501,-17.4072 L8.8501,0 L6.50635,0 L6.50635,-12.3779 L2.39258,-12.3779 M20.6533,-17.4805 C22.9157,-17.4805 24.5514,-16.5487 25.5605,-14.6851 C26.3418,-13.2446 26.7324,-11.2712 26.7324,-8.76465 C26.7324,-6.38835 26.3784,-4.42301 25.6704,-2.86865 C24.645,-0.638835 22.9686,0.476074 20.6411,0.476074 C18.5415,0.476074 16.979,-0.435384 15.9536,-2.2583 C15.0991,-3.78011 14.6719,-5.82275 14.6719,-8.38623 C14.6719,-10.3719 14.9282,-12.0768 15.4409,-13.501 C16.4012,-16.154 18.1387,-17.4805 20.6533,-17.4805 M20.6289,-1.52588 C21.7682,-1.52588 22.6756,-2.03044 23.3511,-3.03955 C24.0265,-4.04867 24.3643,-5.92855 24.3643,-8.6792 C24.3643,-10.6649 24.1201,-12.2986 23.6318,-13.5803 C23.1436,-14.8621 22.1955,-15.5029 20.7876,-15.5029 C19.4937,-15.5029 18.5476,-14.8946 17.9495,-13.678 C17.3513,-12.4613 17.0522,-10.6689 17.0522,-8.30078 C17.0522,-6.51855 17.2435,-5.08626 17.626,-4.00391 C18.2119,-2.35189 19.2129,-1.52588 20.6289,-1.52588 "/>
</g>

<g fill="#212121" fill-opacity="1" stroke="none" transform="matrix(0.5,0,0,0.5,52.8571,11.5)"
font-family=".AppleSystemUIFont" font-size="13" font-weight="400" font-style="normal" 
>
<path vector-effect="none" fill-rule="evenodd" d="M2.05664,-19.3667 L5.15479,-19.3667 L14.937,-3.67822 L14.937,-19.3667 L17.4287,-19.3667 L17.4287,0 L14.4888,0 L4.56152,-15.6753 L4.56152,0 L2.05664,0 L2.05664,-19.3667 M26.8276,-1.5293 C28.4009,-1.5293 29.4797,-2.12476 30.0642,-3.31567 C30.6487,-4.50659 30.9409,-5.83154 30.9409,-7.29053 C30.9409,-8.60889 30.73,-9.68115 30.3081,-10.5073 C29.6401,-11.8081 28.4888,-12.4585 26.854,-12.4585 C25.4038,-12.4585 24.3491,-11.9048 23.6899,-10.7974 C23.0308,-9.68994 22.7012,-8.354 22.7012,-6.78955 C22.7012,-5.28662 23.0308,-4.03418 23.6899,-3.03223 C24.3491,-2.03027 25.395,-1.5293 26.8276,-1.5293 M26.9199,-14.5283 C28.7393,-14.5283 30.2773,-13.9219 31.5342,-12.709 C32.791,-11.4961 33.4194,-9.71191 33.4194,-7.35645 C33.4194,-5.08008 32.8657,-3.19922 31.7583,-1.71387 C30.6509,-0.228516 28.9326,0.51416 26.6035,0.51416 C24.6611,0.51416 23.1187,-0.142822 21.9761,-1.45679 C20.8335,-2.77075 20.2622,-4.53516 20.2622,-6.75 C20.2622,-9.12305 20.8643,-11.0127 22.0684,-12.4189 C23.2725,-13.8252 24.8896,-14.5283 26.9199,-14.5283 M52.5283,-7.93652 L49.5884,-16.4927 L46.4639,-7.93652 L52.5283,-7.93652 M48.2173,-19.3667 L51.1836,-19.3667 L58.2104,0 L55.3364,0 L53.3721,-5.80078 L45.7124,-5.80078 L43.6162,0 L40.9268,0 L48.2173,-19.3667 M61.7744,-6.89502 C61.7744,-5.3833 62.0952,-4.11768 62.7368,-3.09814 C63.3784,-2.07861 64.4067,-1.56885 65.8218,-1.56885 C66.9204,-1.56885 67.8235,-2.04126 68.531,-2.98608 C69.2385,-3.93091 69.5923,-5.28662 69.5923,-7.05322 C69.5923,-8.8374 69.2275,-10.158 68.498,-11.0149 C67.7686,-11.8718 66.8677,-12.3003 65.7954,-12.3003 C64.6001,-12.3003 63.6311,-11.8433 62.8884,-10.9292 C62.1458,-10.0151 61.7744,-8.67041 61.7744,-6.89502 M65.3472,-14.3701 C66.4282,-14.3701 67.3335,-14.1416 68.063,-13.6846 C68.4849,-13.4209 68.9639,-12.9595 69.5,-12.3003 L69.5,-19.4326 L71.7808,-19.4326 L71.7808,0 L69.645,0 L69.645,-1.96436 C69.0913,-1.09424 68.4365,-0.46582 67.6807,-0.0791016 C66.9248,0.307617 66.0591,0.500977 65.0835,0.500977 C63.5103,0.500977 62.1479,-0.1604 60.9966,-1.48315 C59.8452,-2.80591 59.2695,-4.56592 59.2695,-6.76318 C59.2695,-8.81982 59.7947,-10.6018 60.845,-12.1091 C61.8953,-13.6165 63.396,-14.3701 65.3472,-14.3701 M77.1064,-3.75732 C77.1064,-3.07178 77.3569,-2.53125 77.8579,-2.13574 C78.3589,-1.74023 78.9521,-1.54248 79.6377,-1.54248 C80.4727,-1.54248 81.2813,-1.73584 82.0635,-2.12256 C83.3818,-2.76416 84.041,-3.81445 84.041,-5.27344 L84.041,-7.18506 C83.751,-7.00049 83.3774,-6.84668 82.9204,-6.72363 C82.4634,-6.60059 82.0151,-6.5127 81.5757,-6.45996 L80.1387,-6.27539 C79.2773,-6.16113 78.6313,-5.98096 78.2007,-5.73486 C77.4712,-5.32178 77.1064,-4.6626 77.1064,-3.75732 M82.8545,-8.55615 C83.3994,-8.62646 83.7642,-8.85498 83.9487,-9.2417 C84.0542,-9.45264 84.1069,-9.75586 84.1069,-10.1514 C84.1069,-10.96 83.8191,-11.5466 83.2434,-11.9114 C82.6677,-12.2761 81.8438,-12.4585 80.7715,-12.4585 C79.5322,-12.4585 78.6533,-12.1245 78.1348,-11.4565 C77.8447,-11.0874 77.6558,-10.5381 77.5679,-9.80859 L75.353,-9.80859 C75.397,-11.5488 75.9617,-12.7595 77.0471,-13.4407 C78.1326,-14.1218 79.3916,-14.4624 80.8242,-14.4624 C82.4854,-14.4624 83.8345,-14.146 84.8716,-13.5132 C85.8999,-12.8804 86.4141,-11.896 86.4141,-10.5601 L86.4141,-2.42578 C86.4141,-2.17969 86.4646,-1.98193 86.5657,-1.83252 C86.6667,-1.68311 86.8799,-1.6084 87.2051,-1.6084 C87.3105,-1.6084 87.4292,-1.61499 87.561,-1.62817 C87.6929,-1.64136 87.8335,-1.66113 87.9829,-1.6875 L87.9829,0.065918 C87.6138,0.171387 87.3325,0.237305 87.1392,0.263672 C86.9458,0.290039 86.6821,0.303223 86.3481,0.303223 C85.5308,0.303223 84.9375,0.0131836 84.5684,-0.566895 C84.375,-0.874512 84.2388,-1.30957 84.1597,-1.87207 C83.6763,-1.23926 82.9819,-0.689941 82.0767,-0.224121 C81.1714,0.241699 80.1738,0.474609 79.084,0.474609 C77.7744,0.474609 76.7043,0.0769043 75.8738,-0.718506 C75.0432,-1.51392 74.6279,-2.50928 74.6279,-3.70459 C74.6279,-5.01416 75.0366,-6.0293 75.854,-6.75 C76.6714,-7.4707 77.7437,-7.91455 79.0708,-8.08154 L82.8545,-8.55615 M96.2617,-1.59521 C97.3691,-1.59521 98.2898,-2.05884 99.0237,-2.98608 C99.7576,-3.91333 100.125,-5.2998 100.125,-7.14551 C100.125,-8.27051 99.9619,-9.2373 99.6367,-10.0459 C99.0215,-11.6016 97.8965,-12.3794 96.2617,-12.3794 C94.6182,-12.3794 93.4932,-11.5576 92.8867,-9.91406 C92.5615,-9.03516 92.3989,-7.91895 92.3989,-6.56543 C92.3989,-5.47559 92.5615,-4.54834 92.8867,-3.78369 C93.502,-2.32471 94.627,-1.59521 96.2617,-1.59521 M90.1182,-14.0537 L92.4253,-14.0537 L92.4253,-12.1816 C92.8999,-12.8232 93.4185,-13.3198 93.981,-13.6714 C94.7808,-14.1987 95.7212,-14.4624 96.8022,-14.4624 C98.4019,-14.4624 99.7598,-13.8494 100.876,-12.6233 C101.992,-11.3972 102.55,-9.646 102.55,-7.36963 C102.55,-4.29346 101.746,-2.09619 100.138,-0.777832 C99.1182,0.0571289 97.9316,0.474609 96.5781,0.474609 C95.5146,0.474609 94.6226,0.241699 93.9019,-0.224121 C93.48,-0.487793 93.0098,-0.94043 92.4912,-1.58203 L92.4912,5.62939 L90.1182,5.62939 L90.1182,-14.0537 M105.793,-18.0615 L108.192,-18.0615 L108.192,-14.1196 L110.447,-14.1196 L110.447,-12.1816 L108.192,-12.1816 L108.192,-2.96631 C108.192,-2.47412 108.359,-2.14453 108.693,-1.97754 C108.878,-1.88086 109.186,-1.83252 109.616,-1.83252 C109.73,-1.83252 109.854,-1.83472 109.985,-1.83911 C110.117,-1.84351 110.271,-1.85449 110.447,-1.87207 L110.447,0 C110.174,0.0791016 109.891,0.13623 109.596,0.171387 C109.302,0.206543 108.983,0.224121 108.641,0.224121 C107.533,0.224121 106.782,-0.0593262 106.386,-0.626221 C105.991,-1.19312 105.793,-1.9292 105.793,-2.83447 L105.793,-12.1816 L103.881,-12.1816 L103.881,-14.1196 L105.793,-14.1196 L105.793,-18.0615 M114.638,-3.75732 C114.638,-3.07178 114.888,-2.53125 115.389,-2.13574 C115.89,-1.74023 116.483,-1.54248 117.169,-1.54248 C118.004,-1.54248 118.813,-1.73584 119.595,-2.12256 C120.913,-2.76416 121.572,-3.81445 121.572,-5.27344 L121.572,-7.18506 C121.282,-7.00049 120.909,-6.84668 120.452,-6.72363 C119.995,-6.60059 119.546,-6.5127 119.107,-6.45996 L117.67,-6.27539 C116.809,-6.16113 116.163,-5.98096 115.732,-5.73486 C115.002,-5.32178 114.638,-4.6626 114.638,-3.75732 M120.386,-8.55615 C120.931,-8.62646 121.295,-8.85498 121.48,-9.2417 C121.585,-9.45264 121.638,-9.75586 121.638,-10.1514 C121.638,-10.96 121.35,-11.5466 120.775,-11.9114 C120.199,-12.2761 119.375,-12.4585 118.303,-12.4585 C117.063,-12.4585 116.185,-12.1245 115.666,-11.4565 C115.376,-11.0874 115.187,-10.5381 115.099,-9.80859 L112.884,-9.80859 C112.928,-11.5488 113.493,-12.7595 114.578,-13.4407 C115.664,-14.1218 116.923,-14.4624 118.355,-14.4624 C120.017,-14.4624 121.366,-14.146 122.403,-13.5132 C123.431,-12.8804 123.945,-11.896 123.945,-10.5601 L123.945,-2.42578 C123.945,-2.17969 123.996,-1.98193 124.097,-1.83252 C124.198,-1.68311 124.411,-1.6084 124.736,-1.6084 C124.842,-1.6084 124.96,-1.61499 125.092,-1.62817 C125.224,-1.64136 125.365,-1.66113 125.514,-1.6875 L125.514,0.065918 C125.145,0.171387 124.864,0.237305 124.67,0.263672 C124.477,0.290039 124.213,0.303223 123.879,0.303223 C123.062,0.303223 122.469,0.0131836 122.1,-0.566895 C121.906,-0.874512 121.77,-1.30957 121.691,-1.87207 C121.208,-1.23926 120.513,-0.689941 119.608,-0.224121 C118.703,0.241699 117.705,0.474609 116.615,0.474609 C115.306,0.474609 114.236,0.0769043 113.405,-0.718506 C112.574,-1.51392 112.159,-2.50928 112.159,-3.70459 C112.159,-5.01416 112.568,-6.0293 113.385,-6.75 C114.203,-7.4707 115.275,-7.91455 116.602,-8.08154 L120.386,-8.55615 M128.309,-18.0615 L130.708,-18.0615 L130.708,-14.1196 L132.962,-14.1196 L132.962,-12.1816 L130.708,-12.1816 L130.708,-2.96631 C130.708,-2.47412 130.875,-2.14453 131.209,-1.97754 C131.394,-1.88086 131.701,-1.83252 132.132,-1.83252 C132.246,-1.83252 132.369,-1.83472 132.501,-1.83911 C132.633,-1.84351 132.787,-1.85449 132.962,-1.87207 L132.962,0 C132.69,0.0791016 132.406,0.13623 132.112,0.171387 C131.818,0.206543 131.499,0.224121 131.156,0.224121 C130.049,0.224121 129.297,-0.0593262 128.902,-0.626221 C128.506,-1.19312 128.309,-1.9292 128.309,-2.83447 L128.309,-12.1816 L126.397,-12.1816 L126.397,-14.1196 L128.309,-14.1196 L128.309,-18.0615 M135.334,-14.0537 L137.747,-14.0537 L137.747,0 L135.334,0 L135.334,-14.0537 M135.334,-19.3667 L137.747,-19.3667 L137.747,-16.6772 L135.334,-16.6772 L135.334,-19.3667 M146.921,-1.5293 C148.495,-1.5293 149.573,-2.12476 150.158,-3.31567 C150.742,-4.50659 151.035,-5.83154 151.035,-7.29053 C151.035,-8.60889 150.824,-9.68115 150.402,-10.5073 C149.734,-11.8081 148.583,-12.4585 146.948,-12.4585 C145.498,-12.4585 144.443,-11.9048 143.784,-10.7974 C143.125,-9.68994 142.795,-8.354 142.795,-6.78955 C142.795,-5.28662 143.125,-4.03418 143.784,-3.03223 C144.443,-2.03027 145.489,-1.5293 146.921,-1.5293 M147.014,-14.5283 C148.833,-14.5283 150.371,-13.9219 151.628,-12.709 C152.885,-11.4961 153.513,-9.71191 153.513,-7.35645 C153.513,-5.08008 152.959,-3.19922 151.852,-1.71387 C150.745,-0.228516 149.026,0.51416 146.697,0.51416 C144.755,0.51416 143.212,-0.142822 142.07,-1.45679 C140.927,-2.77075 140.356,-4.53516 140.356,-6.75 C140.356,-9.12305 140.958,-11.0127 142.162,-12.4189 C143.366,-13.8252 144.983,-14.5283 147.014,-14.5283 M156.334,-14.1196 L158.588,-14.1196 L158.588,-12.1157 C159.256,-12.9419 159.964,-13.5352 160.711,-13.8955 C161.458,-14.2559 162.289,-14.436 163.203,-14.436 C165.207,-14.436 166.56,-13.7373 167.263,-12.3398 C167.65,-11.5752 167.843,-10.481 167.843,-9.05713 L167.843,0 L165.431,0 L165.431,-8.89893 C165.431,-9.76025 165.303,-10.4546 165.048,-10.9819 C164.626,-11.8608 163.862,-12.3003 162.754,-12.3003 C162.192,-12.3003 161.73,-12.2432 161.37,-12.1289 C160.72,-11.9355 160.148,-11.5488 159.656,-10.9688 C159.261,-10.5029 159.004,-10.0217 158.885,-9.52515 C158.766,-9.02856 158.707,-8.31885 158.707,-7.396 L158.707,0 L156.334,0 L156.334,-14.1196"/>
</g>

<g fill="#1a4de6" fill-opacity="1" stroke="none" transform="matrix(5e-05,0,0,5e-05,-67.6429,-2.78125)"
font-family=".AppleSystemUIFont" font-size="13" font-weight="400" font-style="normal" 
>
<path vector-effect="none" fill-rule="evenodd" d="M2.4236e+06,3.12e+06 L2.522e+06,3.12e+06 L2.522e+06,2.91927e+06 L2.4236e+06,2.91927e+06 L2.4236e+06,3.12e+06"/>
</g>

<g fill="#1a4de6" fill-opacity="1" stroke="none" transform="matrix(5e-05,0,0,5e-05,-67.6429,-2.78125)"
font-family=".AppleSystemUIFont" font-size="13" font-weight="400" font-style="normal" 
>
<path vector-effect="none" fill-rule="evenodd" d="M2.8172e+06,3.12e+06 L2.9156e+06,3.12e+06 L2.9156e+06,2.91927e+06 L2.8172e+06,2.91927e+06 L2.8172e+06,3.12e+06"/>
</g>

<g fill="#8d7398" fill-opacity="1" stroke="none" transform="matrix(5e-05,0,0,5e-05,-67.6429,-2.78125)"
font-family=".AppleSystemUIFont" font-size="13" font-weight="400" font-style="normal" 
>
<path vector-effect="none" fill-rule="evenodd" d="M3.2108e+06,3.12e+06 L3.3092e+06,3.12e+06 L3.3092e+06,2.91927e+06 L3.2108e+06,2.91927e+06 L3.2108e+06,3.12e+06"/>
</g>

<g fill="#bc6165" fill-opacity="1" stroke="none" transform="matrix(5e-05,0,0,5e-05,-67.6429,-2.78125)"
font-family=".AppleSystemUIFont" font-size="13" font-weight="400" font-style="normal" 
>
<path vector-effect="none" fill-rule="evenodd" d="M3.2108e+06,2.91927e+06 L3.3092e+06,2.91927e+06 L3.3092e+06,2.71853e+06 L3.2108e+06,2.71853e+06 L3.2108e+06,2.91927e+06"/>
</g>

<g fill="#e63326" fill-opacity="1" stroke="none" transform="matrix(5e-05,0,0,5e-05,-67.6429,-2.78125)"
font-family=".AppleSystemUIFont" font-size="13" font-weight="400" font-style="normal" 
>
<path vector-effect="none" fill-rule="evenodd" d="M3.2108e+06,2.71853e+06 L3.3092e+06,2.71853e+06 L3.3092e+06,2.5178e+06 L3.3092e+06,2.31707e+06 L3.2108e+06,2.31707e+06 L3.2108e+06,2.5178e+06 L3.2108e+06,2.71853e+06"/>
</g>

<g fill="#1a4de6" fill-opacity="1" stroke="none" transform="matrix(5e-05,0,0,5e-05,-67.6429,-2.78125)"
font-family=".AppleSystemUIFont" font-size="13" font-weight="400" font-style="normal" 
>
<path vector-effect="none" fill-rule="evenodd" d="M3.3092e+06,3.12e+06 L3.4076e+06,3.12e+06 L3.4076e+06,2.91927e+06 L3.4076e+06,2.71853e+06 L3.3092e+06,2.71853e+06 L3.3092e+06,2.91927e+06 L3.3092e+06,3.12e+06"/>
</g>

<g fill="#576bc3" fill-opacity="1" stroke="none" transform="matrix(5e-05,0,0,5e-05,-67.6429,-2.78125)"
font-family=".AppleSystemUIFont" font-size="13" font-weight="400" font-style="normal" 
>
<path vector-effect="none" fill-rule="evenodd" d="M3.3092e+06,2.71853e+06 L3.4076e+06,2.71853e+06 L3.4076e+06,2.5178e+06 L3.4076e+06,2.31707e+06 L3.3092e+06,2.31707e+06 L3.3092e+06,2.5178e+06 L3.3092e+06,2.71853e+06"/>
</g>

<g fill="#8d7398" fill-opacity="1" stroke="none" transform="matrix(5e-05,0,0,5e-05,-67.6429,-2.78125)"
font-family=".AppleSystemUIFont" font-size="13" font-weight="400" font-style="normal" 
>
<path vector-effect="none" fill-rule="evenodd" d="M3.4076e+06,3.12e+06 L3.506e+06,3.12e+06 L3.506e+06,2.91927e+06 L3.4076e+06,2.91927e+06 L3.4076e+06,3.12e+06"/>
</g>

<g fill="#e63326" fill-opacity="1" stroke="none" transform="matrix(5e-05,0,0,5e-05,-67.6429,-2.78125)"
font-family=".AppleSystemUIFont" font-size="13" font-weight="400" font-style="normal" 
>
<path vector-effect="none" fill-rule="evenodd" d="M3.506e+06,3.12e+06 L3.6044e+06,3.12e+06 L3.6044e+06,2.91927e+06 L3.506e+06,2.91927e+06 L3.506e+06,3.12e+06"/>
</g>

<g fill="#1a4de6" fill-opacity="1" stroke="none" transform="matrix(5e-05,0,0,5e-05,-67.6429,-2.78125)"
font-family=".AppleSystemUIFont" font-size="13" font-weight="400" font-style="normal" 
>
<path vector-effect="none" fill-rule="evenodd" d="M3.6044e+06,3.12e+06 L3.7028e+06,3.12e+06 L3.7028e+06,2.91927e+06 L3.6044e+06,2.91927e+06 L3.6044e+06,3.12e+06"/>
</g>

<g fill="#576bc3" fill-opacity="1" stroke="none" transform="matrix(5e-05,0,0,5e-05,-67.6429,-2.78125)"
font-family=".AppleSystemUIFont" font-size="13" font-weight="400" font-style="normal" 
>
<path vector-effect="none" fill-rule="evenodd" d="M3.6044e+06,2.91927e+06 L3.7028e+06,2.91927e+06 L3.7028e+06,2.71853e+06 L3.6044e+06,2.71853e+06 L3.6044e+06,2.91927e+06"/>
</g>

<g fill="#e63326" fill-opacity="1" stroke="none" transform="matrix(5e-05,0,0,5e-05,-67.6429,-2.78125)"
font-family=".AppleSystemUIFont" font-size="13" font-weight="400" font-style="normal" 
>
<path vector-effect="none" fill-rule="evenodd" d="M3.7028e+06,3.12e+06 L3.8012e+06,3.12e+06 L3.8012e+06,2.91927e+06 L3.7028e+06,2.91927e+06 L3.7028e+06,3.12e+06"/>
</g>

<g fill="#576bc3" fill-opacity="1" stroke="none" transform="matrix(5e-05,0,0,5e-05,-67.6429,-2.78125)"
font-family=".AppleSystemUIFont" font-size="13" font-weight="400" font-style="normal" 
>
<path vector-effect="none" fill-rule="evenodd" d="M3.8012e+06,3.12e+06 L3.8996e+06,3.12e+06 L3.8996e+06,2.91927e+06 L3.8012e+06,2.91927e+06 L3.8012e+06,3.12e+06"/>
</g>

<g fill="#bc6165" fill-opacity="1" stroke="none" transform="matrix(5e-05,0,0,5e-05,-67.6429,-2.78125)"
font-family=".AppleSystemUIFont" font-size="13" font-weight="400" font-style="normal" 
>
<path vector-effect="none" fill-rule="evenodd" d="M3.8012e+06,2.91927e+06 L3.8996e+06,2.91927e+06 L3.8996e+06,2.71853e+06 L3.8012e+06,2.71853e+06 L3.8012e+06,2.91927e+06"/>
</g>

<g fill="#576bc3" fill-opacity="1" stroke="none" transform="matrix(5e-05,0,0,5e-05,-67.6429,-2.78125)"
font-family=".AppleSystemUIFont" font-size="13" font-weight="400" font-style="normal" 
>
<path vector-effect="none" fill-rule="evenodd" d="M3.8996e+06,3.12e+06 L3.998e+06,3.12e+06 L3.998e+06,2.91927e+06 L3.8996e+06,2.91927e+06 L3.8996e+06,3.12e+06"/>
</g>

<g fill="#bc6165" fill-opacity="1" stroke="none" transform="matrix(5e-05,0,0,5e-05,-67.6429,-2.78125)"
font-family=".AppleSystemUIFont" font-size="13" font-weight="400" font-style="normal" 
>
<path vector-effect="none" fill-rule="evenodd" d="M3.8996e+06,2.91927e+06 L3.998e+06,2.91927e+06 L3.998e+06,2.71853e+06 L3.8996e+06,2.71853e+06 L3.8996e+06,2.91927e+06"/>
</g>

<g fill="#8d7398" fill-opacity="1" stroke="none" transform="matrix(5e-05,0,0,5e-05,-67.6429,-2.78125)"
font-family=".AppleSystemUIFont" font-size="13" font-weight="400" font-style="normal" 
>
<path vector-effect="none" fill-rule="evenodd" d="M3.998e+06,3.12e+06 L4.0964e+06,3.12e+06 L4.1948e+06,3.12e+06 L4.1948e+06,2.91927e+06 L4.0964e+06,2.91927e+06 L4.0964e+06,2.71853e+06 L3.998e+06,2.71853e+06 L3.998e+06,2.91927e+06 L3.998e+06,3.12e+06"/>
</g>

<g fill="#bc6165" fill-opacity="1" stroke="none" transform="matrix(5e-05,0,0,5e-05,-67.6429,-2.78125)"
font-family=".AppleSystemUIFont" font-size="13" font-weight="400" font-style="normal" 
>
<path vector-effect="none" fill-rule="evenodd" d="M4.0964e+06,2.91927e+06 L4.1948e+06,2.91927e+06 L4.1948e+06,2.71853e+06 L4.0964e+06,2.71853e+06 L4.0964e+06,2.91927e+06"/>
</g>

<g fill="#bc6165" fill-opacity="1" stroke="none" transform="matrix(5e-05,0,0,5e-05,-67.6429,-2.78125)"
font-family=".AppleSystemUIFont" font-size="13" font-weight="400" font-style="normal" 
>
<path vector-effect="none" fill-rule="evenodd" d="M4.1948e+06,3.12e+06 L4.2932e+06,3.12e+06 L4.2932e+06,2.91927e+06 L4.1948e+06,2.91927e+06 L4.1948e+06,3.12e+06"/>
</g>

<g fill="#000000" fill-opacity="0.701961" stroke="#000000" stroke-opacity="0.701961" stroke-dasharray="10,6" stroke-dashoffset="0" stroke-width="4" stroke-linecap="butt" stroke-linejoin="round" transform="matrix(0.5,0,0,0.5,-67.6429,-2.78125)"
font-family=".AppleSystemUIFont" font-size="13" font-weight="400" font-style="normal" 
>
<polyline fill="none" vector-effect="none" points="326,312 326,38 " />
</g>

<g fill="#ffffff" fill-opacity="1" stroke="none" transform="matrix(5e-05,0,0,5e-05,-67.6429,-2.78125)"
font-family=".AppleSystemUIFont" font-size="13" font-weight="400" font-style="normal" 
>
<path vector-effect="none" fill-rule="evenodd" d="M5.26e+06,380000 L5.26e+06,3.12e+06 L7.71e+06,3.12e+06 L7.71e+06,380000 L5.26e+06,380000"/>
</g>

<g fill="#212121" fill-opacity="1" stroke="none" transform="matrix(0.5,0,0,0.5,249.857,182.219)"
font-family=".AppleSystemUIFont" font-size="13" font-weight="400" font-style="normal" 
>
<path vector-effect="none" fill-rule="evenodd" d="M1.37109,-0.461426 C1.37109,-0.725098 1.48975,-0.975586 1.72705,-1.21289 L9.3208,-8.66162 L6.64453,-16.1763 C6.43359,-16.7476 6.21167,-17.2002 5.97876,-17.5342 C5.74585,-17.8682 5.40967,-18.0352 4.97021,-18.0352 C4.76807,-18.0352 4.66699,-18.1538 4.66699,-18.3911 C4.68457,-18.4966 4.72852,-18.5801 4.79883,-18.6416 C4.86914,-18.7031 4.96143,-18.7339 5.07568,-18.7339 C6.96533,-18.7339 8.10791,-18.1758 8.50342,-17.0596 L13.9878,-1.75342 C14.2251,-0.98877 14.4668,-0.474609 14.7129,-0.210938 C14.8008,-0.0791016 14.8447,0.00878906 14.8447,0.0527344 C14.8447,0.219727 14.7744,0.303223 14.6338,0.303223 L13.1704,0.303223 C12.7222,0.171387 12.3662,-0.219727 12.1025,-0.870117 L9.63721,-7.77832 L3.11133,-0.105469 C2.78613,0.202148 2.49609,0.355957 2.24121,0.355957 C2.0127,0.355957 1.81055,0.276855 1.63477,0.118652 C1.45898,-0.0395508 1.37109,-0.23291 1.37109,-0.461426 "/>
</g>

<g fill="#212121" fill-opacity="1" stroke="none" transform="matrix(0.5,0,0,0.5,257.857,188.719)"
font-family=".AppleSystemUIFont" font-size="13" font-weight="400" font-style="normal" 
>
<path vector-effect="none" fill-rule="evenodd" d="M2.10547,-10.8926 L2.10547,-12.375 C3.50195,-12.5111 4.47591,-12.7384 5.02734,-13.0571 C5.57878,-13.3758 5.99056,-14.1296 6.2627,-15.3184 L7.78809,-15.3184 L7.78809,0 L5.72559,0 L5.72559,-10.8926 L2.10547,-10.8926"/>
</g>

<g fill="#212121" fill-opacity="1" stroke="#212121" stroke-opacity="1" stroke-width="4" stroke-linecap="square" stroke-linejoin="round" transform="matrix(0.5,0,0,0.5,-67.6429,-2.78125)"
font-family=".AppleSystemUIFont" font-size="13" font-weight="400" font-style="normal" 
>
<polyline fill="none" vector-effect="none" points="526,312 771,312 " />
<polyline fill="none" vector-effect="none" points="566.833,312 566.833,309.26 " />
<polyline fill="none" vector-effect="none" points="648.5,312 648.5,309.26 " />
<polyline fill="none" vector-effect="none" points="730.167,312 730.167,309.26 " />
</g>

<g fill="#212121" fill-opacity="1" stroke="none" transform="matrix(0.5,0,0,0.5,210.274,166.147)"
font-family=".AppleSystemUIFont" font-size="13" font-weight="400" font-style="normal" 
>
<path vector-effect="none" fill-rule="evenodd" d="M1.0376,-8.09326 L7.16553,-8.09326 L7.16553,-5.83496 L1.0376,-5.83496 L1.0376,-8.09326 M10.7051,-12.3779 L10.7051,-14.0625 C12.292,-14.2171 13.3988,-14.4755 14.0254,-14.8376 C14.652,-15.1998 15.12,-16.0563 15.4292,-17.4072 L17.1626,-17.4072 L17.1626,0 L14.8188,0 L14.8188,-12.3779 L10.7051,-12.3779"/>
</g>

<g fill="#212121" fill-opacity="1" stroke="none" transform="matrix(0.5,0,0,0.5,253.107,166.147)"
font-family=".AppleSystemUIFont" font-size="13" font-weight="400" font-style="normal" 
>
<path vector-effect="none" fill-rule="evenodd" d="M6.7627,-17.4805 C9.02507,-17.4805 10.6608,-16.5487 11.6699,-14.6851 C12.4512,-13.2446 12.8418,-11.2712 12.8418,-8.76465 C12.8418,-6.38835 12.4878,-4.42301 11.7798,-2.86865 C10.7544,-0.638835 9.07796,0.476074 6.75049,0.476074 C4.65088,0.476074 3.08838,-0.435384 2.06299,-2.2583 C1.2085,-3.78011 0.78125,-5.82275 0.78125,-8.38623 C0.78125,-10.3719 1.0376,-12.0768 1.55029,-13.501 C2.51058,-16.154 4.24805,-17.4805 6.7627,-17.4805 M6.73828,-1.52588 C7.8776,-1.52588 8.78499,-2.03044 9.46045,-3.03955 C10.1359,-4.04867 10.4736,-5.92855 10.4736,-8.6792 C10.4736,-10.6649 10.2295,-12.2986 9.74121,-13.5803 C9.25293,-14.8621 8.30485,-15.5029 6.89697,-15.5029 C5.60303,-15.5029 4.65698,-14.8946 4.05884,-13.678 C3.46069,-12.4613 3.16162,-10.6689 3.16162,-8.30078 C3.16162,-6.51855 3.35286,-5.08626 3.73535,-4.00391 C4.32129,-2.35189 5.32227,-1.52588 6.73828,-1.52588 "/>
</g>

<g fill="#212121" fill-opacity="1" stroke="none" transform="matrix(0.5,0,0,0.5,293.94,166.147)"
font-family=".AppleSystemUIFont" font-size="13" font-weight="400" font-style="normal" 
>
<path vector-effect="none" fill-rule="evenodd" d="M2.39258,-12.3779 L2.39258,-14.0625 C3.97949,-14.2171 5.08626,-14.4755 5.71289,-14.8376 C6.33952,-15.1998 6.80745,-16.0563 7.1167,-17.4072 L8.8501,-17.4072 L8.8501,0 L6.50635,0 L6.50635,-12.3779 L2.39258,-12.3779"/>
</g>

<g fill="#212121" fill-opacity="1" stroke="#212121" stroke-opacity="1" stroke-width="4" stroke-linecap="square" stroke-linejoin="round" transform="matrix(0.5,0,0,0.5,-67.6429,-2.78125)"
font-family=".AppleSystemUIFont" font-size="13" font-weight="400" font-style="normal" 
>
<polyline fill="none" vector-effect="none" points="526,312 526,38 " />
<polyline fill="none" vector-effect="none" points="526,312 528.74,312 " />
<polyline fill="none" vector-effect="none" points="526,211.634 528.74,211.634 " />
<polyline fill="none" vector-effect="none" points="526,111.267 528.74,111.267 " />
</g>

<g fill="#212121" fill-opacity="1" stroke="none" transform="matrix(0.5,0,0,0.5,184.929,156.469)"
font-family=".AppleSystemUIFont" font-size="13" font-weight="400" font-style="normal" 
>
<path vector-effect="none" fill-rule="evenodd" d="M6.7627,-17.4805 C9.02507,-17.4805 10.6608,-16.5487 11.6699,-14.6851 C12.4512,-13.2446 12.8418,-11.2712 12.8418,-8.76465 C12.8418,-6.38835 12.4878,-4.42301 11.7798,-2.86865 C10.7544,-0.638835 9.07796,0.476074 6.75049,0.476074 C4.65088,0.476074 3.08838,-0.435384 2.06299,-2.2583 C1.2085,-3.78011 0.78125,-5.82275 0.78125,-8.38623 C0.78125,-10.3719 1.0376,-12.0768 1.55029,-13.501 C2.51058,-16.154 4.24805,-17.4805 6.7627,-17.4805 M6.73828,-1.52588 C7.8776,-1.52588 8.78499,-2.03044 9.46045,-3.03955 C10.1359,-4.04867 10.4736,-5.92855 10.4736,-8.6792 C10.4736,-10.6649 10.2295,-12.2986 9.74121,-13.5803 C9.25293,-14.8621 8.30485,-15.5029 6.89697,-15.5029 C5.60303,-15.5029 4.65698,-14.8946 4.05884,-13.678 C3.46069,-12.4613 3.16162,-10.6689 3.16162,-8.30078 C3.16162,-6.51855 3.35286,-5.08626 3.73535,-4.00391 C4.32129,-2.35189 5.32227,-1.52588 6.73828,-1.52588 "/>
</g>

<g fill="#212121" fill-opacity="1" stroke="none" transform="matrix(0.5,0,0,0.5,184.929,106.286)"
font-family=".AppleSystemUIFont" font-size="13" font-weight="400" font-style="normal" 
>
<path vector-effect="none" fill-rule="evenodd" d="M3.08838,-4.45557 C3.23486,-3.20231 3.81673,-2.33561 4.83398,-1.85547 C5.35482,-1.61133 5.95703,-1.48926 6.64063,-1.48926 C7.94271,-1.48926 8.90706,-1.9043 9.53369,-2.73438 C10.1603,-3.56445 10.4736,-4.48405 10.4736,-5.49316 C10.4736,-6.71387 10.1013,-7.65788 9.35669,-8.3252 C8.61206,-8.99251 7.71891,-9.32617 6.67725,-9.32617 C5.92041,-9.32617 5.2714,-9.17969 4.73022,-8.88672 C4.18905,-8.59375 3.72721,-8.18685 3.34473,-7.66602 L1.44043,-7.77588 L2.771,-17.1875 L11.853,-17.1875 L11.853,-15.0635 L4.41895,-15.0635 L3.67432,-10.2051 C4.08122,-10.5143 4.46777,-10.7463 4.83398,-10.9009 C5.48503,-11.1694 6.23779,-11.3037 7.09229,-11.3037 C8.69548,-11.3037 10.0545,-10.7869 11.1694,-9.75342 C12.2843,-8.71989 12.8418,-7.40967 12.8418,-5.82275 C12.8418,-4.17074 12.3311,-2.71403 11.3098,-1.45264 C10.2885,-0.191243 8.65885,0.439453 6.4209,0.439453 C4.99674,0.439453 3.73739,0.0386556 2.64282,-0.762939 C1.54826,-1.56453 0.935872,-2.79541 0.805664,-4.45557 L3.08838,-4.45557"/>
</g>

<g fill="#212121" fill-opacity="1" stroke="none" transform="matrix(0.5,0,0,0.5,177.929,56.1025)"
font-family=".AppleSystemUIFont" font-size="13" font-weight="400" font-style="normal" 
>
<path vector-effect="none" fill-rule="evenodd" d="M2.39258,-12.3779 L2.39258,-14.0625 C3.97949,-14.2171 5.08626,-14.4755 5.71289,-14.8376 C6.33952,-15.1998 6.80745,-16.0563 7.1167,-17.4072 L8.8501,-17.4072 L8.8501,0 L6.50635,0 L6.50635,-12.3779 L2.39258,-12.3779 M20.6533,-17.4805 C22.9157,-17.4805 24.5514,-16.5487 25.5605,-14.6851 C26.3418,-13.2446 26.7324,-11.2712 26.7324,-8.76465 C26.7324,-6.38835 26.3784,-4.42301 25.6704,-2.86865 C24.645,-0.638835 22.9686,0.476074 20.6411,0.476074 C18.5415,0.476074 16.979,-0.435384 15.9536,-2.2583 C15.0991,-3.78011 14.6719,-5.82275 14.6719,-8.38623 C14.6719,-10.3719 14.9282,-12.0768 15.4409,-13.501 C16.4012,-16.154 18.1387,-17.4805 20.6533,-17.4805 M20.6289,-1.52588 C21.7682,-1.52588 22.6756,-2.03044 23.3511,-3.03955 C24.0265,-4.04867 24.3643,-5.92855 24.3643,-8.6792 C24.3643,-10.6649 24.1201,-12.2986 23.6318,-13.5803 C23.1436,-14.8621 22.1955,-15.5029 20.7876,-15.5029 C19.4937,-15.5029 18.5476,-14.8946 17.9495,-13.678 C17.3513,-12.4613 17.0522,-10.6689 17.0522,-8.30078 C17.0522,-6.51855 17.2435,-5.08626 17.626,-4.00391 C18.2119,-2.35189 19.2129,-1.52588 20.6289,-1.52588 "/>
</g>

<g fill="#212121" fill-opacity="1" stroke="none" transform="matrix(0.5,0,0,0.5,228.357,11.5)"
font-family=".AppleSystemUIFont" font-size="13" font-weight="400" font-style="normal" 
>
<path vector-effect="none" fill-rule="evenodd" d="M3.77051,-6.24902 C3.83203,-5.15039 4.09131,-4.2583 4.54834,-3.57275 C5.41846,-2.28955 6.95215,-1.64795 9.14941,-1.64795 C10.1338,-1.64795 11.0303,-1.78857 11.8389,-2.06982 C13.4033,-2.61475 14.1855,-3.59033 14.1855,-4.99658 C14.1855,-6.05127 13.856,-6.80273 13.1968,-7.25098 C12.5288,-7.69043 11.4829,-8.07275 10.0591,-8.39795 L7.43555,-8.99121 C5.72168,-9.37793 4.50879,-9.8042 3.79688,-10.27 C2.56641,-11.0786 1.95117,-12.2871 1.95117,-13.8955 C1.95117,-15.6357 2.55322,-17.064 3.75732,-18.1802 C4.96143,-19.2964 6.6665,-19.8545 8.87256,-19.8545 C10.9028,-19.8545 12.6277,-19.3645 14.0471,-18.3845 C15.4666,-17.4045 16.1763,-15.8379 16.1763,-13.6846 L13.7109,-13.6846 C13.5791,-14.7217 13.2979,-15.5171 12.8672,-16.0708 C12.0674,-17.0815 10.7095,-17.5869 8.79346,-17.5869 C7.24658,-17.5869 6.13477,-17.2617 5.45801,-16.6113 C4.78125,-15.9609 4.44287,-15.2051 4.44287,-14.3438 C4.44287,-13.3945 4.83838,-12.7002 5.62939,-12.2607 C6.14795,-11.9795 7.32129,-11.6279 9.14941,-11.2061 L11.8652,-10.5864 C13.1748,-10.2876 14.1855,-9.87891 14.8975,-9.36035 C16.1279,-8.45508 16.7432,-7.14111 16.7432,-5.41846 C16.7432,-3.27393 15.9631,-1.74023 14.4031,-0.817383 C12.843,0.105469 11.0303,0.566895 8.96484,0.566895 C6.55664,0.566895 4.67139,-0.0483398 3.30908,-1.27881 C1.94678,-2.50049 1.27881,-4.15723 1.30518,-6.24902 L3.77051,-6.24902 M20.3071,-19.3667 L33.7412,-19.3667 L33.7412,-16.9937 L22.9307,-16.9937 L22.9307,-11.1138 L32.436,-11.1138 L32.436,-8.80664 L22.9307,-8.80664 L22.9307,0 L20.3071,0 L20.3071,-19.3667 M45.0127,-7.93652 L42.0728,-16.4927 L38.9482,-7.93652 L45.0127,-7.93652 M40.7017,-19.3667 L43.668,-19.3667 L50.6948,0 L47.8208,0 L45.8564,-5.80078 L38.1968,-5.80078 L36.1006,0 L33.4111,0 L40.7017,-19.3667 M67.4619,-19.894 C70.8809,-19.894 73.4121,-18.7954 75.0557,-16.5981 C76.3389,-14.8843 76.9805,-12.6914 76.9805,-10.0195 C76.9805,-7.12793 76.2466,-4.72412 74.7788,-2.80811 C73.0562,-0.558105 70.5996,0.566895 67.4092,0.566895 C64.4297,0.566895 62.0874,-0.41748 60.3823,-2.38623 C58.8618,-4.28467 58.1016,-6.68408 58.1016,-9.58447 C58.1016,-12.2036 58.752,-14.4448 60.0527,-16.3081 C61.7227,-18.6987 64.1924,-19.894 67.4619,-19.894 M67.7256,-1.77979 C70.0371,-1.77979 71.7092,-2.60815 72.7419,-4.26489 C73.7747,-5.92163 74.291,-7.82666 74.291,-9.97998 C74.291,-12.2563 73.6956,-14.0889 72.5046,-15.4775 C71.3137,-16.8662 69.6855,-17.5605 67.6201,-17.5605 C65.6162,-17.5605 63.9814,-16.8728 62.7158,-15.4973 C61.4502,-14.1218 60.8174,-12.0938 60.8174,-9.41309 C60.8174,-7.26855 61.3601,-5.46021 62.4456,-3.98804 C63.531,-2.51587 65.291,-1.77979 67.7256,-1.77979 M79.7871,-14.1196 L82.0415,-14.1196 L82.0415,-12.1157 C82.7095,-12.9419 83.417,-13.5352 84.1641,-13.8955 C84.9111,-14.2559 85.7417,-14.436 86.6558,-14.436 C88.6597,-14.436 90.0132,-13.7373 90.7163,-12.3398 C91.103,-11.5752 91.2964,-10.481 91.2964,-9.05713 L91.2964,0 L88.8838,0 L88.8838,-8.89893 C88.8838,-9.76025 88.7563,-10.4546 88.5015,-10.9819 C88.0796,-11.8608 87.3149,-12.3003 86.2075,-12.3003 C85.645,-12.3003 85.1836,-12.2432 84.8232,-12.1289 C84.1729,-11.9355 83.6016,-11.5488 83.1094,-10.9688 C82.7139,-10.5029 82.4568,-10.0217 82.3381,-9.52515 C82.2195,-9.02856 82.1602,-8.31885 82.1602,-7.396 L82.1602,0 L79.7871,0 L79.7871,-14.1196 M94.8687,-19.3667 L97.2417,-19.3667 L97.2417,0 L94.8687,0 L94.8687,-19.3667 M109.607,-14.1196 L112.23,-14.1196 C111.896,-13.2144 111.154,-11.1489 110.002,-7.92334 C109.141,-5.49756 108.42,-3.52002 107.84,-1.99072 C106.469,1.61279 105.502,3.81006 104.94,4.60107 C104.377,5.39209 103.411,5.7876 102.04,5.7876 C101.706,5.7876 101.448,5.77441 101.268,5.74805 C101.088,5.72168 100.866,5.67334 100.603,5.60303 L100.603,3.44092 C101.016,3.55518 101.314,3.62549 101.499,3.65186 C101.684,3.67822 101.846,3.69141 101.987,3.69141 C102.426,3.69141 102.749,3.6189 102.956,3.47388 C103.162,3.32886 103.336,3.15088 103.477,2.93994 C103.521,2.86963 103.679,2.50928 103.951,1.85889 C104.224,1.2085 104.421,0.725098 104.544,0.408691 L99.3237,-14.1196 L102.013,-14.1196 L105.797,-2.62354 L109.607,-14.1196"/>
</g>

<g fill="#1a4de6" fill-opacity="1" stroke="none" transform="matrix(5e-05,0,0,5e-05,-67.6429,-2.78125)"
font-family=".AppleSystemUIFont" font-size="13" font-weight="400" font-style="normal" 
>
<path vector-effect="none" fill-rule="evenodd" d="M6.338e+06,3.12e+06 L6.436e+06,3.12e+06 L6.436e+06,2.91927e+06 L6.436e+06,2.71853e+06 L6.436e+06,2.5178e+06 L6.338e+06,2.5178e+06 L6.338e+06,2.71853e+06 L6.338e+06,2.91927e+06 L6.338e+06,3.12e+06"/>
</g>

<g fill="#576bc3" fill-opacity="1" stroke="none" transform="matrix(5e-05,0,0,5e-05,-67.6429,-2.78125)"
font-family=".AppleSystemUIFont" font-size="13" font-weight="400" font-style="normal" 
>
<path vector-effect="none" fill-rule="evenodd" d="M6.338e+06,2.5178e+06 L6.436e+06,2.5178e+06 L6.436e+06,2.31707e+06 L6.338e+06,2.31707e+06 L6.338e+06,2.5178e+06"/>
</g>

<g fill="#8d7398" fill-opacity="1" stroke="none" transform="matrix(5e-05,0,0,5e-05,-67.6429,-2.78125)"
font-family=".AppleSystemUIFont" font-size="13" font-weight="400" font-style="normal" 
>
<path vector-effect="none" fill-rule="evenodd" d="M6.338e+06,2.31707e+06 L6.436e+06,2.31707e+06 L6.436e+06,2.11634e+06 L6.338e+06,2.11634e+06 L6.338e+06,2.31707e+06"/>
</g>

<g fill="#e63326" fill-opacity="1" stroke="none" transform="matrix(5e-05,0,0,5e-05,-67.6429,-2.78125)"
font-family=".AppleSystemUIFont" font-size="13" font-weight="400" font-style="normal" 
>
<path vector-effect="none" fill-rule="evenodd" d="M6.338e+06,2.11634e+06 L6.436e+06,2.11634e+06 L6.436e+06,1.9156e+06 L6.338e+06,1.9156e+06 L6.338e+06,2.11634e+06"/>
</g>

<g fill="#576bc3" fill-opacity="1" stroke="none" transform="matrix(5e-05,0,0,5e-05,-67.6429,-2.78125)"
font-family=".AppleSystemUIFont" font-size="13" font-weight="400" font-style="normal" 
>
<path vector-effect="none" fill-rule="evenodd" d="M6.436e+06,3.12e+06 L6.534e+06,3.12e+06 L6.534e+06,2.91927e+06 L6.436e+06,2.91927e+06 L6.436e+06,3.12e+06"/>
</g>

<g fill="#1a4de6" fill-opacity="1" stroke="none" transform="matrix(5e-05,0,0,5e-05,-67.6429,-2.78125)"
font-family=".AppleSystemUIFont" font-size="13" font-weight="400" font-style="normal" 
>
<path vector-effect="none" fill-rule="evenodd" d="M6.534e+06,3.12e+06 L6.632e+06,3.12e+06 L6.632e+06,2.91927e+06 L6.534e+06,2.91927e+06 L6.534e+06,3.12e+06"/>
</g>

<g fill="#576bc3" fill-opacity="1" stroke="none" transform="matrix(5e-05,0,0,5e-05,-67.6429,-2.78125)"
font-family=".AppleSystemUIFont" font-size="13" font-weight="400" font-style="normal" 
>
<path vector-effect="none" fill-rule="evenodd" d="M6.534e+06,2.91927e+06 L6.632e+06,2.91927e+06 L6.632e+06,2.71853e+06 L6.632e+06,2.5178e+06 L6.534e+06,2.5178e+06 L6.534e+06,2.71853e+06 L6.534e+06,2.91927e+06"/>
</g>

<g fill="#bc6165" fill-opacity="1" stroke="none" transform="matrix(5e-05,0,0,5e-05,-67.6429,-2.78125)"
font-family=".AppleSystemUIFont" font-size="13" font-weight="400" font-style="normal" 
>
<path vector-effect="none" fill-rule="evenodd" d="M6.534e+06,2.5178e+06 L6.632e+06,2.5178e+06 L6.632e+06,2.31707e+06 L6.534e+06,2.31707e+06 L6.534e+06,2.5178e+06"/>
</g>

<g fill="#e63326" fill-opacity="1" stroke="none" transform="matrix(5e-05,0,0,5e-05,-67.6429,-2.78125)"
font-family=".AppleSystemUIFont" font-size="13" font-weight="400" font-style="normal" 
>
<path vector-effect="none" fill-rule="evenodd" d="M6.534e+06,2.31707e+06 L6.632e+06,2.31707e+06 L6.632e+06,2.11634e+06 L6.534e+06,2.11634e+06 L6.534e+06,2.31707e+06"/>
</g>

<g fill="#1a4de6" fill-opacity="1" stroke="none" transform="matrix(5e-05,0,0,5e-05,-67.6429,-2.78125)"
font-family=".AppleSystemUIFont" font-size="13" font-weight="400" font-style="normal" 
>
<path vector-effect="none" fill-rule="evenodd" d="M6.632e+06,3.12e+06 L6.73e+06,3.12e+06 L6.73e+06,2.91927e+06 L6.632e+06,2.91927e+06 L6.632e+06,3.12e+06"/>
</g>

<g fill="#576bc3" fill-opacity="1" stroke="none" transform="matrix(5e-05,0,0,5e-05,-67.6429,-2.78125)"
font-family=".AppleSystemUIFont" font-size="13" font-weight="400" font-style="normal" 
>
<path vector-effect="none" fill-rule="evenodd" d="M6.632e+06,2.91927e+06 L6.73e+06,2.91927e+06 L6.73e+06,2.71853e+06 L6.632e+06,2.71853e+06 L6.632e+06,2.91927e+06"/>
</g>

<g fill="#8d7398" fill-opacity="1" stroke="none" transform="matrix(5e-05,0,0,5e-05,-67.6429,-2.78125)"
font-family=".AppleSystemUIFont" font-size="13" font-weight="400" font-style="normal" 
>
<path vector-effect="none" fill-rule="evenodd" d="M6.632e+06,2.71853e+06 L6.73e+06,2.71853e+06 L6.73e+06,2.5178e+06 L6.632e+06,2.5178e+06 L6.632e+06,2.71853e+06"/>
</g>

<g fill="#e63326" fill-opacity="1" stroke="none" transform="matrix(5e-05,0,0,5e-05,-67.6429,-2.78125)"
font-family=".AppleSystemUIFont" font-size="13" font-weight="400" font-style="normal" 
>
<path vector-effect="none" fill-rule="evenodd" d="M6.632e+06,2.5178e+06 L6.73e+06,2.5178e+06 L6.73e+06,2.31707e+06 L6.632e+06,2.31707e+06 L6.632e+06,2.5178e+06"/>
</g>

<g fill="#8d7398" fill-opacity="1" stroke="none" transform="matrix(5e-05,0,0,5e-05,-67.6429,-2.78125)"
font-family=".AppleSystemUIFont" font-size="13" font-weight="400" font-style="normal" 
>
<path vector-effect="none" fill-rule="evenodd" d="M6.73e+06,3.12e+06 L6.828e+06,3.12e+06 L6.828e+06,2.91927e+06 L6.73e+06,2.91927e+06 L6.73e+06,3.12e+06"/>
</g>

<g fill="#bc6165" fill-opacity="1" stroke="none" transform="matrix(5e-05,0,0,5e-05,-67.6429,-2.78125)"
font-family=".AppleSystemUIFont" font-size="13" font-weight="400" font-style="normal" 
>
<path vector-effect="none" fill-rule="evenodd" d="M6.73e+06,2.91927e+06 L6.828e+06,2.91927e+06 L6.828e+06,3.12e+06 L6.926e+06,3.12e+06 L6.926e+06,2.91927e+06 L6.926e+06,2.71853e+06 L6.828e+06,2.71853e+06 L6.73e+06,2.71853e+06 L6.73e+06,2.91927e+06"/>
</g>

<g fill="#e63326" fill-opacity="1" stroke="none" transform="matrix(5e-05,0,0,5e-05,-67.6429,-2.78125)"
font-family=".AppleSystemUIFont" font-size="13" font-weight="400" font-style="normal" 
>
<path vector-effect="none" fill-rule="evenodd" d="M6.828e+06,2.71853e+06 L6.926e+06,2.71853e+06 L6.926e+06,2.5178e+06 L6.828e+06,2.5178e+06 L6.828e+06,2.71853e+06"/>
</g>

<g fill="#e63326" fill-opacity="1" stroke="none" transform="matrix(5e-05,0,0,5e-05,-67.6429,-2.78125)"
font-family=".AppleSystemUIFont" font-size="13" font-weight="400" font-style="normal" 
>
<path vector-effect="none" fill-rule="evenodd" d="M6.926e+06,3.12e+06 L7.024e+06,3.12e+06 L7.024e+06,2.91927e+06 L6.926e+06,2.91927e+06 L6.926e+06,3.12e+06"/>
</g>

<g fill="#8d7398" fill-opacity="1" stroke="none" transform="matrix(5e-05,0,0,5e-05,-67.6429,-2.78125)"
font-family=".AppleSystemUIFont" font-size="13" font-weight="400" font-style="normal" 
>
<path vector-effect="none" fill-rule="evenodd" d="M7.024e+06,3.12e+06 L7.122e+06,3.12e+06 L7.122e+06,2.91927e+06 L7.122e+06,2.71853e+06 L7.024e+06,2.71853e+06 L7.024e+06,2.91927e+06 L7.024e+06,3.12e+06"/>
</g>

<g fill="#bc6165" fill-opacity="1" stroke="none" transform="matrix(5e-05,0,0,5e-05,-67.6429,-2.78125)"
font-family=".AppleSystemUIFont" font-size="13" font-weight="400" font-style="normal" 
>
<path vector-effect="none" fill-rule="evenodd" d="M7.122e+06,3.12e+06 L7.22e+06,3.12e+06 L7.22e+06,2.91927e+06 L7.122e+06,2.91927e+06 L7.122e+06,3.12e+06"/>
</g>

<g fill="#000000" fill-opacity="0.701961" stroke="#000000" stroke-opacity="0.701961" stroke-dasharray="10,6" stroke-dashoffset="0" stroke-width="4" stroke-linecap="butt" stroke-linejoin="round" transform="matrix(0.5,0,0,0.5,-67.6429,-2.78125)"
font-family=".AppleSystemUIFont" font-size="13" font-weight="400" font-style="normal" 
>
<polyline fill="none" vector-effect="none" points="648.5,312 648.5,38 " />
</g>

<g fill="#ffffff" fill-opacity="1" stroke="none" transform="matrix(5e-05,0,0,5e-05,-67.6429,-2.78125)"
font-family=".AppleSystemUIFont" font-size="13" font-weight="400" font-style="normal" 
>
<path vector-effect="none" fill-rule="evenodd" d="M8.49e+06,380000 L8.49e+06,3.12e+06 L1.094e+07,3.12e+06 L1.094e+07,380000 L8.49e+06,380000"/>
</g>

<g fill="#212121" fill-opacity="1" stroke="none" transform="matrix(0.5,0,0,0.5,411.357,182.219)"
font-family=".AppleSystemUIFont" font-size="13" font-weight="400" font-style="normal" 
>
<path vector-effect="none" fill-rule="evenodd" d="M1.37109,-0.461426 C1.37109,-0.725098 1.48975,-0.975586 1.72705,-1.21289 L9.3208,-8.66162 L6.64453,-16.1763 C6.43359,-16.7476 6.21167,-17.2002 5.97876,-17.5342 C5.74585,-17.8682 5.40967,-18.0352 4.97021,-18.0352 C4.76807,-18.0352 4.66699,-18.1538 4.66699,-18.3911 C4.68457,-18.4966 4.72852,-18.5801 4.79883,-18.6416 C4.86914,-18.7031 4.96143,-18.7339 5.07568,-18.7339 C6.96533,-18.7339 8.10791,-18.1758 8.50342,-17.0596 L13.9878,-1.75342 C14.2251,-0.98877 14.4668,-0.474609 14.7129,-0.210938 C14.8008,-0.0791016 14.8447,0.00878906 14.8447,0.0527344 C14.8447,0.219727 14.7744,0.303223 14.6338,0.303223 L13.1704,0.303223 C12.7222,0.171387 12.3662,-0.219727 12.1025,-0.870117 L9.63721,-7.77832 L3.11133,-0.105469 C2.78613,0.202148 2.49609,0.355957 2.24121,0.355957 C2.0127,0.355957 1.81055,0.276855 1.63477,0.118652 C1.45898,-0.0395508 1.37109,-0.23291 1.37109,-0.461426 "/>
</g>

<g fill="#212121" fill-opacity="1" stroke="none" transform="matrix(0.5,0,0,0.5,419.357,188.719)"
font-family=".AppleSystemUIFont" font-size="13" font-weight="400" font-style="normal" 
>
<path vector-effect="none" fill-rule="evenodd" d="M2.10547,-10.8926 L2.10547,-12.375 C3.50195,-12.5111 4.47591,-12.7384 5.02734,-13.0571 C5.57878,-13.3758 5.99056,-14.1296 6.2627,-15.3184 L7.78809,-15.3184 L7.78809,0 L5.72559,0 L5.72559,-10.8926 L2.10547,-10.8926"/>
</g>

<g fill="#212121" fill-opacity="1" stroke="#212121" stroke-opacity="1" stroke-width="4" stroke-linecap="square" stroke-linejoin="round" transform="matrix(0.5,0,0,0.5,-67.6429,-2.78125)"
font-family=".AppleSystemUIFont" font-size="13" font-weight="400" font-style="normal" 
>
<polyline fill="none" vector-effect="none" points="849,312 1094,312 " />
<polyline fill="none" vector-effect="none" points="889.833,312 889.833,309.26 " />
<polyline fill="none" vector-effect="none" points="971.5,312 971.5,309.26 " />
<polyline fill="none" vector-effect="none" points="1053.17,312 1053.17,309.26 " />
</g>

<g fill="#212121" fill-opacity="1" stroke="none" transform="matrix(0.5,0,0,0.5,371.774,166.147)"
font-family=".AppleSystemUIFont" font-size="13" font-weight="400" font-style="normal" 
>
<path vector-effect="none" fill-rule="evenodd" d="M1.0376,-8.09326 L7.16553,-8.09326 L7.16553,-5.83496 L1.0376,-5.83496 L1.0376,-8.09326 M10.7051,-12.3779 L10.7051,-14.0625 C12.292,-14.2171 13.3988,-14.4755 14.0254,-14.8376 C14.652,-15.1998 15.12,-16.0563 15.4292,-17.4072 L17.1626,-17.4072 L17.1626,0 L14.8188,0 L14.8188,-12.3779 L10.7051,-12.3779"/>
</g>

<g fill="#212121" fill-opacity="1" stroke="none" transform="matrix(0.5,0,0,0.5,414.607,166.147)"
font-family=".AppleSystemUIFont" font-size="13" font-weight="400" font-style="normal" 
>
<path vector-effect="none" fill-rule="evenodd" d="M6.7627,-17.4805 C9.02507,-17.4805 10.6608,-16.5487 11.6699,-14.6851 C12.4512,-13.2446 12.8418,-11.2712 12.8418,-8.76465 C12.8418,-6.38835 12.4878,-4.42301 11.7798,-2.86865 C10.7544,-0.638835 9.07796,0.476074 6.75049,0.476074 C4.65088,0.476074 3.08838,-0.435384 2.06299,-2.2583 C1.2085,-3.78011 0.78125,-5.82275 0.78125,-8.38623 C0.78125,-10.3719 1.0376,-12.0768 1.55029,-13.501 C2.51058,-16.154 4.24805,-17.4805 6.7627,-17.4805 M6.73828,-1.52588 C7.8776,-1.52588 8.78499,-2.03044 9.46045,-3.03955 C10.1359,-4.04867 10.4736,-5.92855 10.4736,-8.6792 C10.4736,-10.6649 10.2295,-12.2986 9.74121,-13.5803 C9.25293,-14.8621 8.30485,-15.5029 6.89697,-15.5029 C5.60303,-15.5029 4.65698,-14.8946 4.05884,-13.678 C3.46069,-12.4613 3.16162,-10.6689 3.16162,-8.30078 C3.16162,-6.51855 3.35286,-5.08626 3.73535,-4.00391 C4.32129,-2.35189 5.32227,-1.52588 6.73828,-1.52588 "/>
</g>

<g fill="#212121" fill-opacity="1" stroke="none" transform="matrix(0.5,0,0,0.5,455.44,166.147)"
font-family=".AppleSystemUIFont" font-size="13" font-weight="400" font-style="normal" 
>
<path vector-effect="none" fill-rule="evenodd" d="M2.39258,-12.3779 L2.39258,-14.0625 C3.97949,-14.2171 5.08626,-14.4755 5.71289,-14.8376 C6.33952,-15.1998 6.80745,-16.0563 7.1167,-17.4072 L8.8501,-17.4072 L8.8501,0 L6.50635,0 L6.50635,-12.3779 L2.39258,-12.3779"/>
</g>

<g fill="#212121" fill-opacity="1" stroke="#212121" stroke-opacity="1" stroke-width="4" stroke-linecap="square" stroke-linejoin="round" transform="matrix(0.5,0,0,0.5,-67.6429,-2.78125)"
font-family=".AppleSystemUIFont" font-size="13" font-weight="400" font-style="normal" 
>
<polyline fill="none" vector-effect="none" points="849,312 849,38 " />
<polyline fill="none" vector-effect="none" points="849,312 851.74,312 " />
<polyline fill="none" vector-effect="none" points="849,211.634 851.74,211.634 " />
<polyline fill="none" vector-effect="none" points="849,111.267 851.74,111.267 " />
</g>

<g fill="#212121" fill-opacity="1" stroke="none" transform="matrix(0.5,0,0,0.5,346.429,156.469)"
font-family=".AppleSystemUIFont" font-size="13" font-weight="400" font-style="normal" 
>
<path vector-effect="none" fill-rule="evenodd" d="M6.7627,-17.4805 C9.02507,-17.4805 10.6608,-16.5487 11.6699,-14.6851 C12.4512,-13.2446 12.8418,-11.2712 12.8418,-8.76465 C12.8418,-6.38835 12.4878,-4.42301 11.7798,-2.86865 C10.7544,-0.638835 9.07796,0.476074 6.75049,0.476074 C4.65088,0.476074 3.08838,-0.435384 2.06299,-2.2583 C1.2085,-3.78011 0.78125,-5.82275 0.78125,-8.38623 C0.78125,-10.3719 1.0376,-12.0768 1.55029,-13.501 C2.51058,-16.154 4.24805,-17.4805 6.7627,-17.4805 M6.73828,-1.52588 C7.8776,-1.52588 8.78499,-2.03044 9.46045,-3.03955 C10.1359,-4.04867 10.4736,-5.92855 10.4736,-8.6792 C10.4736,-10.6649 10.2295,-12.2986 9.74121,-13.5803 C9.25293,-14.8621 8.30485,-15.5029 6.89697,-15.5029 C5.60303,-15.5029 4.65698,-14.8946 4.05884,-13.678 C3.46069,-12.4613 3.16162,-10.6689 3.16162,-8.30078 C3.16162,-6.51855 3.35286,-5.08626 3.73535,-4.00391 C4.32129,-2.35189 5.32227,-1.52588 6.73828,-1.52588 "/>
</g>

<g fill="#212121" fill-opacity="1" stroke="none" transform="matrix(0.5,0,0,0.5,346.429,106.286)"
font-family=".AppleSystemUIFont" font-size="13" font-weight="400" font-style="normal" 
>
<path vector-effect="none" fill-rule="evenodd" d="M3.08838,-4.45557 C3.23486,-3.20231 3.81673,-2.33561 4.83398,-1.85547 C5.35482,-1.61133 5.95703,-1.48926 6.64063,-1.48926 C7.94271,-1.48926 8.90706,-1.9043 9.53369,-2.73438 C10.1603,-3.56445 10.4736,-4.48405 10.4736,-5.49316 C10.4736,-6.71387 10.1013,-7.65788 9.35669,-8.3252 C8.61206,-8.99251 7.71891,-9.32617 6.67725,-9.32617 C5.92041,-9.32617 5.2714,-9.17969 4.73022,-8.88672 C4.18905,-8.59375 3.72721,-8.18685 3.34473,-7.66602 L1.44043,-7.77588 L2.771,-17.1875 L11.853,-17.1875 L11.853,-15.0635 L4.41895,-15.0635 L3.67432,-10.2051 C4.08122,-10.5143 4.46777,-10.7463 4.83398,-10.9009 C5.48503,-11.1694 6.23779,-11.3037 7.09229,-11.3037 C8.69548,-11.3037 10.0545,-10.7869 11.1694,-9.75342 C12.2843,-8.71989 12.8418,-7.40967 12.8418,-5.82275 C12.8418,-4.17074 12.3311,-2.71403 11.3098,-1.45264 C10.2885,-0.191243 8.65885,0.439453 6.4209,0.439453 C4.99674,0.439453 3.73739,0.0386556 2.64282,-0.762939 C1.54826,-1.56453 0.935872,-2.79541 0.805664,-4.45557 L3.08838,-4.45557"/>
</g>

<g fill="#212121" fill-opacity="1" stroke="none" transform="matrix(0.5,0,0,0.5,339.429,56.1025)"
font-family=".AppleSystemUIFont" font-size="13" font-weight="400" font-style="normal" 
>
<path vector-effect="none" fill-rule="evenodd" d="M2.39258,-12.3779 L2.39258,-14.0625 C3.97949,-14.2171 5.08626,-14.4755 5.71289,-14.8376 C6.33952,-15.1998 6.80745,-16.0563 7.1167,-17.4072 L8.8501,-17.4072 L8.8501,0 L6.50635,0 L6.50635,-12.3779 L2.39258,-12.3779 M20.6533,-17.4805 C22.9157,-17.4805 24.5514,-16.5487 25.5605,-14.6851 C26.3418,-13.2446 26.7324,-11.2712 26.7324,-8.76465 C26.7324,-6.38835 26.3784,-4.42301 25.6704,-2.86865 C24.645,-0.638835 22.9686,0.476074 20.6411,0.476074 C18.5415,0.476074 16.979,-0.435384 15.9536,-2.2583 C15.0991,-3.78011 14.6719,-5.82275 14.6719,-8.38623 C14.6719,-10.3719 14.9282,-12.0768 15.4409,-13.501 C16.4012,-16.154 18.1387,-17.4805 20.6533,-17.4805 M20.6289,-1.52588 C21.7682,-1.52588 22.6756,-2.03044 23.3511,-3.03955 C24.0265,-4.04867 24.3643,-5.92855 24.3643,-8.6792 C24.3643,-10.6649 24.1201,-12.2986 23.6318,-13.5803 C23.1436,-14.8621 22.1955,-15.5029 20.7876,-15.5029 C19.4937,-15.5029 18.5476,-14.8946 17.9495,-13.678 C17.3513,-12.4613 17.0522,-10.6689 17.0522,-8.30078 C17.0522,-6.51855 17.2435,-5.08626 17.626,-4.00391 C18.2119,-2.35189 19.2129,-1.52588 20.6289,-1.52588 "/>
</g>

<g fill="#212121" fill-opacity="1" stroke="none" transform="matrix(0.5,0,0,0.5,388.857,11.5)"
font-family=".AppleSystemUIFont" font-size="13" font-weight="400" font-style="normal" 
>
<path vector-effect="none" fill-rule="evenodd" d="M3.77051,-6.24902 C3.83203,-5.15039 4.09131,-4.2583 4.54834,-3.57275 C5.41846,-2.28955 6.95215,-1.64795 9.14941,-1.64795 C10.1338,-1.64795 11.0303,-1.78857 11.8389,-2.06982 C13.4033,-2.61475 14.1855,-3.59033 14.1855,-4.99658 C14.1855,-6.05127 13.856,-6.80273 13.1968,-7.25098 C12.5288,-7.69043 11.4829,-8.07275 10.0591,-8.39795 L7.43555,-8.99121 C5.72168,-9.37793 4.50879,-9.8042 3.79688,-10.27 C2.56641,-11.0786 1.95117,-12.2871 1.95117,-13.8955 C1.95117,-15.6357 2.55322,-17.064 3.75732,-18.1802 C4.96143,-19.2964 6.6665,-19.8545 8.87256,-19.8545 C10.9028,-19.8545 12.6277,-19.3645 14.0471,-18.3845 C15.4666,-17.4045 16.1763,-15.8379 16.1763,-13.6846 L13.7109,-13.6846 C13.5791,-14.7217 13.2979,-15.5171 12.8672,-16.0708 C12.0674,-17.0815 10.7095,-17.5869 8.79346,-17.5869 C7.24658,-17.5869 6.13477,-17.2617 5.45801,-16.6113 C4.78125,-15.9609 4.44287,-15.2051 4.44287,-14.3438 C4.44287,-13.3945 4.83838,-12.7002 5.62939,-12.2607 C6.14795,-11.9795 7.32129,-11.6279 9.14941,-11.2061 L11.8652,-10.5864 C13.1748,-10.2876 14.1855,-9.87891 14.8975,-9.36035 C16.1279,-8.45508 16.7432,-7.14111 16.7432,-5.41846 C16.7432,-3.27393 15.9631,-1.74023 14.4031,-0.817383 C12.843,0.105469 11.0303,0.566895 8.96484,0.566895 C6.55664,0.566895 4.67139,-0.0483398 3.30908,-1.27881 C1.94678,-2.50049 1.27881,-4.15723 1.30518,-6.24902 L3.77051,-6.24902 M34.1499,-19.3667 L34.1499,-17.0596 L27.624,-17.0596 L27.624,0 L24.9609,0 L24.9609,-17.0596 L18.4351,-17.0596 L18.4351,-19.3667 L34.1499,-19.3667 M43.9766,-2.24121 C44.8643,-2.24121 45.5938,-2.3335 46.165,-2.51807 C47.1846,-2.86084 48.0195,-3.52002 48.6699,-4.49561 C49.1885,-5.27783 49.562,-6.27979 49.7905,-7.50146 C49.9224,-8.23096 49.9883,-8.90771 49.9883,-9.53174 C49.9883,-11.9312 49.5115,-13.7944 48.5579,-15.1216 C47.6042,-16.4487 46.0684,-17.1123 43.9502,-17.1123 L39.2964,-17.1123 L39.2964,-2.24121 L43.9766,-2.24121 M36.6597,-19.3667 L44.5039,-19.3667 C47.167,-19.3667 49.2324,-18.4219 50.7002,-16.5322 C52.0098,-14.8271 52.6646,-12.6431 52.6646,-9.97998 C52.6646,-7.92334 52.2778,-6.06445 51.5044,-4.40332 C50.1421,-1.46777 47.7998,0 44.4775,0 L36.6597,0 L36.6597,-19.3667 M71.8838,-19.894 C75.3027,-19.894 77.834,-18.7954 79.4775,-16.5981 C80.7607,-14.8843 81.4023,-12.6914 81.4023,-10.0195 C81.4023,-7.12793 80.6685,-4.72412 79.2007,-2.80811 C77.478,-0.558105 75.0215,0.566895 71.8311,0.566895 C68.8516,0.566895 66.5093,-0.41748 64.8042,-2.38623 C63.2837,-4.28467 62.5234,-6.68408 62.5234,-9.58447 C62.5234,-12.2036 63.1738,-14.4448 64.4746,-16.3081 C66.1445,-18.6987 68.6143,-19.894 71.8838,-19.894 M72.1475,-1.77979 C74.459,-1.77979 76.1311,-2.60815 77.1638,-4.26489 C78.1965,-5.92163 78.7129,-7.82666 78.7129,-9.97998 C78.7129,-12.2563 78.1174,-14.0889 76.9265,-15.4775 C75.7356,-16.8662 74.1074,-17.5605 72.042,-17.5605 C70.0381,-17.5605 68.4033,-16.8728 67.1377,-15.4973 C65.8721,-14.1218 65.2393,-12.0938 65.2393,-9.41309 C65.2393,-7.26855 65.782,-5.46021 66.8674,-3.98804 C67.9529,-2.51587 69.7129,-1.77979 72.1475,-1.77979 M84.209,-14.1196 L86.4634,-14.1196 L86.4634,-12.1157 C87.1313,-12.9419 87.8389,-13.5352 88.5859,-13.8955 C89.333,-14.2559 90.1636,-14.436 91.0776,-14.436 C93.0815,-14.436 94.4351,-13.7373 95.1382,-12.3398 C95.5249,-11.5752 95.7183,-10.481 95.7183,-9.05713 L95.7183,0 L93.3057,0 L93.3057,-8.89893 C93.3057,-9.76025 93.1782,-10.4546 92.9233,-10.9819 C92.5015,-11.8608 91.7368,-12.3003 90.6294,-12.3003 C90.0669,-12.3003 89.6055,-12.2432 89.2451,-12.1289 C88.5947,-11.9355 88.0234,-11.5488 87.5313,-10.9688 C87.1357,-10.5029 86.8787,-10.0217 86.76,-9.52515 C86.6414,-9.02856 86.582,-8.31885 86.582,-7.396 L86.582,0 L84.209,0 L84.209,-14.1196 M99.2905,-19.3667 L101.664,-19.3667 L101.664,0 L99.2905,0 L99.2905,-19.3667 M114.029,-14.1196 L116.652,-14.1196 C116.318,-13.2144 115.576,-11.1489 114.424,-7.92334 C113.563,-5.49756 112.842,-3.52002 112.262,-1.99072 C110.891,1.61279 109.924,3.81006 109.362,4.60107 C108.799,5.39209 107.833,5.7876 106.461,5.7876 C106.127,5.7876 105.87,5.77441 105.69,5.74805 C105.51,5.72168 105.288,5.67334 105.024,5.60303 L105.024,3.44092 C105.438,3.55518 105.736,3.62549 105.921,3.65186 C106.105,3.67822 106.268,3.69141 106.409,3.69141 C106.848,3.69141 107.171,3.6189 107.378,3.47388 C107.584,3.32886 107.758,3.15088 107.898,2.93994 C107.942,2.86963 108.101,2.50928 108.373,1.85889 C108.646,1.2085 108.843,0.725098 108.966,0.408691 L103.746,-14.1196 L106.435,-14.1196 L110.219,-2.62354 L114.029,-14.1196"/>
</g>

<g fill="#8d7398" fill-opacity="1" stroke="none" transform="matrix(5e-05,0,0,5e-05,-67.6429,-2.78125)"
font-family=".AppleSystemUIFont" font-size="13" font-weight="400" font-style="normal" 
>
<path vector-effect="none" fill-rule="evenodd" d="M8.98e+06,3.12e+06 L9.078e+06,3.12e+06 L9.078e+06,2.91927e+06 L8.98e+06,2.91927e+06 L8.98e+06,3.12e+06"/>
</g>

<g fill="#1a4de6" fill-opacity="1" stroke="none" transform="matrix(5e-05,0,0,5e-05,-67.6429,-2.78125)"
font-family=".AppleSystemUIFont" font-size="13" font-weight="400" font-style="normal" 
>
<path vector-effect="none" fill-rule="evenodd" d="M9.078e+06,3.12e+06 L9.176e+06,3.12e+06 L9.176e+06,2.91927e+06 L9.078e+06,2.91927e+06 L9.078e+06,3.12e+06"/>
</g>

<g fill="#1a4de6" fill-opacity="1" stroke="none" transform="matrix(5e-05,0,0,5e-05,-67.6429,-2.78125)"
font-family=".AppleSystemUIFont" font-size="13" font-weight="400" font-style="normal" 
>
<path vector-effect="none" fill-rule="evenodd" d="M9.274e+06,3.12e+06 L9.372e+06,3.12e+06 L9.372e+06,2.91927e+06 L9.372e+06,2.71853e+06 L9.274e+06,2.71853e+06 L9.274e+06,2.91927e+06 L9.274e+06,3.12e+06"/>
</g>

<g fill="#576bc3" fill-opacity="1" stroke="none" transform="matrix(5e-05,0,0,5e-05,-67.6429,-2.78125)"
font-family=".AppleSystemUIFont" font-size="13" font-weight="400" font-style="normal" 
>
<path vector-effect="none" fill-rule="evenodd" d="M9.372e+06,3.12e+06 L9.47e+06,3.12e+06 L9.568e+06,3.12e+06 L9.568e+06,2.91927e+06 L9.47e+06,2.91927e+06 L9.372e+06,2.91927e+06 L9.372e+06,3.12e+06"/>
</g>

<g fill="#e63326" fill-opacity="1" stroke="none" transform="matrix(5e-05,0,0,5e-05,-67.6429,-2.78125)"
font-family=".AppleSystemUIFont" font-size="13" font-weight="400" font-style="normal" 
>
<path vector-effect="none" fill-rule="evenodd" d="M9.47e+06,2.91927e+06 L9.568e+06,2.91927e+06 L9.568e+06,2.71853e+06 L9.47e+06,2.71853e+06 L9.47e+06,2.91927e+06"/>
</g>

<g fill="#576bc3" fill-opacity="1" stroke="none" transform="matrix(5e-05,0,0,5e-05,-67.6429,-2.78125)"
font-family=".AppleSystemUIFont" font-size="13" font-weight="400" font-style="normal" 
>
<path vector-effect="none" fill-rule="evenodd" d="M9.568e+06,3.12e+06 L9.666e+06,3.12e+06 L9.666e+06,2.91927e+06 L9.568e+06,2.91927e+06 L9.568e+06,3.12e+06"/>
</g>

<g fill="#bc6165" fill-opacity="1" stroke="none" transform="matrix(5e-05,0,0,5e-05,-67.6429,-2.78125)"
font-family=".AppleSystemUIFont" font-size="13" font-weight="400" font-style="normal" 
>
<path vector-effect="none" fill-rule="evenodd" d="M9.568e+06,2.91927e+06 L9.666e+06,2.91927e+06 L9.666e+06,2.71853e+06 L9.568e+06,2.71853e+06 L9.568e+06,2.91927e+06"/>
</g>

<g fill="#e63326" fill-opacity="1" stroke="none" transform="matrix(5e-05,0,0,5e-05,-67.6429,-2.78125)"
font-family=".AppleSystemUIFont" font-size="13" font-weight="400" font-style="normal" 
>
<path vector-effect="none" fill-rule="evenodd" d="M9.568e+06,2.71853e+06 L9.666e+06,2.71853e+06 L9.666e+06,2.5178e+06 L9.568e+06,2.5178e+06 L9.568e+06,2.71853e+06"/>
</g>

<g fill="#1a4de6" fill-opacity="1" stroke="none" transform="matrix(5e-05,0,0,5e-05,-67.6429,-2.78125)"
font-family=".AppleSystemUIFont" font-size="13" font-weight="400" font-style="normal" 
>
<path vector-effect="none" fill-rule="evenodd" d="M9.666e+06,3.12e+06 L9.764e+06,3.12e+06 L9.764e+06,2.91927e+06 L9.666e+06,2.91927e+06 L9.666e+06,3.12e+06"/>
</g>

<g fill="#576bc3" fill-opacity="1" stroke="none" transform="matrix(5e-05,0,0,5e-05,-67.6429,-2.78125)"
font-family=".AppleSystemUIFont" font-size="13" font-weight="400" font-style="normal" 
>
<path vector-effect="none" fill-rule="evenodd" d="M9.666e+06,2.91927e+06 L9.764e+06,2.91927e+06 L9.764e+06,2.71853e+06 L9.666e+06,2.71853e+06 L9.666e+06,2.91927e+06"/>
</g>

<g fill="#8d7398" fill-opacity="1" stroke="none" transform="matrix(5e-05,0,0,5e-05,-67.6429,-2.78125)"
font-family=".AppleSystemUIFont" font-size="13" font-weight="400" font-style="normal" 
>
<path vector-effect="none" fill-rule="evenodd" d="M9.666e+06,2.71853e+06 L9.764e+06,2.71853e+06 L9.764e+06,2.5178e+06 L9.666e+06,2.5178e+06 L9.666e+06,2.71853e+06"/>
</g>

<g fill="#bc6165" fill-opacity="1" stroke="none" transform="matrix(5e-05,0,0,5e-05,-67.6429,-2.78125)"
font-family=".AppleSystemUIFont" font-size="13" font-weight="400" font-style="normal" 
>
<path vector-effect="none" fill-rule="evenodd" d="M9.666e+06,2.5178e+06 L9.764e+06,2.5178e+06 L9.764e+06,2.31707e+06 L9.764e+06,2.11634e+06 L9.666e+06,2.11634e+06 L9.666e+06,2.31707e+06 L9.666e+06,2.5178e+06"/>
</g>

<g fill="#1a4de6" fill-opacity="1" stroke="none" transform="matrix(5e-05,0,0,5e-05,-67.6429,-2.78125)"
font-family=".AppleSystemUIFont" font-size="13" font-weight="400" font-style="normal" 
>
<path vector-effect="none" fill-rule="evenodd" d="M9.764e+06,3.12e+06 L9.862e+06,3.12e+06 L9.862e+06,2.91927e+06 L9.764e+06,2.91927e+06 L9.764e+06,3.12e+06"/>
</g>

<g fill="#e63326" fill-opacity="1" stroke="none" transform="matrix(5e-05,0,0,5e-05,-67.6429,-2.78125)"
font-family=".AppleSystemUIFont" font-size="13" font-weight="400" font-style="normal" 
>
<path vector-effect="none" fill-rule="evenodd" d="M9.764e+06,2.91927e+06 L9.862e+06,2.91927e+06 L9.862e+06,2.71853e+06 L9.764e+06,2.71853e+06 L9.764e+06,2.91927e+06"/>
</g>

<g fill="#576bc3" fill-opacity="1" stroke="none" transform="matrix(5e-05,0,0,5e-05,-67.6429,-2.78125)"
font-family=".AppleSystemUIFont" font-size="13" font-weight="400" font-style="normal" 
>
<path vector-effect="none" fill-rule="evenodd" d="M9.862e+06,3.12e+06 L9.96e+06,3.12e+06 L9.96e+06,2.91927e+06 L9.862e+06,2.91927e+06 L9.862e+06,3.12e+06"/>
</g>

<g fill="#8d7398" fill-opacity="1" stroke="none" transform="matrix(5e-05,0,0,5e-05,-67.6429,-2.78125)"
font-family=".AppleSystemUIFont" font-size="13" font-weight="400" font-style="normal" 
>
<path vector-effect="none" fill-rule="evenodd" d="M9.862e+06,2.91927e+06 L9.96e+06,2.91927e+06 L9.96e+06,2.71853e+06 L9.862e+06,2.71853e+06 L9.862e+06,2.91927e+06"/>
</g>

<g fill="#bc6165" fill-opacity="1" stroke="none" transform="matrix(5e-05,0,0,5e-05,-67.6429,-2.78125)"
font-family=".AppleSystemUIFont" font-size="13" font-weight="400" font-style="normal" 
>
<path vector-effect="none" fill-rule="evenodd" d="M9.862e+06,2.71853e+06 L9.96e+06,2.71853e+06 L9.96e+06,2.5178e+06 L9.862e+06,2.5178e+06 L9.862e+06,2.71853e+06"/>
</g>

<g fill="#e63326" fill-opacity="1" stroke="none" transform="matrix(5e-05,0,0,5e-05,-67.6429,-2.78125)"
font-family=".AppleSystemUIFont" font-size="13" font-weight="400" font-style="normal" 
>
<path vector-effect="none" fill-rule="evenodd" d="M9.862e+06,2.5178e+06 L9.96e+06,2.5178e+06 L9.96e+06,2.31707e+06 L9.862e+06,2.31707e+06 L9.862e+06,2.5178e+06"/>
</g>

<g fill="#8d7398" fill-opacity="1" stroke="none" transform="matrix(5e-05,0,0,5e-05,-67.6429,-2.78125)"
font-family=".AppleSystemUIFont" font-size="13" font-weight="400" font-style="normal" 
>
<path vector-effect="none" fill-rule="evenodd" d="M9.96e+06,3.12e+06 L1.0058e+07,3.12e+06 L1.0058e+07,2.91927e+06 L1.0058e+07,2.71853e+06 L9.96e+06,2.71853e+06 L9.96e+06,2.91927e+06 L9.96e+06,3.12e+06"/>
</g>

<g fill="#bc6165" fill-opacity="1" stroke="none" transform="matrix(5e-05,0,0,5e-05,-67.6429,-2.78125)"
font-family=".AppleSystemUIFont" font-size="13" font-weight="400" font-style="normal" 
>
<path vector-effect="none" fill-rule="evenodd" d="M9.96e+06,2.71853e+06 L1.0058e+07,2.71853e+06 L1.0058e+07,2.5178e+06 L9.96e+06,2.5178e+06 L9.96e+06,2.71853e+06"/>
</g>

<g fill="#e63326" fill-opacity="1" stroke="none" transform="matrix(5e-05,0,0,5e-05,-67.6429,-2.78125)"
font-family=".AppleSystemUIFont" font-size="13" font-weight="400" font-style="normal" 
>
<path vector-effect="none" fill-rule="evenodd" d="M1.0058e+07,3.12e+06 L1.0156e+07,3.12e+06 L1.0156e+07,2.91927e+06 L1.0058e+07,2.91927e+06 L1.0058e+07,3.12e+06"/>
</g>

<g fill="#000000" fill-opacity="0.701961" stroke="#000000" stroke-opacity="0.701961" stroke-dasharray="10,6" stroke-dashoffset="0" stroke-width="4" stroke-linecap="butt" stroke-linejoin="round" transform="matrix(0.5,0,0,0.5,-67.6429,-2.78125)"
font-family=".AppleSystemUIFont" font-size="13" font-weight="400" font-style="normal" 
>
<polyline fill="none" vector-effect="none" points="971.5,312 971.5,38 " />
</g>

<g fill="#ffffff" fill-opacity="1" stroke="none" transform="matrix(5e-05,0,0,5e-05,-67.6429,-2.78125)"
font-family=".AppleSystemUIFont" font-size="13" font-weight="400" font-style="normal" 
>
<path vector-effect="none" fill-rule="evenodd" d="M1.171e+07,380000 L1.171e+07,3.12e+06 L1.416e+07,3.12e+06 L1.416e+07,380000 L1.171e+07,380000"/>
</g>

<g fill="#212121" fill-opacity="1" stroke="none" transform="matrix(0.5,0,0,0.5,572.357,182.219)"
font-family=".AppleSystemUIFont" font-size="13" font-weight="400" font-style="normal" 
>
<path vector-effect="none" fill-rule="evenodd" d="M1.37109,-0.461426 C1.37109,-0.725098 1.48975,-0.975586 1.72705,-1.21289 L9.3208,-8.66162 L6.64453,-16.1763 C6.43359,-16.7476 6.21167,-17.2002 5.97876,-17.5342 C5.74585,-17.8682 5.40967,-18.0352 4.97021,-18.0352 C4.76807,-18.0352 4.66699,-18.1538 4.66699,-18.3911 C4.68457,-18.4966 4.72852,-18.5801 4.79883,-18.6416 C4.86914,-18.7031 4.96143,-18.7339 5.07568,-18.7339 C6.96533,-18.7339 8.10791,-18.1758 8.50342,-17.0596 L13.9878,-1.75342 C14.2251,-0.98877 14.4668,-0.474609 14.7129,-0.210938 C14.8008,-0.0791016 14.8447,0.00878906 14.8447,0.0527344 C14.8447,0.219727 14.7744,0.303223 14.6338,0.303223 L13.1704,0.303223 C12.7222,0.171387 12.3662,-0.219727 12.1025,-0.870117 L9.63721,-7.77832 L3.11133,-0.105469 C2.78613,0.202148 2.49609,0.355957 2.24121,0.355957 C2.0127,0.355957 1.81055,0.276855 1.63477,0.118652 C1.45898,-0.0395508 1.37109,-0.23291 1.37109,-0.461426 "/>
</g>

<g fill="#212121" fill-opacity="1" stroke="none" transform="matrix(0.5,0,0,0.5,580.357,188.719)"
font-family=".AppleSystemUIFont" font-size="13" font-weight="400" font-style="normal" 
>
<path vector-effect="none" fill-rule="evenodd" d="M2.10547,-10.8926 L2.10547,-12.375 C3.50195,-12.5111 4.47591,-12.7384 5.02734,-13.0571 C5.57878,-13.3758 5.99056,-14.1296 6.2627,-15.3184 L7.78809,-15.3184 L7.78809,0 L5.72559,0 L5.72559,-10.8926 L2.10547,-10.8926"/>
</g>

<g fill="#212121" fill-opacity="1" stroke="#212121" stroke-opacity="1" stroke-width="4" stroke-linecap="square" stroke-linejoin="round" transform="matrix(0.5,0,0,0.5,-67.6429,-2.78125)"
font-family=".AppleSystemUIFont" font-size="13" font-weight="400" font-style="normal" 
>
<polyline fill="none" vector-effect="none" points="1171,312 1416,312 " />
<polyline fill="none" vector-effect="none" points="1211.83,312 1211.83,309.26 " />
<polyline fill="none" vector-effect="none" points="1293.5,312 1293.5,309.26 " />
<polyline fill="none" vector-effect="none" points="1375.17,312 1375.17,309.26 " />
</g>

<g fill="#212121" fill-opacity="1" stroke="none" transform="matrix(0.5,0,0,0.5,532.774,166.147)"
font-family=".AppleSystemUIFont" font-size="13" font-weight="400" font-style="normal" 
>
<path vector-effect="none" fill-rule="evenodd" d="M1.0376,-8.09326 L7.16553,-8.09326 L7.16553,-5.83496 L1.0376,-5.83496 L1.0376,-8.09326 M10.7051,-12.3779 L10.7051,-14.0625 C12.292,-14.2171 13.3988,-14.4755 14.0254,-14.8376 C14.652,-15.1998 15.12,-16.0563 15.4292,-17.4072 L17.1626,-17.4072 L17.1626,0 L14.8188,0 L14.8188,-12.3779 L10.7051,-12.3779"/>
</g>

<g fill="#212121" fill-opacity="1" stroke="none" transform="matrix(0.5,0,0,0.5,575.607,166.147)"
font-family=".AppleSystemUIFont" font-size="13" font-weight="400" font-style="normal" 
>
<path vector-effect="none" fill-rule="evenodd" d="M6.7627,-17.4805 C9.02507,-17.4805 10.6608,-16.5487 11.6699,-14.6851 C12.4512,-13.2446 12.8418,-11.2712 12.8418,-8.76465 C12.8418,-6.38835 12.4878,-4.42301 11.7798,-2.86865 C10.7544,-0.638835 9.07796,0.476074 6.75049,0.476074 C4.65088,0.476074 3.08838,-0.435384 2.06299,-2.2583 C1.2085,-3.78011 0.78125,-5.82275 0.78125,-8.38623 C0.78125,-10.3719 1.0376,-12.0768 1.55029,-13.501 C2.51058,-16.154 4.24805,-17.4805 6.7627,-17.4805 M6.73828,-1.52588 C7.8776,-1.52588 8.78499,-2.03044 9.46045,-3.03955 C10.1359,-4.04867 10.4736,-5.92855 10.4736,-8.6792 C10.4736,-10.6649 10.2295,-12.2986 9.74121,-13.5803 C9.25293,-14.8621 8.30485,-15.5029 6.89697,-15.5029 C5.60303,-15.5029 4.65698,-14.8946 4.05884,-13.678 C3.46069,-12.4613 3.16162,-10.6689 3.16162,-8.30078 C3.16162,-6.51855 3.35286,-5.08626 3.73535,-4.00391 C4.32129,-2.35189 5.32227,-1.52588 6.73828,-1.52588 "/>
</g>

<g fill="#212121" fill-opacity="1" stroke="none" transform="matrix(0.5,0,0,0.5,616.44,166.147)"
font-family=".AppleSystemUIFont" font-size="13" font-weight="400" font-style="normal" 
>
<path vector-effect="none" fill-rule="evenodd" d="M2.39258,-12.3779 L2.39258,-14.0625 C3.97949,-14.2171 5.08626,-14.4755 5.71289,-14.8376 C6.33952,-15.1998 6.80745,-16.0563 7.1167,-17.4072 L8.8501,-17.4072 L8.8501,0 L6.50635,0 L6.50635,-12.3779 L2.39258,-12.3779"/>
</g>

<g fill="#212121" fill-opacity="1" stroke="#212121" stroke-opacity="1" stroke-width="4" stroke-linecap="square" stroke-linejoin="round" transform="matrix(0.5,0,0,0.5,-67.6429,-2.78125)"
font-family=".AppleSystemUIFont" font-size="13" font-weight="400" font-style="normal" 
>
<polyline fill="none" vector-effect="none" points="1171,312 1171,38 " />
<polyline fill="none" vector-effect="none" points="1171,312 1173.74,312 " />
<polyline fill="none" vector-effect="none" points="1171,211.634 1173.74,211.634 " />
<polyline fill="none" vector-effect="none" points="1171,111.267 1173.74,111.267 " />
</g>

<g fill="#212121" fill-opacity="1" stroke="none" transform="matrix(0.5,0,0,0.5,507.429,156.469)"
font-family=".AppleSystemUIFont" font-size="13" font-weight="400" font-style="normal" 
>
<path vector-effect="none" fill-rule="evenodd" d="M6.7627,-17.4805 C9.02507,-17.4805 10.6608,-16.5487 11.6699,-14.6851 C12.4512,-13.2446 12.8418,-11.2712 12.8418,-8.76465 C12.8418,-6.38835 12.4878,-4.42301 11.7798,-2.86865 C10.7544,-0.638835 9.07796,0.476074 6.75049,0.476074 C4.65088,0.476074 3.08838,-0.435384 2.06299,-2.2583 C1.2085,-3.78011 0.78125,-5.82275 0.78125,-8.38623 C0.78125,-10.3719 1.0376,-12.0768 1.55029,-13.501 C2.51058,-16.154 4.24805,-17.4805 6.7627,-17.4805 M6.73828,-1.52588 C7.8776,-1.52588 8.78499,-2.03044 9.46045,-3.03955 C10.1359,-4.04867 10.4736,-5.92855 10.4736,-8.6792 C10.4736,-10.6649 10.2295,-12.2986 9.74121,-13.5803 C9.25293,-14.8621 8.30485,-15.5029 6.89697,-15.5029 C5.60303,-15.5029 4.65698,-14.8946 4.05884,-13.678 C3.46069,-12.4613 3.16162,-10.6689 3.16162,-8.30078 C3.16162,-6.51855 3.35286,-5.08626 3.73535,-4.00391 C4.32129,-2.35189 5.32227,-1.52588 6.73828,-1.52588 "/>
</g>

<g fill="#212121" fill-opacity="1" stroke="none" transform="matrix(0.5,0,0,0.5,507.429,106.286)"
font-family=".AppleSystemUIFont" font-size="13" font-weight="400" font-style="normal" 
>
<path vector-effect="none" fill-rule="evenodd" d="M3.08838,-4.45557 C3.23486,-3.20231 3.81673,-2.33561 4.83398,-1.85547 C5.35482,-1.61133 5.95703,-1.48926 6.64063,-1.48926 C7.94271,-1.48926 8.90706,-1.9043 9.53369,-2.73438 C10.1603,-3.56445 10.4736,-4.48405 10.4736,-5.49316 C10.4736,-6.71387 10.1013,-7.65788 9.35669,-8.3252 C8.61206,-8.99251 7.71891,-9.32617 6.67725,-9.32617 C5.92041,-9.32617 5.2714,-9.17969 4.73022,-8.88672 C4.18905,-8.59375 3.72721,-8.18685 3.34473,-7.66602 L1.44043,-7.77588 L2.771,-17.1875 L11.853,-17.1875 L11.853,-15.0635 L4.41895,-15.0635 L3.67432,-10.2051 C4.08122,-10.5143 4.46777,-10.7463 4.83398,-10.9009 C5.48503,-11.1694 6.23779,-11.3037 7.09229,-11.3037 C8.69548,-11.3037 10.0545,-10.7869 11.1694,-9.75342 C12.2843,-8.71989 12.8418,-7.40967 12.8418,-5.82275 C12.8418,-4.17074 12.3311,-2.71403 11.3098,-1.45264 C10.2885,-0.191243 8.65885,0.439453 6.4209,0.439453 C4.99674,0.439453 3.73739,0.0386556 2.64282,-0.762939 C1.54826,-1.56453 0.935872,-2.79541 0.805664,-4.45557 L3.08838,-4.45557"/>
</g>

<g fill="#212121" fill-opacity="1" stroke="none" transform="matrix(0.5,0,0,0.5,500.429,56.1025)"
font-family=".AppleSystemUIFont" font-size="13" font-weight="400" font-style="normal" 
>
<path vector-effect="none" fill-rule="evenodd" d="M2.39258,-12.3779 L2.39258,-14.0625 C3.97949,-14.2171 5.08626,-14.4755 5.71289,-14.8376 C6.33952,-15.1998 6.80745,-16.0563 7.1167,-17.4072 L8.8501,-17.4072 L8.8501,0 L6.50635,0 L6.50635,-12.3779 L2.39258,-12.3779 M20.6533,-17.4805 C22.9157,-17.4805 24.5514,-16.5487 25.5605,-14.6851 C26.3418,-13.2446 26.7324,-11.2712 26.7324,-8.76465 C26.7324,-6.38835 26.3784,-4.42301 25.6704,-2.86865 C24.645,-0.638835 22.9686,0.476074 20.6411,0.476074 C18.5415,0.476074 16.979,-0.435384 15.9536,-2.2583 C15.0991,-3.78011 14.6719,-5.82275 14.6719,-8.38623 C14.6719,-10.3719 14.9282,-12.0768 15.4409,-13.501 C16.4012,-16.154 18.1387,-17.4805 20.6533,-17.4805 M20.6289,-1.52588 C21.7682,-1.52588 22.6756,-2.03044 23.3511,-3.03955 C24.0265,-4.04867 24.3643,-5.92855 24.3643,-8.6792 C24.3643,-10.6649 24.1201,-12.2986 23.6318,-13.5803 C23.1436,-14.8621 22.1955,-15.5029 20.7876,-15.5029 C19.4937,-15.5029 18.5476,-14.8946 17.9495,-13.678 C17.3513,-12.4613 17.0522,-10.6689 17.0522,-8.30078 C17.0522,-6.51855 17.2435,-5.08626 17.626,-4.00391 C18.2119,-2.35189 19.2129,-1.52588 20.6289,-1.52588 "/>
</g>

<g fill="#212121" fill-opacity="1" stroke="none" transform="matrix(0.5,0,0,0.5,545.607,11.5)"
font-family=".AppleSystemUIFont" font-size="13" font-weight="400" font-style="normal" 
>
<path vector-effect="none" fill-rule="evenodd" d="M3.77051,-6.24902 C3.83203,-5.15039 4.09131,-4.2583 4.54834,-3.57275 C5.41846,-2.28955 6.95215,-1.64795 9.14941,-1.64795 C10.1338,-1.64795 11.0303,-1.78857 11.8389,-2.06982 C13.4033,-2.61475 14.1855,-3.59033 14.1855,-4.99658 C14.1855,-6.05127 13.856,-6.80273 13.1968,-7.25098 C12.5288,-7.69043 11.4829,-8.07275 10.0591,-8.39795 L7.43555,-8.99121 C5.72168,-9.37793 4.50879,-9.8042 3.79688,-10.27 C2.56641,-11.0786 1.95117,-12.2871 1.95117,-13.8955 C1.95117,-15.6357 2.55322,-17.064 3.75732,-18.1802 C4.96143,-19.2964 6.6665,-19.8545 8.87256,-19.8545 C10.9028,-19.8545 12.6277,-19.3645 14.0471,-18.3845 C15.4666,-17.4045 16.1763,-15.8379 16.1763,-13.6846 L13.7109,-13.6846 C13.5791,-14.7217 13.2979,-15.5171 12.8672,-16.0708 C12.0674,-17.0815 10.7095,-17.5869 8.79346,-17.5869 C7.24658,-17.5869 6.13477,-17.2617 5.45801,-16.6113 C4.78125,-15.9609 4.44287,-15.2051 4.44287,-14.3438 C4.44287,-13.3945 4.83838,-12.7002 5.62939,-12.2607 C6.14795,-11.9795 7.32129,-11.6279 9.14941,-11.2061 L11.8652,-10.5864 C13.1748,-10.2876 14.1855,-9.87891 14.8975,-9.36035 C16.1279,-8.45508 16.7432,-7.14111 16.7432,-5.41846 C16.7432,-3.27393 15.9631,-1.74023 14.4031,-0.817383 C12.843,0.105469 11.0303,0.566895 8.96484,0.566895 C6.55664,0.566895 4.67139,-0.0483398 3.30908,-1.27881 C1.94678,-2.50049 1.27881,-4.15723 1.30518,-6.24902 L3.77051,-6.24902 M20.3071,-19.3667 L33.7412,-19.3667 L33.7412,-16.9937 L22.9307,-16.9937 L22.9307,-11.1138 L32.436,-11.1138 L32.436,-8.80664 L22.9307,-8.80664 L22.9307,0 L20.3071,0 L20.3071,-19.3667 M45.0127,-7.93652 L42.0728,-16.4927 L38.9482,-7.93652 L45.0127,-7.93652 M40.7017,-19.3667 L43.668,-19.3667 L50.6948,0 L47.8208,0 L45.8564,-5.80078 L38.1968,-5.80078 L36.1006,0 L33.4111,0 L40.7017,-19.3667 M58.2598,-5.77441 L58.2598,-7.98926 L64.0078,-7.98926 L64.0078,-13.7769 L66.2622,-13.7769 L66.2622,-7.98926 L72.0103,-7.98926 L72.0103,-5.77441 L66.2622,-5.77441 L66.2622,0 L64.0078,0 L64.0078,-5.77441 L58.2598,-5.77441 M84.083,-6.24902 C84.1445,-5.15039 84.4038,-4.2583 84.8608,-3.57275 C85.731,-2.28955 87.2646,-1.64795 89.4619,-1.64795 C90.4463,-1.64795 91.3428,-1.78857 92.1514,-2.06982 C93.7158,-2.61475 94.498,-3.59033 94.498,-4.99658 C94.498,-6.05127 94.1685,-6.80273 93.5093,-7.25098 C92.8413,-7.69043 91.7954,-8.07275 90.3716,-8.39795 L87.748,-8.99121 C86.0342,-9.37793 84.8213,-9.8042 84.1094,-10.27 C82.8789,-11.0786 82.2637,-12.2871 82.2637,-13.8955 C82.2637,-15.6357 82.8657,-17.064 84.0698,-18.1802 C85.2739,-19.2964 86.979,-19.8545 89.1851,-19.8545 C91.2153,-19.8545 92.9402,-19.3645 94.3596,-18.3845 C95.7791,-17.4045 96.4888,-15.8379 96.4888,-13.6846 L94.0234,-13.6846 C93.8916,-14.7217 93.6104,-15.5171 93.1797,-16.0708 C92.3799,-17.0815 91.022,-17.5869 89.106,-17.5869 C87.5591,-17.5869 86.4473,-17.2617 85.7705,-16.6113 C85.0938,-15.9609 84.7554,-15.2051 84.7554,-14.3438 C84.7554,-13.3945 85.1509,-12.7002 85.9419,-12.2607 C86.4604,-11.9795 87.6338,-11.6279 89.4619,-11.2061 L92.1777,-10.5864 C93.4873,-10.2876 94.498,-9.87891 95.21,-9.36035 C96.4404,-8.45508 97.0557,-7.14111 97.0557,-5.41846 C97.0557,-3.27393 96.2756,-1.74023 94.7156,-0.817383 C93.1555,0.105469 91.3428,0.566895 89.2773,0.566895 C86.8691,0.566895 84.9839,-0.0483398 83.6216,-1.27881 C82.2593,-2.50049 81.5913,-4.15723 81.6177,-6.24902 L84.083,-6.24902 M114.462,-19.3667 L114.462,-17.0596 L107.937,-17.0596 L107.937,0 L105.273,0 L105.273,-17.0596 L98.7476,-17.0596 L98.7476,-19.3667 L114.462,-19.3667 M124.289,-2.24121 C125.177,-2.24121 125.906,-2.3335 126.478,-2.51807 C127.497,-2.86084 128.332,-3.52002 128.982,-4.49561 C129.501,-5.27783 129.875,-6.27979 130.103,-7.50146 C130.235,-8.23096 130.301,-8.90771 130.301,-9.53174 C130.301,-11.9312 129.824,-13.7944 128.87,-15.1216 C127.917,-16.4487 126.381,-17.1123 124.263,-17.1123 L119.609,-17.1123 L119.609,-2.24121 L124.289,-2.24121 M116.972,-19.3667 L124.816,-19.3667 C127.479,-19.3667 129.545,-18.4219 131.013,-16.5322 C132.322,-14.8271 132.977,-12.6431 132.977,-9.97998 C132.977,-7.92334 132.59,-6.06445 131.817,-4.40332 C130.455,-1.46777 128.112,0 124.79,0 L116.972,0 L116.972,-19.3667"/>
</g>

<g fill="#1a4de6" fill-opacity="1" stroke="none" transform="matrix(5e-05,0,0,5e-05,-67.6429,-2.78125)"
font-family=".AppleSystemUIFont" font-size="13" font-weight="400" font-style="normal" 
>
<path vector-effect="none" fill-rule="evenodd" d="M1.2788e+07,3.12e+06 L1.2886e+07,3.12e+06 L1.2886e+07,2.91927e+06 L1.2886e+07,2.71853e+06 L1.2886e+07,2.5178e+06 L1.2886e+07,2.31707e+06 L1.2886e+07,2.11634e+06 L1.2788e+07,2.11634e+06 L1.2788e+07,2.31707e+06 L1.2788e+07,2.5178e+06 L1.2788e+07,2.71853e+06 L1.2788e+07,2.91927e+06 L1.2788e+07,3.12e+06"/>
</g>

<g fill="#576bc3" fill-opacity="1" stroke="none" transform="matrix(5e-05,0,0,5e-05,-67.6429,-2.78125)"
font-family=".AppleSystemUIFont" font-size="13" font-weight="400" font-style="normal" 
>
<path vector-effect="none" fill-rule="evenodd" d="M1.2788e+07,2.11634e+06 L1.2886e+07,2.11634e+06 L1.2886e+07,1.9156e+06 L1.2886e+07,1.71487e+06 L1.2886e+07,1.51414e+06 L1.2886e+07,1.31341e+06 L1.2886e+07,1.11267e+06 L1.2788e+07,1.11267e+06 L1.2788e+07,1.31341e+06 L1.2788e+07,1.51414e+06 L1.2788e+07,1.71487e+06 L1.2788e+07,1.9156e+06 L1.2788e+07,2.11634e+06"/>
</g>

<g fill="#8d7398" fill-opacity="1" stroke="none" transform="matrix(5e-05,0,0,5e-05,-67.6429,-2.78125)"
font-family=".AppleSystemUIFont" font-size="13" font-weight="400" font-style="normal" 
>
<path vector-effect="none" fill-rule="evenodd" d="M1.2788e+07,1.11267e+06 L1.2886e+07,1.11267e+06 L1.2886e+07,911941 L1.2788e+07,911941 L1.2788e+07,1.11267e+06"/>
</g>

<g fill="#bc6165" fill-opacity="1" stroke="none" transform="matrix(5e-05,0,0,5e-05,-67.6429,-2.78125)"
font-family=".AppleSystemUIFont" font-size="13" font-weight="400" font-style="normal" 
>
<path vector-effect="none" fill-rule="evenodd" d="M1.2788e+07,911941 L1.2886e+07,911941 L1.2886e+07,711208 L1.2886e+07,510476 L1.2788e+07,510476 L1.2788e+07,711208 L1.2788e+07,911941"/>
</g>

<g fill="#8d7398" fill-opacity="1" stroke="none" transform="matrix(5e-05,0,0,5e-05,-67.6429,-2.78125)"
font-family=".AppleSystemUIFont" font-size="13" font-weight="400" font-style="normal" 
>
<path vector-effect="none" fill-rule="evenodd" d="M1.2886e+07,3.12e+06 L1.2984e+07,3.12e+06 L1.2984e+07,2.91927e+06 L1.2984e+07,2.71853e+06 L1.2984e+07,2.5178e+06 L1.2886e+07,2.5178e+06 L1.2886e+07,2.71853e+06 L1.2886e+07,2.91927e+06 L1.2886e+07,3.12e+06"/>
</g>

<g fill="#bc6165" fill-opacity="1" stroke="none" transform="matrix(5e-05,0,0,5e-05,-67.6429,-2.78125)"
font-family=".AppleSystemUIFont" font-size="13" font-weight="400" font-style="normal" 
>
<path vector-effect="none" fill-rule="evenodd" d="M1.2886e+07,2.5178e+06 L1.2984e+07,2.5178e+06 L1.2984e+07,2.31707e+06 L1.2984e+07,2.11634e+06 L1.2886e+07,2.11634e+06 L1.2886e+07,2.31707e+06 L1.2886e+07,2.5178e+06"/>
</g>

<g fill="#e63326" fill-opacity="1" stroke="none" transform="matrix(5e-05,0,0,5e-05,-67.6429,-2.78125)"
font-family=".AppleSystemUIFont" font-size="13" font-weight="400" font-style="normal" 
>
<path vector-effect="none" fill-rule="evenodd" d="M1.2886e+07,2.11634e+06 L1.2984e+07,2.11634e+06 L1.2984e+07,1.9156e+06 L1.2984e+07,1.71487e+06 L1.2984e+07,1.51414e+06 L1.2886e+07,1.51414e+06 L1.2886e+07,1.71487e+06 L1.2886e+07,1.9156e+06 L1.2886e+07,2.11634e+06"/>
</g>

<g fill="#8d7398" fill-opacity="1" stroke="none" transform="matrix(5e-05,0,0,5e-05,-67.6429,-2.78125)"
font-family=".AppleSystemUIFont" font-size="13" font-weight="400" font-style="normal" 
>
<path vector-effect="none" fill-rule="evenodd" d="M1.3082e+07,3.12e+06 L1.318e+07,3.12e+06 L1.318e+07,2.91927e+06 L1.3082e+07,2.91927e+06 L1.3082e+07,3.12e+06"/>
</g>

<g fill="#bc6165" fill-opacity="1" stroke="none" transform="matrix(5e-05,0,0,5e-05,-67.6429,-2.78125)"
font-family=".AppleSystemUIFont" font-size="13" font-weight="400" font-style="normal" 
>
<path vector-effect="none" fill-rule="evenodd" d="M1.3082e+07,2.91927e+06 L1.318e+07,2.91927e+06 L1.318e+07,2.71853e+06 L1.3082e+07,2.71853e+06 L1.3082e+07,2.91927e+06"/>
</g>

<g fill="#e63326" fill-opacity="1" stroke="none" transform="matrix(5e-05,0,0,5e-05,-67.6429,-2.78125)"
font-family=".AppleSystemUIFont" font-size="13" font-weight="400" font-style="normal" 
>
<path vector-effect="none" fill-rule="evenodd" d="M1.3082e+07,2.71853e+06 L1.318e+07,2.71853e+06 L1.318e+07,2.5178e+06 L1.318e+07,2.31707e+06 L1.3082e+07,2.31707e+06 L1.3082e+07,2.5178e+06 L1.3082e+07,2.71853e+06"/>
</g>

<g fill="#000000" fill-opacity="0.701961" stroke="#000000" stroke-opacity="0.701961" stroke-dasharray="10,6" stroke-dashoffset="0" stroke-width="4" stroke-linecap="butt" stroke-linejoin="round" transform="matrix(0.5,0,0,0.5,-67.6429,-2.78125)"
font-family=".AppleSystemUIFont" font-size="13" font-weight="400" font-style="normal" 
>
<polyline fill="none" vector-effect="none" points="1293.5,312 1293.5,38 " />
</g>
</g>
</svg>
