<?xml version="1.0" encoding="UTF-8" standalone="no"?>
<svg width="226.836mm" height="67.0278mm"
 viewBox="0 0 643 190"
 xmlns="http://www.w3.org/2000/svg" xmlns:xlink="http://www.w3.org/1999/xlink"  version="1.2" baseProfile="tiny">
<title>Qt SVG Document</title>
<desc>MATLAB, The MathWorks, Inc. Version 25.2.0.3042426 R2025b Update 1</desc>
<defs>
</defs>
<g fill="none" stroke="black" stroke-width="1" fill-rule="evenodd" stroke-linecap="square" stroke-linejoin="bevel" >

<g fill="#ffffff" fill-opacity="1" stroke="none" transform="matrix(5e-05,0,0,5e-05,-67.6429,-2.78126)"
font-family=".AppleSystemUIFont" font-size="13" font-weight="400" font-style="normal" 
>
<path vector-effect="none" fill-rule="evenodd" d="M2.03e+06,380000 L2.03e+06,3.18e+06 L4.49e+06,3.18e+06 L4.49e+06,380000 L2.03e+06,380000"/>
</g>

<g fill="#212121" fill-opacity="1" stroke="#212121" stroke-opacity="1" stroke-width="1" stroke-linecap="square" stroke-linejoin="bevel" transform="matrix(0.5,0,0,0.5,43.6071,185.112)"
font-family="Helvetica" font-size="27" font-weight="400" font-style="normal" 
>
<text fill="#212121" fill-opacity="1" stroke="none" xml:space="preserve" x="0" y="-0.21875" font-family="Helvetica" font-size="27" font-weight="400" font-style="normal" 
 >Mean Firing Rate</text>
</g>

<g fill="#212121" fill-opacity="1" stroke="#212121" stroke-opacity="1" stroke-width="4" stroke-linecap="square" stroke-linejoin="round" transform="matrix(0.5,0,0,0.5,-67.6429,-2.78126)"
font-family="Helvetica" font-size="27" font-weight="400" font-style="normal" 
>
<polyline fill="none" vector-effect="none" points="203,318 449,318 " />
<polyline fill="none" vector-effect="none" points="203,318 203,315.2 " />
<polyline fill="none" vector-effect="none" points="326,318 326,315.2 " />
<polyline fill="none" vector-effect="none" points="449,318 449,315.2 " />
</g>

<g fill="#212121" fill-opacity="1" stroke="#212121" stroke-opacity="1" stroke-width="1" stroke-linecap="square" stroke-linejoin="bevel" transform="matrix(0.5,0,0,0.5,30.3571,169.147)"
font-family="Helvetica" font-size="25" font-weight="400" font-style="normal" 
>
<text fill="#212121" fill-opacity="1" stroke="none" xml:space="preserve" x="0" y="0.25" font-family="Helvetica" font-size="25" font-weight="400" font-style="normal" 
 >0</text>
</g>

<g fill="#212121" fill-opacity="1" stroke="#212121" stroke-opacity="1" stroke-width="1" stroke-linecap="square" stroke-linejoin="bevel" transform="matrix(0.5,0,0,0.5,86.6071,169.147)"
font-family="Helvetica" font-size="25" font-weight="400" font-style="normal" 
>
<text fill="#212121" fill-opacity="1" stroke="none" xml:space="preserve" x="0" y="0.25" font-family="Helvetica" font-size="25" font-weight="400" font-style="normal" 
 >0.5</text>
</g>

<g fill="#212121" fill-opacity="1" stroke="#212121" stroke-opacity="1" stroke-width="1" stroke-linecap="square" stroke-linejoin="bevel" transform="matrix(0.5,0,0,0.5,153.357,169.147)"
font-family="Helvetica" font-size="25" font-weight="400" font-style="normal" 
>
<text fill="#212121" fill-opacity="1" stroke="none" xml:space="preserve" x="0" y="0.25" font-family="Helvetica" font-size="25" font-weight="400" font-style="normal" 
 >1</text>
</g>

<g fill="#212121" fill-opacity="1" stroke="#212121" stroke-opacity="1" stroke-width="1" stroke-linecap="square" stroke-linejoin="bevel" transform="matrix(0,-0.5,0.5,0,11.5,104.219)"
font-family="Helvetica" font-size="27" font-weight="400" font-style="normal" 
>
<text fill="#212121" fill-opacity="1" stroke="none" xml:space="preserve" x="0" y="-0.21875" font-family="Helvetica" font-size="27" font-weight="400" font-style="normal" 
 >Count</text>
</g>

<g fill="#212121" fill-opacity="1" stroke="#212121" stroke-opacity="1" stroke-width="4" stroke-linecap="square" stroke-linejoin="round" transform="matrix(0.5,0,0,0.5,-67.6429,-2.78126)"
font-family="Helvetica" font-size="27" font-weight="400" font-style="normal" 
>
<polyline fill="none" vector-effect="none" points="203,318 203,38 " />
<polyline fill="none" vector-effect="none" points="203,318 205.8,318 " />
<polyline fill="none" vector-effect="none" points="203,243.926 205.8,243.926 " />
<polyline fill="none" vector-effect="none" points="203,169.852 205.8,169.852 " />
<polyline fill="none" vector-effect="none" points="203,95.7778 205.8,95.7778 " />
</g>

<g fill="#212121" fill-opacity="1" stroke="#212121" stroke-opacity="1" stroke-width="1" stroke-linecap="square" stroke-linejoin="bevel" transform="matrix(0.5,0,0,0.5,23.4286,159.469)"
font-family="Helvetica" font-size="25" font-weight="400" font-style="normal" 
>
<text fill="#212121" fill-opacity="1" stroke="none" xml:space="preserve" x="0" y="0.25" font-family="Helvetica" font-size="25" font-weight="400" font-style="normal" 
 >0</text>
</g>

<g fill="#212121" fill-opacity="1" stroke="#212121" stroke-opacity="1" stroke-width="1" stroke-linecap="square" stroke-linejoin="bevel" transform="matrix(0.5,0,0,0.5,23.4286,122.432)"
font-family="Helvetica" font-size="25" font-weight="400" font-style="normal" 
>
<text fill="#212121" fill-opacity="1" stroke="none" xml:space="preserve" x="0" y="0.25" font-family="Helvetica" font-size="25" font-weight="400" font-style="normal" 
 >5</text>
</g>

<g fill="#212121" fill-opacity="1" stroke="#212121" stroke-opacity="1" stroke-width="1" stroke-linecap="square" stroke-linejoin="bevel" transform="matrix(0.5,0,0,0.5,16.4286,85.3947)"
font-family="Helvetica" font-size="25" font-weight="400" font-style="normal" 
>
<text fill="#212121" fill-opacity="1" stroke="none" xml:space="preserve" x="0" y="0.25" font-family="Helvetica" font-size="25" font-weight="400" font-style="normal" 
 >10</text>
</g>

<g fill="#212121" fill-opacity="1" stroke="#212121" stroke-opacity="1" stroke-width="1" stroke-linecap="square" stroke-linejoin="bevel" transform="matrix(0.5,0,0,0.5,16.4286,48.3576)"
font-family="Helvetica" font-size="25" font-weight="400" font-style="normal" 
>
<text fill="#212121" fill-opacity="1" stroke="none" xml:space="preserve" x="0" y="0.25" font-family="Helvetica" font-size="25" font-weight="400" font-style="normal" 
 >15</text>
</g>

<g fill="#212121" fill-opacity="1" stroke="#212121" stroke-opacity="1" stroke-width="1" stroke-linecap="square" stroke-linejoin="bevel" transform="matrix(0.5,0,0,0.5,52.8571,11.5)"
font-family="Helvetica" font-size="27" font-weight="400" font-style="normal" 
>
<text fill="#212121" fill-opacity="1" stroke="none" xml:space="preserve" x="0" y="-0.21875" font-family="Helvetica" font-size="27" font-weight="400" font-style="normal" 
 >No Adaptation</text>
</g>

<g fill="#1a4de6" fill-opacity="1" stroke="none" transform="matrix(5e-05,0,0,5e-05,-67.6429,-2.78126)"
font-family="Helvetica" font-size="27" font-weight="400" font-style="normal" 
>
<path vector-effect="none" fill-rule="evenodd" d="M2.03e+06,3.18e+06 L2.1284e+06,3.18e+06 L2.1284e+06,3.03185e+06 L2.03e+06,3.03185e+06 L2.03e+06,3.18e+06"/>
</g>

<g fill="#576bc3" fill-opacity="1" stroke="none" transform="matrix(5e-05,0,0,5e-05,-67.6429,-2.78126)"
font-family="Helvetica" font-size="27" font-weight="400" font-style="normal" 
>
<path vector-effect="none" fill-rule="evenodd" d="M2.03e+06,3.03185e+06 L2.1284e+06,3.03185e+06 L2.1284e+06,2.8837e+06 L2.03e+06,2.8837e+06 L2.03e+06,3.03185e+06"/>
</g>

<g fill="#1a4de6" fill-opacity="1" stroke="none" transform="matrix(5e-05,0,0,5e-05,-67.6429,-2.78126)"
font-family="Helvetica" font-size="27" font-weight="400" font-style="normal" 
>
<path vector-effect="none" fill-rule="evenodd" d="M2.1284e+06,3.18e+06 L2.2268e+06,3.18e+06 L2.2268e+06,3.03185e+06 L2.2268e+06,2.8837e+06 L2.2268e+06,2.73556e+06 L2.2268e+06,2.58741e+06 L2.1284e+06,2.58741e+06 L2.1284e+06,2.73556e+06 L2.1284e+06,2.8837e+06 L2.1284e+06,3.03185e+06 L2.1284e+06,3.18e+06"/>
</g>

<g fill="#576bc3" fill-opacity="1" stroke="none" transform="matrix(5e-05,0,0,5e-05,-67.6429,-2.78126)"
font-family="Helvetica" font-size="27" font-weight="400" font-style="normal" 
>
<path vector-effect="none" fill-rule="evenodd" d="M2.1284e+06,2.58741e+06 L2.2268e+06,2.58741e+06 L2.2268e+06,2.43926e+06 L2.2268e+06,2.29111e+06 L2.2268e+06,2.14296e+06 L2.2268e+06,1.99481e+06 L2.1284e+06,1.99481e+06 L2.1284e+06,2.14296e+06 L2.1284e+06,2.29111e+06 L2.1284e+06,2.43926e+06 L2.1284e+06,2.58741e+06"/>
</g>

<g fill="#8d7398" fill-opacity="1" stroke="none" transform="matrix(5e-05,0,0,5e-05,-67.6429,-2.78126)"
font-family="Helvetica" font-size="27" font-weight="400" font-style="normal" 
>
<path vector-effect="none" fill-rule="evenodd" d="M2.1284e+06,1.99481e+06 L2.2268e+06,1.99481e+06 L2.2268e+06,1.84667e+06 L2.2268e+06,1.69852e+06 L2.1284e+06,1.69852e+06 L2.1284e+06,1.84667e+06 L2.1284e+06,1.99481e+06"/>
</g>

<g fill="#8d7398" fill-opacity="1" stroke="none" transform="matrix(5e-05,0,0,5e-05,-67.6429,-2.78126)"
font-family="Helvetica" font-size="27" font-weight="400" font-style="normal" 
>
<path vector-effect="none" fill-rule="evenodd" d="M2.2268e+06,3.18e+06 L2.3252e+06,3.18e+06 L2.3252e+06,3.03185e+06 L2.2268e+06,3.03185e+06 L2.2268e+06,3.18e+06"/>
</g>

<g fill="#bc6165" fill-opacity="1" stroke="none" transform="matrix(5e-05,0,0,5e-05,-67.6429,-2.78126)"
font-family="Helvetica" font-size="27" font-weight="400" font-style="normal" 
>
<path vector-effect="none" fill-rule="evenodd" d="M2.2268e+06,3.03185e+06 L2.3252e+06,3.03185e+06 L2.3252e+06,2.8837e+06 L2.2268e+06,2.8837e+06 L2.2268e+06,3.03185e+06"/>
</g>

<g fill="#8d7398" fill-opacity="1" stroke="none" transform="matrix(5e-05,0,0,5e-05,-67.6429,-2.78126)"
font-family="Helvetica" font-size="27" font-weight="400" font-style="normal" 
>
<path vector-effect="none" fill-rule="evenodd" d="M2.4236e+06,3.18e+06 L2.522e+06,3.18e+06 L2.522e+06,3.03185e+06 L2.4236e+06,3.03185e+06 L2.4236e+06,3.18e+06"/>
</g>

<g fill="#bc6165" fill-opacity="1" stroke="none" transform="matrix(5e-05,0,0,5e-05,-67.6429,-2.78126)"
font-family="Helvetica" font-size="27" font-weight="400" font-style="normal" 
>
<path vector-effect="none" fill-rule="evenodd" d="M2.4236e+06,3.03185e+06 L2.522e+06,3.03185e+06 L2.522e+06,2.8837e+06 L2.522e+06,2.73556e+06 L2.4236e+06,2.73556e+06 L2.4236e+06,2.8837e+06 L2.4236e+06,3.03185e+06"/>
</g>

<g fill="#8d7398" fill-opacity="1" stroke="none" transform="matrix(5e-05,0,0,5e-05,-67.6429,-2.78126)"
font-family="Helvetica" font-size="27" font-weight="400" font-style="normal" 
>
<path vector-effect="none" fill-rule="evenodd" d="M2.522e+06,3.18e+06 L2.6204e+06,3.18e+06 L2.6204e+06,3.03185e+06 L2.522e+06,3.03185e+06 L2.522e+06,3.18e+06"/>
</g>

<g fill="#bc6165" fill-opacity="1" stroke="none" transform="matrix(5e-05,0,0,5e-05,-67.6429,-2.78126)"
font-family="Helvetica" font-size="27" font-weight="400" font-style="normal" 
>
<path vector-effect="none" fill-rule="evenodd" d="M2.6204e+06,3.18e+06 L2.7188e+06,3.18e+06 L2.7188e+06,3.03185e+06 L2.6204e+06,3.03185e+06 L2.6204e+06,3.18e+06"/>
</g>

<g fill="#e63326" fill-opacity="1" stroke="none" transform="matrix(5e-05,0,0,5e-05,-67.6429,-2.78126)"
font-family="Helvetica" font-size="27" font-weight="400" font-style="normal" 
>
<path vector-effect="none" fill-rule="evenodd" d="M2.6204e+06,3.03185e+06 L2.7188e+06,3.03185e+06 L2.7188e+06,2.8837e+06 L2.6204e+06,2.8837e+06 L2.6204e+06,3.03185e+06"/>
</g>

<g fill="#bc6165" fill-opacity="1" stroke="none" transform="matrix(5e-05,0,0,5e-05,-67.6429,-2.78126)"
font-family="Helvetica" font-size="27" font-weight="400" font-style="normal" 
>
<path vector-effect="none" fill-rule="evenodd" d="M2.7188e+06,3.18e+06 L2.8172e+06,3.18e+06 L2.8172e+06,3.03185e+06 L2.7188e+06,3.03185e+06 L2.7188e+06,3.18e+06"/>
</g>

<g fill="#e63326" fill-opacity="1" stroke="none" transform="matrix(5e-05,0,0,5e-05,-67.6429,-2.78126)"
font-family="Helvetica" font-size="27" font-weight="400" font-style="normal" 
>
<path vector-effect="none" fill-rule="evenodd" d="M2.7188e+06,3.03185e+06 L2.8172e+06,3.03185e+06 L2.8172e+06,2.8837e+06 L2.7188e+06,2.8837e+06 L2.7188e+06,3.03185e+06"/>
</g>

<g fill="#e63326" fill-opacity="1" stroke="none" transform="matrix(5e-05,0,0,5e-05,-67.6429,-2.78126)"
font-family="Helvetica" font-size="27" font-weight="400" font-style="normal" 
>
<path vector-effect="none" fill-rule="evenodd" d="M3.3092e+06,3.18e+06 L3.4076e+06,3.18e+06 L3.4076e+06,3.03185e+06 L3.3092e+06,3.03185e+06 L3.3092e+06,3.18e+06"/>
</g>

<g fill="#e63326" fill-opacity="1" stroke="none" transform="matrix(5e-05,0,0,5e-05,-67.6429,-2.78126)"
font-family="Helvetica" font-size="27" font-weight="400" font-style="normal" 
>
<path vector-effect="none" fill-rule="evenodd" d="M3.8012e+06,3.18e+06 L3.8996e+06,3.18e+06 L3.8996e+06,3.03185e+06 L3.8996e+06,2.8837e+06 L3.8012e+06,2.8837e+06 L3.8012e+06,3.03185e+06 L3.8012e+06,3.18e+06"/>
</g>

<g fill="#ffffff" fill-opacity="1" stroke="none" transform="matrix(5e-05,0,0,5e-05,-67.6429,-2.78126)"
font-family="Helvetica" font-size="27" font-weight="400" font-style="normal" 
>
<path vector-effect="none" fill-rule="evenodd" d="M5.26e+06,380000 L5.26e+06,3.18e+06 L7.71e+06,3.18e+06 L7.71e+06,380000 L5.26e+06,380000"/>
</g>

<g fill="#212121" fill-opacity="1" stroke="#212121" stroke-opacity="1" stroke-width="1" stroke-linecap="square" stroke-linejoin="bevel" transform="matrix(0.5,0,0,0.5,204.857,185.112)"
font-family="Helvetica" font-size="27" font-weight="400" font-style="normal" 
>
<text fill="#212121" fill-opacity="1" stroke="none" xml:space="preserve" x="0" y="-0.21875" font-family="Helvetica" font-size="27" font-weight="400" font-style="normal" 
 >Mean Firing Rate</text>
</g>

<g fill="#212121" fill-opacity="1" stroke="#212121" stroke-opacity="1" stroke-width="4" stroke-linecap="square" stroke-linejoin="round" transform="matrix(0.5,0,0,0.5,-67.6429,-2.78126)"
font-family="Helvetica" font-size="27" font-weight="400" font-style="normal" 
>
<polyline fill="none" vector-effect="none" points="526,318 771,318 " />
<polyline fill="none" vector-effect="none" points="526,318 526,315.2 " />
<polyline fill="none" vector-effect="none" points="648.5,318 648.5,315.2 " />
<polyline fill="none" vector-effect="none" points="771,318 771,315.2 " />
</g>

<g fill="#212121" fill-opacity="1" stroke="#212121" stroke-opacity="1" stroke-width="1" stroke-linecap="square" stroke-linejoin="bevel" transform="matrix(0.5,0,0,0.5,191.857,169.147)"
font-family="Helvetica" font-size="25" font-weight="400" font-style="normal" 
>
<text fill="#212121" fill-opacity="1" stroke="none" xml:space="preserve" x="0" y="0.25" font-family="Helvetica" font-size="25" font-weight="400" font-style="normal" 
 >0</text>
</g>

<g fill="#212121" fill-opacity="1" stroke="#212121" stroke-opacity="1" stroke-width="1" stroke-linecap="square" stroke-linejoin="bevel" transform="matrix(0.5,0,0,0.5,247.857,169.147)"
font-family="Helvetica" font-size="25" font-weight="400" font-style="normal" 
>
<text fill="#212121" fill-opacity="1" stroke="none" xml:space="preserve" x="0" y="0.25" font-family="Helvetica" font-size="25" font-weight="400" font-style="normal" 
 >0.5</text>
</g>

<g fill="#212121" fill-opacity="1" stroke="#212121" stroke-opacity="1" stroke-width="1" stroke-linecap="square" stroke-linejoin="bevel" transform="matrix(0.5,0,0,0.5,314.357,169.147)"
font-family="Helvetica" font-size="25" font-weight="400" font-style="normal" 
>
<text fill="#212121" fill-opacity="1" stroke="none" xml:space="preserve" x="0" y="0.25" font-family="Helvetica" font-size="25" font-weight="400" font-style="normal" 
 >1</text>
</g>

<g fill="#212121" fill-opacity="1" stroke="#212121" stroke-opacity="1" stroke-width="4" stroke-linecap="square" stroke-linejoin="round" transform="matrix(0.5,0,0,0.5,-67.6429,-2.78126)"
font-family="Helvetica" font-size="25" font-weight="400" font-style="normal" 
>
<polyline fill="none" vector-effect="none" points="526,318 526,38 " />
<polyline fill="none" vector-effect="none" points="526,318 528.8,318 " />
<polyline fill="none" vector-effect="none" points="526,243.926 528.8,243.926 " />
<polyline fill="none" vector-effect="none" points="526,169.852 528.8,169.852 " />
<polyline fill="none" vector-effect="none" points="526,95.7778 528.8,95.7778 " />
</g>

<g fill="#212121" fill-opacity="1" stroke="#212121" stroke-opacity="1" stroke-width="1" stroke-linecap="square" stroke-linejoin="bevel" transform="matrix(0.5,0,0,0.5,184.929,159.469)"
font-family="Helvetica" font-size="25" font-weight="400" font-style="normal" 
>
<text fill="#212121" fill-opacity="1" stroke="none" xml:space="preserve" x="0" y="0.25" font-family="Helvetica" font-size="25" font-weight="400" font-style="normal" 
 >0</text>
</g>

<g fill="#212121" fill-opacity="1" stroke="#212121" stroke-opacity="1" stroke-width="1" stroke-linecap="square" stroke-linejoin="bevel" transform="matrix(0.5,0,0,0.5,184.929,122.432)"
font-family="Helvetica" font-size="25" font-weight="400" font-style="normal" 
>
<text fill="#212121" fill-opacity="1" stroke="none" xml:space="preserve" x="0" y="0.25" font-family="Helvetica" font-size="25" font-weight="400" font-style="normal" 
 >5</text>
</g>

<g fill="#212121" fill-opacity="1" stroke="#212121" stroke-opacity="1" stroke-width="1" stroke-linecap="square" stroke-linejoin="bevel" transform="matrix(0.5,0,0,0.5,177.929,85.3947)"
font-family="Helvetica" font-size="25" font-weight="400" font-style="normal" 
>
<text fill="#212121" fill-opacity="1" stroke="none" xml:space="preserve" x="0" y="0.25" font-family="Helvetica" font-size="25" font-weight="400" font-style="normal" 
 >10</text>
</g>

<g fill="#212121" fill-opacity="1" stroke="#212121" stroke-opacity="1" stroke-width="1" stroke-linecap="square" stroke-linejoin="bevel" transform="matrix(0.5,0,0,0.5,177.929,48.3576)"
font-family="Helvetica" font-size="25" font-weight="400" font-style="normal" 
>
<text fill="#212121" fill-opacity="1" stroke="none" xml:space="preserve" x="0" y="0.25" font-family="Helvetica" font-size="25" font-weight="400" font-style="normal" 
 >15</text>
</g>

<g fill="#212121" fill-opacity="1" stroke="#212121" stroke-opacity="1" stroke-width="1" stroke-linecap="square" stroke-linejoin="bevel" transform="matrix(0.5,0,0,0.5,228.357,11.5)"
font-family="Helvetica" font-size="27" font-weight="400" font-style="normal" 
>
<text fill="#212121" fill-opacity="1" stroke="none" xml:space="preserve" x="0" y="-0.21875" font-family="Helvetica" font-size="27" font-weight="400" font-style="normal" 
 >SFA Only</text>
</g>

<g fill="#1a4de6" fill-opacity="1" stroke="none" transform="matrix(5e-05,0,0,5e-05,-67.6429,-2.78126)"
font-family="Helvetica" font-size="27" font-weight="400" font-style="normal" 
>
<path vector-effect="none" fill-rule="evenodd" d="M5.26e+06,3.18e+06 L5.358e+06,3.18e+06 L5.358e+06,3.03185e+06 L5.358e+06,2.8837e+06 L5.358e+06,2.73556e+06 L5.358e+06,2.58741e+06 L5.358e+06,2.43926e+06 L5.26e+06,2.43926e+06 L5.26e+06,2.58741e+06 L5.26e+06,2.73556e+06 L5.26e+06,2.8837e+06 L5.26e+06,3.03185e+06 L5.26e+06,3.18e+06"/>
</g>

<g fill="#576bc3" fill-opacity="1" stroke="none" transform="matrix(5e-05,0,0,5e-05,-67.6429,-2.78126)"
font-family="Helvetica" font-size="27" font-weight="400" font-style="normal" 
>
<path vector-effect="none" fill-rule="evenodd" d="M5.26e+06,2.43926e+06 L5.358e+06,2.43926e+06 L5.358e+06,2.29111e+06 L5.358e+06,2.14296e+06 L5.358e+06,1.99481e+06 L5.358e+06,1.84667e+06 L5.26e+06,1.84667e+06 L5.26e+06,1.99481e+06 L5.26e+06,2.14296e+06 L5.26e+06,2.29111e+06 L5.26e+06,2.43926e+06"/>
</g>

<g fill="#8d7398" fill-opacity="1" stroke="none" transform="matrix(5e-05,0,0,5e-05,-67.6429,-2.78126)"
font-family="Helvetica" font-size="27" font-weight="400" font-style="normal" 
>
<path vector-effect="none" fill-rule="evenodd" d="M5.26e+06,1.84667e+06 L5.358e+06,1.84667e+06 L5.358e+06,1.69852e+06 L5.358e+06,1.55037e+06 L5.26e+06,1.55037e+06 L5.26e+06,1.69852e+06 L5.26e+06,1.84667e+06"/>
</g>

<g fill="#576bc3" fill-opacity="1" stroke="none" transform="matrix(5e-05,0,0,5e-05,-67.6429,-2.78126)"
font-family="Helvetica" font-size="27" font-weight="400" font-style="normal" 
>
<path vector-effect="none" fill-rule="evenodd" d="M5.358e+06,3.18e+06 L5.456e+06,3.18e+06 L5.456e+06,3.03185e+06 L5.358e+06,3.03185e+06 L5.358e+06,3.18e+06"/>
</g>

<g fill="#8d7398" fill-opacity="1" stroke="none" transform="matrix(5e-05,0,0,5e-05,-67.6429,-2.78126)"
font-family="Helvetica" font-size="27" font-weight="400" font-style="normal" 
>
<path vector-effect="none" fill-rule="evenodd" d="M5.358e+06,3.03185e+06 L5.456e+06,3.03185e+06 L5.456e+06,2.8837e+06 L5.456e+06,2.73556e+06 L5.358e+06,2.73556e+06 L5.358e+06,2.8837e+06 L5.358e+06,3.03185e+06"/>
</g>

<g fill="#bc6165" fill-opacity="1" stroke="none" transform="matrix(5e-05,0,0,5e-05,-67.6429,-2.78126)"
font-family="Helvetica" font-size="27" font-weight="400" font-style="normal" 
>
<path vector-effect="none" fill-rule="evenodd" d="M5.358e+06,2.73556e+06 L5.456e+06,2.73556e+06 L5.456e+06,2.58741e+06 L5.456e+06,2.43926e+06 L5.358e+06,2.43926e+06 L5.358e+06,2.58741e+06 L5.358e+06,2.73556e+06"/>
</g>

<g fill="#8d7398" fill-opacity="1" stroke="none" transform="matrix(5e-05,0,0,5e-05,-67.6429,-2.78126)"
font-family="Helvetica" font-size="27" font-weight="400" font-style="normal" 
>
<path vector-effect="none" fill-rule="evenodd" d="M5.456e+06,3.18e+06 L5.554e+06,3.18e+06 L5.554e+06,3.03185e+06 L5.456e+06,3.03185e+06 L5.456e+06,3.18e+06"/>
</g>

<g fill="#bc6165" fill-opacity="1" stroke="none" transform="matrix(5e-05,0,0,5e-05,-67.6429,-2.78126)"
font-family="Helvetica" font-size="27" font-weight="400" font-style="normal" 
>
<path vector-effect="none" fill-rule="evenodd" d="M5.456e+06,3.03185e+06 L5.554e+06,3.03185e+06 L5.554e+06,2.8837e+06 L5.554e+06,2.73556e+06 L5.456e+06,2.73556e+06 L5.456e+06,2.8837e+06 L5.456e+06,3.03185e+06"/>
</g>

<g fill="#e63326" fill-opacity="1" stroke="none" transform="matrix(5e-05,0,0,5e-05,-67.6429,-2.78126)"
font-family="Helvetica" font-size="27" font-weight="400" font-style="normal" 
>
<path vector-effect="none" fill-rule="evenodd" d="M5.456e+06,2.73556e+06 L5.554e+06,2.73556e+06 L5.554e+06,2.58741e+06 L5.456e+06,2.58741e+06 L5.456e+06,2.73556e+06"/>
</g>

<g fill="#e63326" fill-opacity="1" stroke="none" transform="matrix(5e-05,0,0,5e-05,-67.6429,-2.78126)"
font-family="Helvetica" font-size="27" font-weight="400" font-style="normal" 
>
<path vector-effect="none" fill-rule="evenodd" d="M5.554e+06,3.18e+06 L5.652e+06,3.18e+06 L5.652e+06,3.03185e+06 L5.554e+06,3.03185e+06 L5.554e+06,3.18e+06"/>
</g>

<g fill="#bc6165" fill-opacity="1" stroke="none" transform="matrix(5e-05,0,0,5e-05,-67.6429,-2.78126)"
font-family="Helvetica" font-size="27" font-weight="400" font-style="normal" 
>
<path vector-effect="none" fill-rule="evenodd" d="M5.652e+06,3.18e+06 L5.75e+06,3.18e+06 L5.75e+06,3.03185e+06 L5.652e+06,3.03185e+06 L5.652e+06,3.18e+06"/>
</g>

<g fill="#e63326" fill-opacity="1" stroke="none" transform="matrix(5e-05,0,0,5e-05,-67.6429,-2.78126)"
font-family="Helvetica" font-size="27" font-weight="400" font-style="normal" 
>
<path vector-effect="none" fill-rule="evenodd" d="M6.534e+06,3.18e+06 L6.632e+06,3.18e+06 L6.632e+06,3.03185e+06 L6.534e+06,3.03185e+06 L6.534e+06,3.18e+06"/>
</g>

<g fill="#e63326" fill-opacity="1" stroke="none" transform="matrix(5e-05,0,0,5e-05,-67.6429,-2.78126)"
font-family="Helvetica" font-size="27" font-weight="400" font-style="normal" 
>
<path vector-effect="none" fill-rule="evenodd" d="M6.73e+06,3.18e+06 L6.828e+06,3.18e+06 L6.828e+06,3.03185e+06 L6.73e+06,3.03185e+06 L6.73e+06,3.18e+06"/>
</g>

<g fill="#e63326" fill-opacity="1" stroke="none" transform="matrix(5e-05,0,0,5e-05,-67.6429,-2.78126)"
font-family="Helvetica" font-size="27" font-weight="400" font-style="normal" 
>
<path vector-effect="none" fill-rule="evenodd" d="M6.926e+06,3.18e+06 L7.024e+06,3.18e+06 L7.024e+06,3.03185e+06 L6.926e+06,3.03185e+06 L6.926e+06,3.18e+06"/>
</g>

<g fill="#ffffff" fill-opacity="1" stroke="none" transform="matrix(5e-05,0,0,5e-05,-67.6429,-2.78126)"
font-family="Helvetica" font-size="27" font-weight="400" font-style="normal" 
>
<path vector-effect="none" fill-rule="evenodd" d="M8.49e+06,380000 L8.49e+06,3.18e+06 L1.094e+07,3.18e+06 L1.094e+07,380000 L8.49e+06,380000"/>
</g>

<g fill="#212121" fill-opacity="1" stroke="#212121" stroke-opacity="1" stroke-width="1" stroke-linecap="square" stroke-linejoin="bevel" transform="matrix(0.5,0,0,0.5,366.357,185.112)"
font-family="Helvetica" font-size="27" font-weight="400" font-style="normal" 
>
<text fill="#212121" fill-opacity="1" stroke="none" xml:space="preserve" x="0" y="-0.21875" font-family="Helvetica" font-size="27" font-weight="400" font-style="normal" 
 >Mean Firing Rate</text>
</g>

<g fill="#212121" fill-opacity="1" stroke="#212121" stroke-opacity="1" stroke-width="4" stroke-linecap="square" stroke-linejoin="round" transform="matrix(0.5,0,0,0.5,-67.6429,-2.78126)"
font-family="Helvetica" font-size="27" font-weight="400" font-style="normal" 
>
<polyline fill="none" vector-effect="none" points="849,318 1094,318 " />
<polyline fill="none" vector-effect="none" points="849,318 849,315.2 " />
<polyline fill="none" vector-effect="none" points="971.5,318 971.5,315.2 " />
<polyline fill="none" vector-effect="none" points="1094,318 1094,315.2 " />
</g>

<g fill="#212121" fill-opacity="1" stroke="#212121" stroke-opacity="1" stroke-width="1" stroke-linecap="square" stroke-linejoin="bevel" transform="matrix(0.5,0,0,0.5,353.357,169.147)"
font-family="Helvetica" font-size="25" font-weight="400" font-style="normal" 
>
<text fill="#212121" fill-opacity="1" stroke="none" xml:space="preserve" x="0" y="0.25" font-family="Helvetica" font-size="25" font-weight="400" font-style="normal" 
 >0</text>
</g>

<g fill="#212121" fill-opacity="1" stroke="#212121" stroke-opacity="1" stroke-width="1" stroke-linecap="square" stroke-linejoin="bevel" transform="matrix(0.5,0,0,0.5,409.357,169.147)"
font-family="Helvetica" font-size="25" font-weight="400" font-style="normal" 
>
<text fill="#212121" fill-opacity="1" stroke="none" xml:space="preserve" x="0" y="0.25" font-family="Helvetica" font-size="25" font-weight="400" font-style="normal" 
 >0.5</text>
</g>

<g fill="#212121" fill-opacity="1" stroke="#212121" stroke-opacity="1" stroke-width="1" stroke-linecap="square" stroke-linejoin="bevel" transform="matrix(0.5,0,0,0.5,475.857,169.147)"
font-family="Helvetica" font-size="25" font-weight="400" font-style="normal" 
>
<text fill="#212121" fill-opacity="1" stroke="none" xml:space="preserve" x="0" y="0.25" font-family="Helvetica" font-size="25" font-weight="400" font-style="normal" 
 >1</text>
</g>

<g fill="#212121" fill-opacity="1" stroke="#212121" stroke-opacity="1" stroke-width="4" stroke-linecap="square" stroke-linejoin="round" transform="matrix(0.5,0,0,0.5,-67.6429,-2.78126)"
font-family="Helvetica" font-size="25" font-weight="400" font-style="normal" 
>
<polyline fill="none" vector-effect="none" points="849,318 849,38 " />
<polyline fill="none" vector-effect="none" points="849,318 851.8,318 " />
<polyline fill="none" vector-effect="none" points="849,243.926 851.8,243.926 " />
<polyline fill="none" vector-effect="none" points="849,169.852 851.8,169.852 " />
<polyline fill="none" vector-effect="none" points="849,95.7778 851.8,95.7778 " />
</g>

<g fill="#212121" fill-opacity="1" stroke="#212121" stroke-opacity="1" stroke-width="1" stroke-linecap="square" stroke-linejoin="bevel" transform="matrix(0.5,0,0,0.5,346.429,159.469)"
font-family="Helvetica" font-size="25" font-weight="400" font-style="normal" 
>
<text fill="#212121" fill-opacity="1" stroke="none" xml:space="preserve" x="0" y="0.25" font-family="Helvetica" font-size="25" font-weight="400" font-style="normal" 
 >0</text>
</g>

<g fill="#212121" fill-opacity="1" stroke="#212121" stroke-opacity="1" stroke-width="1" stroke-linecap="square" stroke-linejoin="bevel" transform="matrix(0.5,0,0,0.5,346.429,122.432)"
font-family="Helvetica" font-size="25" font-weight="400" font-style="normal" 
>
<text fill="#212121" fill-opacity="1" stroke="none" xml:space="preserve" x="0" y="0.25" font-family="Helvetica" font-size="25" font-weight="400" font-style="normal" 
 >5</text>
</g>

<g fill="#212121" fill-opacity="1" stroke="#212121" stroke-opacity="1" stroke-width="1" stroke-linecap="square" stroke-linejoin="bevel" transform="matrix(0.5,0,0,0.5,339.429,85.3947)"
font-family="Helvetica" font-size="25" font-weight="400" font-style="normal" 
>
<text fill="#212121" fill-opacity="1" stroke="none" xml:space="preserve" x="0" y="0.25" font-family="Helvetica" font-size="25" font-weight="400" font-style="normal" 
 >10</text>
</g>

<g fill="#212121" fill-opacity="1" stroke="#212121" stroke-opacity="1" stroke-width="1" stroke-linecap="square" stroke-linejoin="bevel" transform="matrix(0.5,0,0,0.5,339.429,48.3576)"
font-family="Helvetica" font-size="25" font-weight="400" font-style="normal" 
>
<text fill="#212121" fill-opacity="1" stroke="none" xml:space="preserve" x="0" y="0.25" font-family="Helvetica" font-size="25" font-weight="400" font-style="normal" 
 >15</text>
</g>

<g fill="#212121" fill-opacity="1" stroke="#212121" stroke-opacity="1" stroke-width="1" stroke-linecap="square" stroke-linejoin="bevel" transform="matrix(0.5,0,0,0.5,388.857,11.5)"
font-family="Helvetica" font-size="27" font-weight="400" font-style="normal" 
>
<text fill="#212121" fill-opacity="1" stroke="none" xml:space="preserve" x="0" y="-0.21875" font-family="Helvetica" font-size="27" font-weight="400" font-style="normal" 
 >STD Only</text>
</g>

<g fill="#1a4de6" fill-opacity="1" stroke="none" transform="matrix(5e-05,0,0,5e-05,-67.6429,-2.78126)"
font-family="Helvetica" font-size="27" font-weight="400" font-style="normal" 
>
<path vector-effect="none" fill-rule="evenodd" d="M8.49e+06,3.18e+06 L8.588e+06,3.18e+06 L8.588e+06,3.03185e+06 L8.588e+06,2.8837e+06 L8.588e+06,2.73556e+06 L8.588e+06,2.58741e+06 L8.588e+06,2.43926e+06 L8.49e+06,2.43926e+06 L8.49e+06,2.58741e+06 L8.49e+06,2.73556e+06 L8.49e+06,2.8837e+06 L8.49e+06,3.03185e+06 L8.49e+06,3.18e+06"/>
</g>

<g fill="#576bc3" fill-opacity="1" stroke="none" transform="matrix(5e-05,0,0,5e-05,-67.6429,-2.78126)"
font-family="Helvetica" font-size="27" font-weight="400" font-style="normal" 
>
<path vector-effect="none" fill-rule="evenodd" d="M8.49e+06,2.43926e+06 L8.588e+06,2.43926e+06 L8.588e+06,2.29111e+06 L8.588e+06,2.14296e+06 L8.588e+06,1.99481e+06 L8.588e+06,1.84667e+06 L8.588e+06,1.69852e+06 L8.49e+06,1.69852e+06 L8.49e+06,1.84667e+06 L8.49e+06,1.99481e+06 L8.49e+06,2.14296e+06 L8.49e+06,2.29111e+06 L8.49e+06,2.43926e+06"/>
</g>

<g fill="#8d7398" fill-opacity="1" stroke="none" transform="matrix(5e-05,0,0,5e-05,-67.6429,-2.78126)"
font-family="Helvetica" font-size="27" font-weight="400" font-style="normal" 
>
<path vector-effect="none" fill-rule="evenodd" d="M8.49e+06,1.69852e+06 L8.588e+06,1.69852e+06 L8.588e+06,1.55037e+06 L8.588e+06,1.40222e+06 L8.588e+06,1.25407e+06 L8.49e+06,1.25407e+06 L8.49e+06,1.40222e+06 L8.49e+06,1.55037e+06 L8.49e+06,1.69852e+06"/>
</g>

<g fill="#bc6165" fill-opacity="1" stroke="none" transform="matrix(5e-05,0,0,5e-05,-67.6429,-2.78126)"
font-family="Helvetica" font-size="27" font-weight="400" font-style="normal" 
>
<path vector-effect="none" fill-rule="evenodd" d="M8.49e+06,1.25407e+06 L8.588e+06,1.25407e+06 L8.588e+06,1.10593e+06 L8.49e+06,1.10593e+06 L8.49e+06,1.25407e+06"/>
</g>

<g fill="#8d7398" fill-opacity="1" stroke="none" transform="matrix(5e-05,0,0,5e-05,-67.6429,-2.78126)"
font-family="Helvetica" font-size="27" font-weight="400" font-style="normal" 
>
<path vector-effect="none" fill-rule="evenodd" d="M8.588e+06,3.18e+06 L8.686e+06,3.18e+06 L8.686e+06,3.03185e+06 L8.686e+06,2.8837e+06 L8.588e+06,2.8837e+06 L8.588e+06,3.03185e+06 L8.588e+06,3.18e+06"/>
</g>

<g fill="#bc6165" fill-opacity="1" stroke="none" transform="matrix(5e-05,0,0,5e-05,-67.6429,-2.78126)"
font-family="Helvetica" font-size="27" font-weight="400" font-style="normal" 
>
<path vector-effect="none" fill-rule="evenodd" d="M8.588e+06,2.8837e+06 L8.686e+06,2.8837e+06 L8.686e+06,2.73556e+06 L8.686e+06,2.58741e+06 L8.686e+06,2.43926e+06 L8.686e+06,2.29111e+06 L8.588e+06,2.29111e+06 L8.588e+06,2.43926e+06 L8.588e+06,2.58741e+06 L8.588e+06,2.73556e+06 L8.588e+06,2.8837e+06"/>
</g>

<g fill="#e63326" fill-opacity="1" stroke="none" transform="matrix(5e-05,0,0,5e-05,-67.6429,-2.78126)"
font-family="Helvetica" font-size="27" font-weight="400" font-style="normal" 
>
<path vector-effect="none" fill-rule="evenodd" d="M8.588e+06,2.29111e+06 L8.686e+06,2.29111e+06 L8.686e+06,2.14296e+06 L8.686e+06,1.99481e+06 L8.588e+06,1.99481e+06 L8.588e+06,2.14296e+06 L8.588e+06,2.29111e+06"/>
</g>

<g fill="#e63326" fill-opacity="1" stroke="none" transform="matrix(5e-05,0,0,5e-05,-67.6429,-2.78126)"
font-family="Helvetica" font-size="27" font-weight="400" font-style="normal" 
>
<path vector-effect="none" fill-rule="evenodd" d="M8.686e+06,3.18e+06 L8.784e+06,3.18e+06 L8.882e+06,3.18e+06 L8.882e+06,3.03185e+06 L8.784e+06,3.03185e+06 L8.784e+06,2.8837e+06 L8.686e+06,2.8837e+06 L8.686e+06,3.03185e+06 L8.686e+06,3.18e+06"/>
</g>

<g fill="#ffffff" fill-opacity="1" stroke="none" transform="matrix(5e-05,0,0,5e-05,-67.6429,-2.78126)"
font-family="Helvetica" font-size="27" font-weight="400" font-style="normal" 
>
<path vector-effect="none" fill-rule="evenodd" d="M1.171e+07,380000 L1.171e+07,3.18e+06 L1.416e+07,3.18e+06 L1.416e+07,380000 L1.171e+07,380000"/>
</g>

<g fill="#212121" fill-opacity="1" stroke="#212121" stroke-opacity="1" stroke-width="1" stroke-linecap="square" stroke-linejoin="bevel" transform="matrix(0.5,0,0,0.5,527.357,185.112)"
font-family="Helvetica" font-size="27" font-weight="400" font-style="normal" 
>
<text fill="#212121" fill-opacity="1" stroke="none" xml:space="preserve" x="0" y="-0.21875" font-family="Helvetica" font-size="27" font-weight="400" font-style="normal" 
 >Mean Firing Rate</text>
</g>

<g fill="#212121" fill-opacity="1" stroke="#212121" stroke-opacity="1" stroke-width="4" stroke-linecap="square" stroke-linejoin="round" transform="matrix(0.5,0,0,0.5,-67.6429,-2.78126)"
font-family="Helvetica" font-size="27" font-weight="400" font-style="normal" 
>
<polyline fill="none" vector-effect="none" points="1171,318 1416,318 " />
<polyline fill="none" vector-effect="none" points="1171,318 1171,315.2 " />
<polyline fill="none" vector-effect="none" points="1293.5,318 1293.5,315.2 " />
<polyline fill="none" vector-effect="none" points="1416,318 1416,315.2 " />
</g>

<g fill="#212121" fill-opacity="1" stroke="#212121" stroke-opacity="1" stroke-width="1" stroke-linecap="square" stroke-linejoin="bevel" transform="matrix(0.5,0,0,0.5,514.357,169.147)"
font-family="Helvetica" font-size="25" font-weight="400" font-style="normal" 
>
<text fill="#212121" fill-opacity="1" stroke="none" xml:space="preserve" x="0" y="0.25" font-family="Helvetica" font-size="25" font-weight="400" font-style="normal" 
 >0</text>
</g>

<g fill="#212121" fill-opacity="1" stroke="#212121" stroke-opacity="1" stroke-width="1" stroke-linecap="square" stroke-linejoin="bevel" transform="matrix(0.5,0,0,0.5,570.357,169.147)"
font-family="Helvetica" font-size="25" font-weight="400" font-style="normal" 
>
<text fill="#212121" fill-opacity="1" stroke="none" xml:space="preserve" x="0" y="0.25" font-family="Helvetica" font-size="25" font-weight="400" font-style="normal" 
 >0.5</text>
</g>

<g fill="#212121" fill-opacity="1" stroke="#212121" stroke-opacity="1" stroke-width="1" stroke-linecap="square" stroke-linejoin="bevel" transform="matrix(0.5,0,0,0.5,636.857,169.147)"
font-family="Helvetica" font-size="25" font-weight="400" font-style="normal" 
>
<text fill="#212121" fill-opacity="1" stroke="none" xml:space="preserve" x="0" y="0.25" font-family="Helvetica" font-size="25" font-weight="400" font-style="normal" 
 >1</text>
</g>

<g fill="#212121" fill-opacity="1" stroke="#212121" stroke-opacity="1" stroke-width="4" stroke-linecap="square" stroke-linejoin="round" transform="matrix(0.5,0,0,0.5,-67.6429,-2.78126)"
font-family="Helvetica" font-size="25" font-weight="400" font-style="normal" 
>
<polyline fill="none" vector-effect="none" points="1171,318 1171,38 " />
<polyline fill="none" vector-effect="none" points="1171,318 1173.8,318 " />
<polyline fill="none" vector-effect="none" points="1171,243.926 1173.8,243.926 " />
<polyline fill="none" vector-effect="none" points="1171,169.852 1173.8,169.852 " />
<polyline fill="none" vector-effect="none" points="1171,95.7778 1173.8,95.7778 " />
</g>

<g fill="#212121" fill-opacity="1" stroke="#212121" stroke-opacity="1" stroke-width="1" stroke-linecap="square" stroke-linejoin="bevel" transform="matrix(0.5,0,0,0.5,507.429,159.469)"
font-family="Helvetica" font-size="25" font-weight="400" font-style="normal" 
>
<text fill="#212121" fill-opacity="1" stroke="none" xml:space="preserve" x="0" y="0.25" font-family="Helvetica" font-size="25" font-weight="400" font-style="normal" 
 >0</text>
</g>

<g fill="#212121" fill-opacity="1" stroke="#212121" stroke-opacity="1" stroke-width="1" stroke-linecap="square" stroke-linejoin="bevel" transform="matrix(0.5,0,0,0.5,507.429,122.432)"
font-family="Helvetica" font-size="25" font-weight="400" font-style="normal" 
>
<text fill="#212121" fill-opacity="1" stroke="none" xml:space="preserve" x="0" y="0.25" font-family="Helvetica" font-size="25" font-weight="400" font-style="normal" 
 >5</text>
</g>

<g fill="#212121" fill-opacity="1" stroke="#212121" stroke-opacity="1" stroke-width="1" stroke-linecap="square" stroke-linejoin="bevel" transform="matrix(0.5,0,0,0.5,500.429,85.3947)"
font-family="Helvetica" font-size="25" font-weight="400" font-style="normal" 
>
<text fill="#212121" fill-opacity="1" stroke="none" xml:space="preserve" x="0" y="0.25" font-family="Helvetica" font-size="25" font-weight="400" font-style="normal" 
 >10</text>
</g>

<g fill="#212121" fill-opacity="1" stroke="#212121" stroke-opacity="1" stroke-width="1" stroke-linecap="square" stroke-linejoin="bevel" transform="matrix(0.5,0,0,0.5,500.429,48.3576)"
font-family="Helvetica" font-size="25" font-weight="400" font-style="normal" 
>
<text fill="#212121" fill-opacity="1" stroke="none" xml:space="preserve" x="0" y="0.25" font-family="Helvetica" font-size="25" font-weight="400" font-style="normal" 
 >15</text>
</g>

<g fill="#212121" fill-opacity="1" stroke="#212121" stroke-opacity="1" stroke-width="1" stroke-linecap="square" stroke-linejoin="bevel" transform="matrix(0.5,0,0,0.5,545.607,11.5)"
font-family="Helvetica" font-size="27" font-weight="400" font-style="normal" 
>
<text fill="#212121" fill-opacity="1" stroke="none" xml:space="preserve" x="0" y="-0.21875" font-family="Helvetica" font-size="27" font-weight="400" font-style="normal" 
 >SFA + STD</text>
</g>

<g fill="#1a4de6" fill-opacity="1" stroke="none" transform="matrix(5e-05,0,0,5e-05,-67.6429,-2.78126)"
font-family="Helvetica" font-size="27" font-weight="400" font-style="normal" 
>
<path vector-effect="none" fill-rule="evenodd" d="M1.171e+07,3.18e+06 L1.1808e+07,3.18e+06 L1.1808e+07,3.03185e+06 L1.1808e+07,2.8837e+06 L1.1808e+07,2.73556e+06 L1.1808e+07,2.58741e+06 L1.1808e+07,2.43926e+06 L1.171e+07,2.43926e+06 L1.171e+07,2.58741e+06 L1.171e+07,2.73556e+06 L1.171e+07,2.8837e+06 L1.171e+07,3.03185e+06 L1.171e+07,3.18e+06"/>
</g>

<g fill="#576bc3" fill-opacity="1" stroke="none" transform="matrix(5e-05,0,0,5e-05,-67.6429,-2.78126)"
font-family="Helvetica" font-size="27" font-weight="400" font-style="normal" 
>
<path vector-effect="none" fill-rule="evenodd" d="M1.171e+07,2.43926e+06 L1.1808e+07,2.43926e+06 L1.1808e+07,2.29111e+06 L1.1808e+07,2.14296e+06 L1.1808e+07,1.99481e+06 L1.1808e+07,1.84667e+06 L1.1808e+07,1.69852e+06 L1.171e+07,1.69852e+06 L1.171e+07,1.84667e+06 L1.171e+07,1.99481e+06 L1.171e+07,2.14296e+06 L1.171e+07,2.29111e+06 L1.171e+07,2.43926e+06"/>
</g>

<g fill="#8d7398" fill-opacity="1" stroke="none" transform="matrix(5e-05,0,0,5e-05,-67.6429,-2.78126)"
font-family="Helvetica" font-size="27" font-weight="400" font-style="normal" 
>
<path vector-effect="none" fill-rule="evenodd" d="M1.171e+07,1.69852e+06 L1.1808e+07,1.69852e+06 L1.1808e+07,1.55037e+06 L1.1808e+07,1.40222e+06 L1.1808e+07,1.25407e+06 L1.1808e+07,1.10593e+06 L1.1808e+07,957777 L1.171e+07,957777 L1.171e+07,1.10593e+06 L1.171e+07,1.25407e+06 L1.171e+07,1.40222e+06 L1.171e+07,1.55037e+06 L1.171e+07,1.69852e+06"/>
</g>

<g fill="#bc6165" fill-opacity="1" stroke="none" transform="matrix(5e-05,0,0,5e-05,-67.6429,-2.78126)"
font-family="Helvetica" font-size="27" font-weight="400" font-style="normal" 
>
<path vector-effect="none" fill-rule="evenodd" d="M1.171e+07,957777 L1.1808e+07,957777 L1.1808e+07,809629 L1.1808e+07,661481 L1.1808e+07,513333 L1.171e+07,513333 L1.171e+07,661481 L1.171e+07,809629 L1.171e+07,957777"/>
</g>

<g fill="#bc6165" fill-opacity="1" stroke="none" transform="matrix(5e-05,0,0,5e-05,-67.6429,-2.78126)"
font-family="Helvetica" font-size="27" font-weight="400" font-style="normal" 
>
<path vector-effect="none" fill-rule="evenodd" d="M1.1808e+07,3.18e+06 L1.1906e+07,3.18e+06 L1.1906e+07,3.03185e+06 L1.1906e+07,2.8837e+06 L1.1808e+07,2.8837e+06 L1.1808e+07,3.03185e+06 L1.1808e+07,3.18e+06"/>
</g>

<g fill="#e63326" fill-opacity="1" stroke="none" transform="matrix(5e-05,0,0,5e-05,-67.6429,-2.78126)"
font-family="Helvetica" font-size="27" font-weight="400" font-style="normal" 
>
<path vector-effect="none" fill-rule="evenodd" d="M1.1808e+07,2.8837e+06 L1.1906e+07,2.8837e+06 L1.1906e+07,2.73556e+06 L1.1906e+07,2.58741e+06 L1.1906e+07,2.43926e+06 L1.1808e+07,2.43926e+06 L1.1808e+07,2.58741e+06 L1.1808e+07,2.73556e+06 L1.1808e+07,2.8837e+06"/>
</g>

<g fill="#e63326" fill-opacity="1" stroke="none" transform="matrix(5e-05,0,0,5e-05,-67.6429,-2.78126)"
font-family="Helvetica" font-size="27" font-weight="400" font-style="normal" 
>
<path vector-effect="none" fill-rule="evenodd" d="M1.1906e+07,3.18e+06 L1.2004e+07,3.18e+06 L1.2102e+07,3.18e+06 L1.2102e+07,3.03185e+06 L1.2004e+07,3.03185e+06 L1.1906e+07,3.03185e+06 L1.1906e+07,3.18e+06"/>
</g>
</g>
</svg>
